<mxfile host="Electron" agent="Mozilla/5.0 (Windows NT 10.0; Win64; x64) AppleWebKit/537.36 (KHTML, like Gecko) draw.io/24.7.8 Chrome/128.0.6613.36 Electron/32.0.1 Safari/537.36" version="24.7.8">
  <diagram name="Page-1" id="-cos1wBmSCrpkTg_6rD2">
    <mxGraphModel dx="4253" dy="3120" grid="1" gridSize="10" guides="1" tooltips="1" connect="1" arrows="1" fold="1" page="1" pageScale="1" pageWidth="850" pageHeight="1100" math="0" shadow="0">
      <root>
        <mxCell id="0" />
        <mxCell id="1" parent="0" />
        <mxCell id="t6ghwq_tImVH2vB8FOV7-1" value="Start Program" style="whiteSpace=wrap;strokeWidth=2;" vertex="1" parent="1">
          <mxGeometry x="258" y="-675" width="114" height="33" as="geometry" />
        </mxCell>
        <mxCell id="t6ghwq_tImVH2vB8FOV7-2" value="Define get_valid_number function for input validation" style="whiteSpace=wrap;strokeWidth=2;" vertex="1" parent="1">
          <mxGeometry x="113" y="-592" width="403" height="33" as="geometry" />
        </mxCell>
        <mxCell id="t6ghwq_tImVH2vB8FOV7-3" value="Prompt user to enter number for Armstrong check" style="whiteSpace=wrap;strokeWidth=2;" vertex="1" parent="1">
          <mxGeometry x="128" y="-508" width="374" height="33" as="geometry" />
        </mxCell>
        <mxCell id="t6ghwq_tImVH2vB8FOV7-4" value="Check if input is all digits" style="whiteSpace=wrap;strokeWidth=2;" vertex="1" parent="1">
          <mxGeometry x="355" y="-425" width="198" height="33" as="geometry" />
        </mxCell>
        <mxCell id="t6ghwq_tImVH2vB8FOV7-5" value="Show error: Invalid input. Ask again" style="whiteSpace=wrap;strokeWidth=2;" vertex="1" parent="1">
          <mxGeometry x="20" y="-323" width="270" height="33" as="geometry" />
        </mxCell>
        <mxCell id="t6ghwq_tImVH2vB8FOV7-6" value="Convert input to integer and return" style="whiteSpace=wrap;strokeWidth=2;" vertex="1" parent="1">
          <mxGeometry x="340" y="-323" width="270" height="33" as="geometry" />
        </mxCell>
        <mxCell id="t6ghwq_tImVH2vB8FOV7-7" value="Start Armstrong function" style="whiteSpace=wrap;strokeWidth=2;" vertex="1" parent="1">
          <mxGeometry x="379" y="-240" width="192" height="33" as="geometry" />
        </mxCell>
        <mxCell id="t6ghwq_tImVH2vB8FOV7-14" value="Prompt user to enter number for Palindrome check" style="whiteSpace=wrap;strokeWidth=2;" vertex="1" parent="1">
          <mxGeometry x="699" y="1010" width="382" height="33" as="geometry" />
        </mxCell>
        <mxCell id="t6ghwq_tImVH2vB8FOV7-15" value="Check if input is all digits" style="whiteSpace=wrap;strokeWidth=2;" vertex="1" parent="1">
          <mxGeometry x="936" y="1093" width="198" height="33" as="geometry" />
        </mxCell>
        <mxCell id="t6ghwq_tImVH2vB8FOV7-16" value="Show error: Invalid input. Ask again" style="whiteSpace=wrap;strokeWidth=2;" vertex="1" parent="1">
          <mxGeometry x="595" y="1195" width="270" height="33" as="geometry" />
        </mxCell>
        <mxCell id="t6ghwq_tImVH2vB8FOV7-17" value="Convert input to integer and return" style="whiteSpace=wrap;strokeWidth=2;" vertex="1" parent="1">
          <mxGeometry x="915" y="1195" width="270" height="33" as="geometry" />
        </mxCell>
        <mxCell id="t6ghwq_tImVH2vB8FOV7-107" style="edgeStyle=orthogonalEdgeStyle;rounded=0;orthogonalLoop=1;jettySize=auto;html=1;" edge="1" parent="1" source="t6ghwq_tImVH2vB8FOV7-18" target="t6ghwq_tImVH2vB8FOV7-81">
          <mxGeometry relative="1" as="geometry" />
        </mxCell>
        <mxCell id="t6ghwq_tImVH2vB8FOV7-18" value="Start Palindrome function" style="whiteSpace=wrap;strokeWidth=2;" vertex="1" parent="1">
          <mxGeometry x="950" y="1279" width="200" height="33" as="geometry" />
        </mxCell>
        <mxCell id="t6ghwq_tImVH2vB8FOV7-26" value="" style="curved=1;startArrow=none;endArrow=block;exitX=0.5;exitY=1.01;entryX=0.5;entryY=0.01;rounded=0;" edge="1" parent="1" source="t6ghwq_tImVH2vB8FOV7-1" target="t6ghwq_tImVH2vB8FOV7-2">
          <mxGeometry relative="1" as="geometry">
            <Array as="points" />
          </mxGeometry>
        </mxCell>
        <mxCell id="t6ghwq_tImVH2vB8FOV7-27" value="" style="curved=1;startArrow=none;endArrow=block;exitX=0.5;exitY=1.02;entryX=0.5;entryY=-0.01;rounded=0;" edge="1" parent="1" source="t6ghwq_tImVH2vB8FOV7-2" target="t6ghwq_tImVH2vB8FOV7-3">
          <mxGeometry relative="1" as="geometry">
            <Array as="points" />
          </mxGeometry>
        </mxCell>
        <mxCell id="t6ghwq_tImVH2vB8FOV7-28" value="" style="curved=1;startArrow=none;endArrow=block;exitX=0.65;exitY=1.01;entryX=0.5;entryY=0.01;rounded=0;" edge="1" parent="1" source="t6ghwq_tImVH2vB8FOV7-3" target="t6ghwq_tImVH2vB8FOV7-4">
          <mxGeometry relative="1" as="geometry">
            <Array as="points">
              <mxPoint x="454" y="-450" />
            </Array>
          </mxGeometry>
        </mxCell>
        <mxCell id="t6ghwq_tImVH2vB8FOV7-29" value="No" style="curved=1;startArrow=none;endArrow=block;exitX=0.24;exitY=1.02;entryX=0.67;entryY=0;rounded=0;" edge="1" parent="1" source="t6ghwq_tImVH2vB8FOV7-4" target="t6ghwq_tImVH2vB8FOV7-5">
          <mxGeometry relative="1" as="geometry">
            <Array as="points">
              <mxPoint x="294" y="-357" />
            </Array>
          </mxGeometry>
        </mxCell>
        <mxCell id="t6ghwq_tImVH2vB8FOV7-30" value="" style="curved=1;startArrow=none;endArrow=block;exitX=0.48;exitY=0;entryX=0.31;entryY=1.01;rounded=0;" edge="1" parent="1" source="t6ghwq_tImVH2vB8FOV7-5" target="t6ghwq_tImVH2vB8FOV7-3">
          <mxGeometry relative="1" as="geometry">
            <Array as="points">
              <mxPoint x="140" y="-357" />
              <mxPoint x="140" y="-450" />
            </Array>
          </mxGeometry>
        </mxCell>
        <mxCell id="t6ghwq_tImVH2vB8FOV7-31" value="Yes" style="curved=1;startArrow=none;endArrow=block;exitX=0.54;exitY=1.02;entryX=0.5;entryY=0;rounded=0;" edge="1" parent="1" source="t6ghwq_tImVH2vB8FOV7-4" target="t6ghwq_tImVH2vB8FOV7-6">
          <mxGeometry relative="1" as="geometry">
            <Array as="points">
              <mxPoint x="475" y="-357" />
            </Array>
          </mxGeometry>
        </mxCell>
        <mxCell id="t6ghwq_tImVH2vB8FOV7-32" value="" style="curved=1;startArrow=none;endArrow=block;exitX=0.5;exitY=1.01;entryX=0.5;entryY=0.01;rounded=0;" edge="1" parent="1" source="t6ghwq_tImVH2vB8FOV7-6" target="t6ghwq_tImVH2vB8FOV7-7">
          <mxGeometry relative="1" as="geometry">
            <Array as="points" />
          </mxGeometry>
        </mxCell>
        <mxCell id="t6ghwq_tImVH2vB8FOV7-33" value="" style="curved=1;startArrow=none;endArrow=block;exitX=0.5;exitY=1.02;entryX=0.5;entryY=-0.01;rounded=0;" edge="1" parent="1" source="t6ghwq_tImVH2vB8FOV7-7">
          <mxGeometry relative="1" as="geometry">
            <Array as="points" />
            <mxPoint x="475" y="-156" as="targetPoint" />
          </mxGeometry>
        </mxCell>
        <mxCell id="t6ghwq_tImVH2vB8FOV7-39" value="" style="curved=1;startArrow=none;endArrow=block;exitX=0.5;exitY=1;entryX=0.5;entryY=0;rounded=0;exitDx=0;exitDy=0;" edge="1" parent="1" source="t6ghwq_tImVH2vB8FOV7-79">
          <mxGeometry relative="1" as="geometry">
            <Array as="points" />
            <mxPoint x="895.5" y="960.0000000000005" as="sourcePoint" />
            <mxPoint x="895" y="1010" as="targetPoint" />
          </mxGeometry>
        </mxCell>
        <mxCell id="t6ghwq_tImVH2vB8FOV7-40" value="" style="curved=1;startArrow=none;endArrow=block;exitX=0.65;exitY=1.01;entryX=0.5;entryY=0.01;rounded=0;" edge="1" parent="1" target="t6ghwq_tImVH2vB8FOV7-15">
          <mxGeometry relative="1" as="geometry">
            <Array as="points">
              <mxPoint x="1034" y="1068" />
            </Array>
            <mxPoint x="951.176470588236" y="1043" as="sourcePoint" />
          </mxGeometry>
        </mxCell>
        <mxCell id="t6ghwq_tImVH2vB8FOV7-41" value="No" style="curved=1;startArrow=none;endArrow=block;exitX=0.23;exitY=1.02;entryX=0.67;entryY=0;rounded=0;" edge="1" parent="1" source="t6ghwq_tImVH2vB8FOV7-15" target="t6ghwq_tImVH2vB8FOV7-16">
          <mxGeometry relative="1" as="geometry">
            <Array as="points">
              <mxPoint x="870" y="1161" />
            </Array>
          </mxGeometry>
        </mxCell>
        <mxCell id="t6ghwq_tImVH2vB8FOV7-42" value="" style="curved=1;startArrow=none;endArrow=block;exitX=0.48;exitY=0;entryX=0.32;entryY=1.01;rounded=0;" edge="1" parent="1" source="t6ghwq_tImVH2vB8FOV7-16" target="t6ghwq_tImVH2vB8FOV7-14">
          <mxGeometry relative="1" as="geometry">
            <Array as="points">
              <mxPoint x="715" y="1161" />
              <mxPoint x="715" y="1068" />
            </Array>
          </mxGeometry>
        </mxCell>
        <mxCell id="t6ghwq_tImVH2vB8FOV7-43" value="Yes" style="curved=1;startArrow=none;endArrow=block;exitX=0.53;exitY=1.02;entryX=0.5;entryY=0;rounded=0;" edge="1" parent="1" source="t6ghwq_tImVH2vB8FOV7-15" target="t6ghwq_tImVH2vB8FOV7-17">
          <mxGeometry relative="1" as="geometry">
            <Array as="points">
              <mxPoint x="1050" y="1161" />
            </Array>
          </mxGeometry>
        </mxCell>
        <mxCell id="t6ghwq_tImVH2vB8FOV7-44" value="" style="curved=1;startArrow=none;endArrow=block;exitX=0.5;exitY=1.02;entryX=0.5;entryY=-0.01;rounded=0;" edge="1" parent="1" source="t6ghwq_tImVH2vB8FOV7-17" target="t6ghwq_tImVH2vB8FOV7-18">
          <mxGeometry relative="1" as="geometry">
            <Array as="points" />
          </mxGeometry>
        </mxCell>
        <mxCell id="t6ghwq_tImVH2vB8FOV7-53" value="Initialize total = 0" style="whiteSpace=wrap;strokeWidth=2;" vertex="1" parent="1">
          <mxGeometry x="403.5" y="-154" width="144" height="33" as="geometry" />
        </mxCell>
        <mxCell id="t6ghwq_tImVH2vB8FOV7-54" value="Store original number in temp" style="whiteSpace=wrap;strokeWidth=2;" vertex="1" parent="1">
          <mxGeometry x="360.5" y="-70" width="231" height="33" as="geometry" />
        </mxCell>
        <mxCell id="t6ghwq_tImVH2vB8FOV7-55" value="Count number of digits in temp and store in ORDER" style="whiteSpace=wrap;strokeWidth=2;" vertex="1" parent="1">
          <mxGeometry x="284.5" y="13" width="383" height="33" as="geometry" />
        </mxCell>
        <mxCell id="t6ghwq_tImVH2vB8FOV7-56" value="Is temp greater than 0?" style="rhombus;strokeWidth=2;whiteSpace=wrap;" vertex="1" parent="1">
          <mxGeometry x="367.5" y="97" width="216" height="216" as="geometry" />
        </mxCell>
        <mxCell id="t6ghwq_tImVH2vB8FOV7-57" value="Extract last digit: digit = temp mod(%) 10" style="whiteSpace=wrap;strokeWidth=2;" vertex="1" parent="1">
          <mxGeometry x="105.5" y="381" width="291" height="33" as="geometry" />
        </mxCell>
        <mxCell id="t6ghwq_tImVH2vB8FOV7-58" value="Raise digit to the power of ORDER and add to total: total += digit ** ORDER" style="whiteSpace=wrap;strokeWidth=2;" vertex="1" parent="1">
          <mxGeometry x="60.5" y="591" width="380" height="33" as="geometry" />
        </mxCell>
        <mxCell id="t6ghwq_tImVH2vB8FOV7-59" value="Remove last digit: temp = temp divided by 10(temp //= 10)" style="whiteSpace=wrap;strokeWidth=2;" vertex="1" parent="1">
          <mxGeometry x="191.5" y="819" width="343" height="33" as="geometry" />
        </mxCell>
        <mxCell id="t6ghwq_tImVH2vB8FOV7-60" value="Compare total with original number" style="whiteSpace=wrap;strokeWidth=2;" vertex="1" parent="1">
          <mxGeometry x="755.5" y="381" width="273" height="33" as="geometry" />
        </mxCell>
        <mxCell id="t6ghwq_tImVH2vB8FOV7-61" value="Is total equal to original number?" style="rhombus;strokeWidth=2;whiteSpace=wrap;" vertex="1" parent="1">
          <mxGeometry x="748.5" y="464" width="287" height="287" as="geometry" />
        </mxCell>
        <mxCell id="t6ghwq_tImVH2vB8FOV7-62" value="Print: It is an Armstrong number" style="whiteSpace=wrap;strokeWidth=2;" vertex="1" parent="1">
          <mxGeometry x="614.5" y="819" width="246" height="33" as="geometry" />
        </mxCell>
        <mxCell id="t6ghwq_tImVH2vB8FOV7-63" value="Print: It is not an Armstrong number" style="whiteSpace=wrap;strokeWidth=2;" vertex="1" parent="1">
          <mxGeometry x="910.5" y="819" width="275" height="33" as="geometry" />
        </mxCell>
        <mxCell id="t6ghwq_tImVH2vB8FOV7-66" value="" style="curved=1;startArrow=none;endArrow=block;exitX=0.5;exitY=1.02;entryX=0.5;entryY=-0.01;rounded=0;" edge="1" parent="1" source="t6ghwq_tImVH2vB8FOV7-53" target="t6ghwq_tImVH2vB8FOV7-54">
          <mxGeometry relative="1" as="geometry">
            <Array as="points" />
          </mxGeometry>
        </mxCell>
        <mxCell id="t6ghwq_tImVH2vB8FOV7-67" value="" style="curved=1;startArrow=none;endArrow=block;exitX=0.5;exitY=1.01;entryX=0.5;entryY=0.01;rounded=0;" edge="1" parent="1" source="t6ghwq_tImVH2vB8FOV7-54" target="t6ghwq_tImVH2vB8FOV7-55">
          <mxGeometry relative="1" as="geometry">
            <Array as="points" />
          </mxGeometry>
        </mxCell>
        <mxCell id="t6ghwq_tImVH2vB8FOV7-68" value="" style="curved=1;startArrow=none;endArrow=block;exitX=0.5;exitY=1.02;entryX=0.5;entryY=0;rounded=0;" edge="1" parent="1" source="t6ghwq_tImVH2vB8FOV7-55" target="t6ghwq_tImVH2vB8FOV7-56">
          <mxGeometry relative="1" as="geometry">
            <Array as="points" />
          </mxGeometry>
        </mxCell>
        <mxCell id="t6ghwq_tImVH2vB8FOV7-69" value="Yes" style="curved=1;startArrow=none;endArrow=block;exitX=0;exitY=0.81;entryX=0.5;entryY=-0.01;rounded=0;" edge="1" parent="1" source="t6ghwq_tImVH2vB8FOV7-56" target="t6ghwq_tImVH2vB8FOV7-57">
          <mxGeometry relative="1" as="geometry">
            <Array as="points">
              <mxPoint x="250.5" y="346" />
            </Array>
          </mxGeometry>
        </mxCell>
        <mxCell id="t6ghwq_tImVH2vB8FOV7-70" value="" style="curved=1;startArrow=none;endArrow=block;exitX=0.5;exitY=1;entryX=0.5;entryY=-0.01;rounded=0;" edge="1" parent="1" source="t6ghwq_tImVH2vB8FOV7-57" target="t6ghwq_tImVH2vB8FOV7-58">
          <mxGeometry relative="1" as="geometry">
            <Array as="points" />
          </mxGeometry>
        </mxCell>
        <mxCell id="t6ghwq_tImVH2vB8FOV7-71" value="" style="curved=1;startArrow=none;endArrow=block;exitX=0.5;exitY=1.01;entryX=0.39;entryY=0.01;rounded=0;" edge="1" parent="1" source="t6ghwq_tImVH2vB8FOV7-58" target="t6ghwq_tImVH2vB8FOV7-59">
          <mxGeometry relative="1" as="geometry">
            <Array as="points">
              <mxPoint x="250.5" y="785" />
            </Array>
          </mxGeometry>
        </mxCell>
        <mxCell id="t6ghwq_tImVH2vB8FOV7-72" value="" style="curved=1;startArrow=none;endArrow=block;exitX=0.61;exitY=0.01;entryX=0.5;entryY=1;rounded=0;" edge="1" parent="1" source="t6ghwq_tImVH2vB8FOV7-59" target="t6ghwq_tImVH2vB8FOV7-56">
          <mxGeometry relative="1" as="geometry">
            <Array as="points">
              <mxPoint x="475.5" y="785" />
            </Array>
          </mxGeometry>
        </mxCell>
        <mxCell id="t6ghwq_tImVH2vB8FOV7-73" value="No" style="curved=1;startArrow=none;endArrow=block;exitX=1;exitY=0.67;entryX=0.5;entryY=-0.01;rounded=0;" edge="1" parent="1" source="t6ghwq_tImVH2vB8FOV7-56" target="t6ghwq_tImVH2vB8FOV7-60">
          <mxGeometry relative="1" as="geometry">
            <Array as="points">
              <mxPoint x="892.5" y="346" />
            </Array>
          </mxGeometry>
        </mxCell>
        <mxCell id="t6ghwq_tImVH2vB8FOV7-74" value="" style="curved=1;startArrow=none;endArrow=block;exitX=0.5;exitY=1;entryX=0.5;entryY=0;rounded=0;" edge="1" parent="1" source="t6ghwq_tImVH2vB8FOV7-60" target="t6ghwq_tImVH2vB8FOV7-61">
          <mxGeometry relative="1" as="geometry">
            <Array as="points" />
          </mxGeometry>
        </mxCell>
        <mxCell id="t6ghwq_tImVH2vB8FOV7-75" value="Yes" style="curved=1;startArrow=none;endArrow=block;exitX=0.06;exitY=1;entryX=0.5;entryY=0.01;rounded=0;" edge="1" parent="1" source="t6ghwq_tImVH2vB8FOV7-61" target="t6ghwq_tImVH2vB8FOV7-62">
          <mxGeometry relative="1" as="geometry">
            <Array as="points">
              <mxPoint x="737.5" y="785" />
            </Array>
          </mxGeometry>
        </mxCell>
        <mxCell id="t6ghwq_tImVH2vB8FOV7-76" value="No" style="curved=1;startArrow=none;endArrow=block;exitX=0.94;exitY=1;entryX=0.5;entryY=0.01;rounded=0;" edge="1" parent="1" source="t6ghwq_tImVH2vB8FOV7-61" target="t6ghwq_tImVH2vB8FOV7-63">
          <mxGeometry relative="1" as="geometry">
            <Array as="points">
              <mxPoint x="1047.5" y="785" />
            </Array>
          </mxGeometry>
        </mxCell>
        <mxCell id="t6ghwq_tImVH2vB8FOV7-77" value="" style="curved=1;startArrow=none;endArrow=block;exitX=0.5;exitY=1.03;entryX=0;entryY=0.5;rounded=0;entryDx=0;entryDy=0;" edge="1" parent="1" source="t6ghwq_tImVH2vB8FOV7-62" target="t6ghwq_tImVH2vB8FOV7-79">
          <mxGeometry relative="1" as="geometry">
            <Array as="points">
              <mxPoint x="737.5" y="878" />
            </Array>
            <mxPoint x="871.5" y="913.7755102040815" as="targetPoint" />
          </mxGeometry>
        </mxCell>
        <mxCell id="t6ghwq_tImVH2vB8FOV7-78" value="" style="curved=1;startArrow=none;endArrow=block;exitX=0.5;exitY=1.03;entryX=1;entryY=0.5;rounded=0;entryDx=0;entryDy=0;" edge="1" parent="1" source="t6ghwq_tImVH2vB8FOV7-63" target="t6ghwq_tImVH2vB8FOV7-79">
          <mxGeometry relative="1" as="geometry">
            <Array as="points">
              <mxPoint x="1047.5" y="878" />
            </Array>
            <mxPoint x="912.5000000000005" y="914" as="targetPoint" />
          </mxGeometry>
        </mxCell>
        <mxCell id="t6ghwq_tImVH2vB8FOV7-79" value="End" style="whiteSpace=wrap;strokeWidth=2;" vertex="1" parent="1">
          <mxGeometry x="865" y="907" width="60" height="33" as="geometry" />
        </mxCell>
        <mxCell id="t6ghwq_tImVH2vB8FOV7-81" value="Store original number in variable original" style="whiteSpace=wrap;strokeWidth=2;" vertex="1" parent="1">
          <mxGeometry x="895" y="1363" width="310" height="33" as="geometry" />
        </mxCell>
        <mxCell id="t6ghwq_tImVH2vB8FOV7-82" value="Initialize reverse = 0" style="whiteSpace=wrap;strokeWidth=2;" vertex="1" parent="1">
          <mxGeometry x="969" y="1447" width="162" height="33" as="geometry" />
        </mxCell>
        <mxCell id="t6ghwq_tImVH2vB8FOV7-83" value="Is num not equal to 0" style="rhombus;strokeWidth=2;whiteSpace=wrap;" vertex="1" parent="1">
          <mxGeometry x="949" y="1530" width="201" height="201" as="geometry" />
        </mxCell>
        <mxCell id="t6ghwq_tImVH2vB8FOV7-84" value="Extract last digit using num mod 10" style="whiteSpace=wrap;strokeWidth=2;" vertex="1" parent="1">
          <mxGeometry x="693" y="1800" width="269" height="33" as="geometry" />
        </mxCell>
        <mxCell id="t6ghwq_tImVH2vB8FOV7-85" value="Update reverse = reverse times 10 plus last digit" style="whiteSpace=wrap;strokeWidth=2;" vertex="1" parent="1">
          <mxGeometry x="646" y="1883" width="363" height="33" as="geometry" />
        </mxCell>
        <mxCell id="t6ghwq_tImVH2vB8FOV7-86" value="Remove last digit from num using integer division by 10" style="whiteSpace=wrap;strokeWidth=2;" vertex="1" parent="1">
          <mxGeometry x="729" y="2070" width="413" height="33" as="geometry" />
        </mxCell>
        <mxCell id="t6ghwq_tImVH2vB8FOV7-87" value="Loop ends" style="whiteSpace=wrap;strokeWidth=2;" vertex="1" parent="1">
          <mxGeometry x="1269" y="1800" width="87" height="33" as="geometry" />
        </mxCell>
        <mxCell id="t6ghwq_tImVH2vB8FOV7-88" value="Compare original and reverse" style="whiteSpace=wrap;strokeWidth=2;" vertex="1" parent="1">
          <mxGeometry x="1199" y="1883" width="226" height="33" as="geometry" />
        </mxCell>
        <mxCell id="t6ghwq_tImVH2vB8FOV7-89" value="Is original equal to reverse" style="rhombus;strokeWidth=2;whiteSpace=wrap;" vertex="1" parent="1">
          <mxGeometry x="1192" y="1967" width="240" height="240" as="geometry" />
        </mxCell>
        <mxCell id="t6ghwq_tImVH2vB8FOV7-90" value="Print: It is a Palindrome number" style="whiteSpace=wrap;strokeWidth=2;" vertex="1" parent="1">
          <mxGeometry x="1035" y="2275" width="245" height="33" as="geometry" />
        </mxCell>
        <mxCell id="t6ghwq_tImVH2vB8FOV7-91" value="Print: It is not a Palindrome number" style="whiteSpace=wrap;strokeWidth=2;" vertex="1" parent="1">
          <mxGeometry x="1330" y="2275" width="274" height="33" as="geometry" />
        </mxCell>
        <mxCell id="t6ghwq_tImVH2vB8FOV7-109" value="" style="edgeStyle=orthogonalEdgeStyle;rounded=0;orthogonalLoop=1;jettySize=auto;html=1;" edge="1" parent="1" source="t6ghwq_tImVH2vB8FOV7-92" target="t6ghwq_tImVH2vB8FOV7-108">
          <mxGeometry relative="1" as="geometry" />
        </mxCell>
        <mxCell id="t6ghwq_tImVH2vB8FOV7-92" value="End" style="whiteSpace=wrap;strokeWidth=2;" vertex="1" parent="1">
          <mxGeometry x="1292" y="2358" width="41" height="33" as="geometry" />
        </mxCell>
        <mxCell id="t6ghwq_tImVH2vB8FOV7-94" value="" style="curved=1;startArrow=none;endArrow=block;exitX=0.5;exitY=1.02;entryX=0.5;entryY=-0.01;rounded=0;" edge="1" parent="1" source="t6ghwq_tImVH2vB8FOV7-81" target="t6ghwq_tImVH2vB8FOV7-82">
          <mxGeometry relative="1" as="geometry">
            <Array as="points" />
          </mxGeometry>
        </mxCell>
        <mxCell id="t6ghwq_tImVH2vB8FOV7-95" value="" style="curved=1;startArrow=none;endArrow=block;exitX=0.5;exitY=1.01;entryX=0.5;entryY=0;rounded=0;" edge="1" parent="1" source="t6ghwq_tImVH2vB8FOV7-82" target="t6ghwq_tImVH2vB8FOV7-83">
          <mxGeometry relative="1" as="geometry">
            <Array as="points" />
          </mxGeometry>
        </mxCell>
        <mxCell id="t6ghwq_tImVH2vB8FOV7-96" value="Yes" style="curved=1;startArrow=none;endArrow=block;exitX=0;exitY=0.8;entryX=0.5;entryY=-0.01;rounded=0;" edge="1" parent="1" source="t6ghwq_tImVH2vB8FOV7-83" target="t6ghwq_tImVH2vB8FOV7-84">
          <mxGeometry relative="1" as="geometry">
            <Array as="points">
              <mxPoint x="827" y="1766" />
            </Array>
          </mxGeometry>
        </mxCell>
        <mxCell id="t6ghwq_tImVH2vB8FOV7-97" value="" style="curved=1;startArrow=none;endArrow=block;exitX=0.5;exitY=1;entryX=0.5;entryY=0;rounded=0;" edge="1" parent="1" source="t6ghwq_tImVH2vB8FOV7-84" target="t6ghwq_tImVH2vB8FOV7-85">
          <mxGeometry relative="1" as="geometry">
            <Array as="points" />
          </mxGeometry>
        </mxCell>
        <mxCell id="t6ghwq_tImVH2vB8FOV7-98" value="" style="curved=1;startArrow=none;endArrow=block;exitX=0.5;exitY=1.02;entryX=0.47;entryY=-0.01;rounded=0;" edge="1" parent="1" source="t6ghwq_tImVH2vB8FOV7-85" target="t6ghwq_tImVH2vB8FOV7-86">
          <mxGeometry relative="1" as="geometry">
            <Array as="points">
              <mxPoint x="827" y="1942" />
            </Array>
          </mxGeometry>
        </mxCell>
        <mxCell id="t6ghwq_tImVH2vB8FOV7-99" value="" style="curved=1;startArrow=none;endArrow=block;exitX=0.53;exitY=-0.01;entryX=0.5;entryY=1;rounded=0;" edge="1" parent="1" source="t6ghwq_tImVH2vB8FOV7-86" target="t6ghwq_tImVH2vB8FOV7-83">
          <mxGeometry relative="1" as="geometry">
            <Array as="points">
              <mxPoint x="1050" y="1942" />
            </Array>
          </mxGeometry>
        </mxCell>
        <mxCell id="t6ghwq_tImVH2vB8FOV7-100" value="No" style="curved=1;startArrow=none;endArrow=block;exitX=1;exitY=0.76;entryX=0.5;entryY=-0.01;rounded=0;" edge="1" parent="1" source="t6ghwq_tImVH2vB8FOV7-83" target="t6ghwq_tImVH2vB8FOV7-87">
          <mxGeometry relative="1" as="geometry">
            <Array as="points">
              <mxPoint x="1312" y="1766" />
            </Array>
          </mxGeometry>
        </mxCell>
        <mxCell id="t6ghwq_tImVH2vB8FOV7-101" value="" style="curved=1;startArrow=none;endArrow=block;exitX=0.5;exitY=1;entryX=0.5;entryY=0;rounded=0;" edge="1" parent="1" source="t6ghwq_tImVH2vB8FOV7-87" target="t6ghwq_tImVH2vB8FOV7-88">
          <mxGeometry relative="1" as="geometry">
            <Array as="points" />
          </mxGeometry>
        </mxCell>
        <mxCell id="t6ghwq_tImVH2vB8FOV7-102" value="" style="curved=1;startArrow=none;endArrow=block;exitX=0.5;exitY=1.02;entryX=0.5;entryY=0;rounded=0;" edge="1" parent="1" source="t6ghwq_tImVH2vB8FOV7-88" target="t6ghwq_tImVH2vB8FOV7-89">
          <mxGeometry relative="1" as="geometry">
            <Array as="points" />
          </mxGeometry>
        </mxCell>
        <mxCell id="t6ghwq_tImVH2vB8FOV7-103" value="Yes" style="curved=1;startArrow=none;endArrow=block;exitX=0;exitY=1;entryX=0.5;entryY=-0.01;rounded=0;" edge="1" parent="1" source="t6ghwq_tImVH2vB8FOV7-89" target="t6ghwq_tImVH2vB8FOV7-90">
          <mxGeometry relative="1" as="geometry">
            <Array as="points">
              <mxPoint x="1158" y="2241" />
            </Array>
          </mxGeometry>
        </mxCell>
        <mxCell id="t6ghwq_tImVH2vB8FOV7-104" value="No" style="curved=1;startArrow=none;endArrow=block;exitX=1;exitY=1;entryX=0.5;entryY=-0.01;rounded=0;" edge="1" parent="1" source="t6ghwq_tImVH2vB8FOV7-89" target="t6ghwq_tImVH2vB8FOV7-91">
          <mxGeometry relative="1" as="geometry">
            <Array as="points">
              <mxPoint x="1467" y="2241" />
            </Array>
          </mxGeometry>
        </mxCell>
        <mxCell id="t6ghwq_tImVH2vB8FOV7-105" value="" style="curved=1;startArrow=none;endArrow=block;exitX=0.5;exitY=1.01;entryX=-0.01;entryY=0.34;rounded=0;" edge="1" parent="1" source="t6ghwq_tImVH2vB8FOV7-90" target="t6ghwq_tImVH2vB8FOV7-92">
          <mxGeometry relative="1" as="geometry">
            <Array as="points">
              <mxPoint x="1158" y="2333" />
            </Array>
          </mxGeometry>
        </mxCell>
        <mxCell id="t6ghwq_tImVH2vB8FOV7-106" value="" style="curved=1;startArrow=none;endArrow=block;exitX=0.5;exitY=1.01;entryX=1;entryY=0.34;rounded=0;" edge="1" parent="1" source="t6ghwq_tImVH2vB8FOV7-91" target="t6ghwq_tImVH2vB8FOV7-92">
          <mxGeometry relative="1" as="geometry">
            <Array as="points">
              <mxPoint x="1467" y="2333" />
            </Array>
          </mxGeometry>
        </mxCell>
        <mxCell id="t6ghwq_tImVH2vB8FOV7-108" value="&lt;font style=&quot;font-size: 24px;&quot;&gt;End&lt;/font&gt;" style="ellipse;whiteSpace=wrap;html=1;fillColor=#e51400;fontColor=#ffffff;strokeColor=#B20000;" vertex="1" parent="1">
          <mxGeometry x="1220.3799999999999" y="2469" width="184.25" height="83" as="geometry" />
        </mxCell>
        <mxCell id="t6ghwq_tImVH2vB8FOV7-111" style="edgeStyle=orthogonalEdgeStyle;rounded=0;orthogonalLoop=1;jettySize=auto;html=1;" edge="1" parent="1" source="t6ghwq_tImVH2vB8FOV7-110" target="t6ghwq_tImVH2vB8FOV7-1">
          <mxGeometry relative="1" as="geometry" />
        </mxCell>
        <mxCell id="t6ghwq_tImVH2vB8FOV7-110" value="&lt;font style=&quot;font-size: 24px;&quot;&gt;Start&lt;/font&gt;" style="ellipse;whiteSpace=wrap;html=1;fillColor=#008a00;fontColor=#ffffff;strokeColor=#005700;" vertex="1" parent="1">
          <mxGeometry x="222.88" y="-850" width="184.25" height="83" as="geometry" />
        </mxCell>
        <mxCell id="t6ghwq_tImVH2vB8FOV7-112" value="&lt;font style=&quot;font-size: 24px;&quot;&gt;&lt;b&gt;5. Write a function to check the input value is Armstrong and also write the function for Palindrome.&lt;/b&gt;&lt;/font&gt;" style="text;whiteSpace=wrap;html=1;" vertex="1" parent="1">
          <mxGeometry x="210" y="-1000" width="1370" height="40" as="geometry" />
        </mxCell>
        <mxCell id="t6ghwq_tImVH2vB8FOV7-113" value="" style="shape=image;verticalLabelPosition=bottom;labelBackgroundColor=default;verticalAlign=top;aspect=fixed;imageAspect=0;image=data:image/png,iVBORw0KGgoAAAANSUhEUgAABLwAAAHHCAYAAAC1AkGfAAAAAXNSR0IArs4c6QAAAARnQU1BAACxjwv8YQUAAAAJcEhZcwAADsMAAA7DAcdvqGQAAN/CSURBVHhe7P1hiCvpfSf6f+fohfOHqOtP7jB/Mjp1Z5nOkXu1erHZtVFXIoI9oKiDruPBaA9j/v/dEwxitU7ojWwGvxl8750cCOEQixWO6azA7Owbm44wx/EVVq9gdtjbSbXwZJMXWq1GE3nPUF0z5DAbqK68Gf8Rvi+qSqoqlaR6Sqputc73A4KW9Ojpp556qiT99Dy/eu7Jkyc/h4ssy+67REREREREREREt8KdO3dgGAbu+J8gIiIiIiIiIiK6zRjwIiIiIiIiIiKincKAFxERCTGHXbRaLXR7uv8pumbcF+J2uc92edvIwn1MREQUXuL3f//3/w/3A5Ikue8SbS1z2MWP3vlrmFIGd/f8z95uW7Ft5hDdH72Dn96Rsf/8p/zPRhdXvbfNVvSDjl7rP+FiMMDAuZkSMksHnYn/8df/DU8/AT65eg5S5i6Wld4Wpt7Df+ld4K//eratN3p8bcTt3BdTeg+t/3Sxsf0Qbh/fkj6LdH64Jdu2w+J/7+Y+JiIiCuO5557DJ598Ij7Dyxx20eoOYdr39V7Lcz86E8NuC63WpuqLlznsotvqgb+vEdGzJYmUbP0wIsl3kfI/vYXMYRdnqgbD8D+zfcTeW27fvohL+H28y322y9tGFu5jIiIiEcIBryvDAPaSSAIATJhXcN1fg6lDM+yrRBoa9C2PeF0ZBlZ+riYi2mop5MpllMtllMsKwl6jN3lQQLlcRiF3G75umdA1A4CErFK0t9W6bWPzRd9bbte+iIvYPt7lPtvlbSML9zEREVF4ggEvK8AlSc4E6qsQv6aGY+oaDMi4m7sLGQa0bY94ERHRLWC/T8kZHKTW/mmGthL3MRERERHNe+7Jkyc/dz8gy0G/8evotVRo/of9ZAXlSL84mRh2z9DfU1DO7Vl/I4ti4cA3c8xqx1W2iMIBMOxdoK9ZETdJzuIwZ5c3h+ie9bGnlHH3sgtVMwApi2IhBd1+jSQrvl/HTOjDAQZ9bfrruiRnkckcYPr5We+hpS7vBSlbROFg+oJw7Z0yofcuMNBmv/BLkozMYW7WBmfpRh/IFg+R1F1tlmRkD3OY/vvZK6D3Lqx+mCMhWywEvGY5kTZYZQ3Iiu/Xdrs/p30muN9mbSggpfdwsaQNFv8+liDJGRzmUtHGWVSmjuFgMK0TkCBnD5FzNdjdZxlzk9tmC9EGZ3/AM6atZcyqZh3vxUX1LyNar91WbcVxIbLfRMav/Qqx/g1DtB/iaIOHfZ5feB4PeB8IKmtvlyEFncOd7fOfd+LctlXbJXCOijR2QhxvEd9bVu6LqbjeW0TY+1ibX3Y41+/C42H1PhbpM/F+EG1vCELnh5DbFuXYDH3+FSXwuSRMG7Zk24Tfu0O3IeQ+JiIiIgDAnTt3YBiG6AyvmNjLGa2ZY3Z+gmXLGg0dvdaZ68sDYGh9nPmuWHM1sIMmVgEMXF+ADW2Aoat+vXcGdfph1WJofaiDcJlUlgrVXivop7o+9ACAYWhQz7qettrPQLvwtdnQ0D/z536Z1bt5YdsgRmS/AYB20cXZXBvm+2x+HxswNBVni3LGhdpvgswhumeqp07AgNa/mGsvIOFqELRt8/0rtG1CbfAyh93pl63yOl/mfBbXa2J4YbV1/riY7wdAZL+FH79C/buGxf1wfW1YWzIFWbL6cv4cruNSs2fiuDZu49tmDtFt2TkhnS+Jmmrf30SuyPBjZ53jbTPiem8RYc72sbsRC4QaD1u0j0O1dwOWnR9CET42I5x/QxH5XBKyDVuzbRB4746zDURERITwV2ncw91MBpmMBHNwCUkp4zcPM8jId6CPn+IF537ES9KY/+Ov8d+e/gLu/eo/xvOfAj71qf8/9LGGq/+X/+pEJvTBJZ5ePcUVJGSVz+E3Dn8VGVmCOb7ElXPFmp99jJ+On8L45BNI2SK+sP8zDC6f4urqE8hKGcr/W8f4qYFPveBcRUfHf7+4xJWcRfE3fwO/mskgk8lAlu7gZ899Cneft7dr7y4y9nOSOcDllQyl/Js4tB/LZDLR2gvAHP4XqNongJSF8rnfwOGvZpDJyJDMj3F5ZeDpz2ZXTvvZxz/F+Okn+OQTQJIVfO43D/GrGRmSOcbl1RWec18dSP8bvPO3V9ZMqS/Y2+b8f8hQyr+Bl8NeAMpFpA1OWUn2XbXI1DG4vMIvvPArVr8J7jerXgOffPKJtw13PsblUwOfuMeP3sN/+m9X1q/iv3lo72O7f59q+Jnnikrh95sYE8P/okLz9JndjjtX+NneXTjNXbhtAf0rum1h2+DsD9j7x/nlWpIVfGGdX5WF6v0ZPv74Z3jhnyjWPphuW0A/COw3kfEr1r8CRPohrjZ4WP13JckLzuXO+8DsvSC47Kfw/C+YGFw+9R6DAKD/d1xcXkH+J4fx9q/dt5/4H3f7hRfwK/vP41Mi5yjRsRP2eBN+bwm7L2J8bxGh/421jz1tyECWTIwvr7z9HnY8CO5jkT4T6oew7RUlcn4IvW2Cx6bQ+VeA0OeSsG3Yjm0Teu8WakPYfUxERESIfJVG08QVJMxSeBkw3PcjsZPNSvJs+rb9S52h6Qt+HZWhlAuzXB3JFO4GrcSUsjh0TyOQssikgGRyQYM1Dbrrp8Fk6gC5A/8HyyhWtddJuCtDKbiWUCKJVO4QWQmAdjn/a5+9vM8qnkTKrvTKnG2DaV5ZRTOuKf7JFDJZCcAVXEWjCdEGYYL7TcoWvW04yECGd/zo1s+7UDy/iieRyllltcu53g2x3wTZMxm9fQa7zQFLHeAvG9y/QtsWpQ2YLdOQ5pYCr2d1vUkc5HK+vDyzfggmsN823b8RreqH62jDRqXuzh2DcLbDPp49j21625IHKPiT8cuKJ5l5OWDZk5AQYyfq8bY58b23hGdiOLD3sacNCOz/0ONhS/Zx6PauYdX5QYjAsRnt/Lua2OcSgTZswbZNhRg7sbeBiIiIwgW8zGHXWh5w1ocBA/0ze7mAqgHT+0FLI0JwljPK3g+Lyb1FU9MBBFyKOZUro1zOeR731jl/fyaFnCJDgoG+eoZWq4vecBj8v6NY2V4n4e58uWlfzH0IBOS786X9nCCRduleCqJj0DcA7CEZ3CGhhWmDKP9+8t/325vbiD14JyraVxOFBtW93MW9FObKnA+uBuyPoHEW2pW1bEGkz1aXFdy2CG2AdoGzvjH9AL8xYes1dfS69jnIuS3LdySw31b3g2D/RrGyH66hDRtnf3l1n8PNIQaa/3i+jdtmWT12Ih5vGxXfe4swSQoxK3a7xsPqfriG9q48P4gKe2w6zwmef0MQ/lwSug03v22O1WPHFmMbiIiIKGTAK07W1RkBo3/mecO33u+v8WqNqRwK5SKKShayZEDr96GetdCdy/tzy6Qy9q/4fZw5/XtmfxAP/BJEcXF+1b5JkdogO2NogI0eDmHqtfMfaWES/9xWYfrhFkqmrB8RnHO4cyXeTPzTmrZGpONt52zuas7PpBjOD6GPzbjOvyKfSwTbcOPbJmIb2kBERLTjQgW8kgcFlMtlFLMSrOVC1nIBRbaWmxXLZZTL4lf6my23WMw/NT1eSWsZY6GMcrkI64fC+STpM/O/jK8laGnJ9BfkgF89w9AH6Bv+3GwS5Gzxxq/uo1/G9GXQWUa0l5wuJ0juucdqwG3dpS8hOL9qR1sWtIjYtkVrwx4OCooVCFYjzuQMtLpefdCHAUDKKt7tU65ryYdY/0azqh+uow0x8CxNt8/1/i+zW75t656joh1vuB3vLaHZM24NA/7etJYDum33eJh3He1ddX6IINSxGeP5V+BziXAbbnrbBGxDG4iIiHZdqICX48rzK5TzYXkNrvwmcx8SnYDaomWNm2QO0esNoftyK6SsS/7ACNjOPesTPDR9EwE5J8eQBrXnrs+6bHffCPjVMyQnv0jm8BDFotO3BeTEo5ORzS9fMKH3XFdiXJtrD5g6hhfWh0j3koI9SQKMPi56+ma/SIpw8ov0z9Ad+vbzsBf5i4zQtkVuQwq5ggIZRuAVMKMLV+9ecm/6pdHUh+gN/F+U4yPUv5Et74fracOmJXGQkQGjj8FQh2ZIyHqT6ABbsm2xnaMiHG+35b0lPGfppIaBs8GmjmHXmcnttQ3jQcT1tHf5+UFcuGPTsenzb5TPJeHbcLPbFsU2tIGIiGhXhbxKo8XUB7h87n/FP9l/Hp/Cz/DxT8d4urePX416lZiPx/jruSvnzDz3D9ZV+WZX3Fl1FTGb7+pGc1fasu9Prwz1s4/x3/9rH387HmMwGExv46efAJDxTw7nr8j3qU8+xuDyCp88vcTY9Rr9jvvqQCHbC2Dvrn3VnSt3fWNcXn0CSDKU3/jH0zaIXFHM6sOnuByPMR7P2jkYDKDrJn7hhbvYW+MqjWHagL3n7G17am+bs10S8Mknc1dpDLvfnDZcXbr22/gS1m5T8Jv/eNawTz3/Au7oY2hPL+f6YTAYwAy42l+Y/SZmD3clM2DcjHH59Dm88Cv7vqs0hutfsW0L34a5/YE93JXvQB9r0MZmxCtVitVrjV/vPh5fPsWVfWk2b/+E32/x9a8AgX6IrQ16D63/dGHXc2nNwLm6nNbrOZ+JlHXYx7729Ck+ke7hV/+xc8W8mdi2bSrEuAh7jhIcO0LHmy3Ue4vAvojrvUXEnmRd0dl4ah/H9nlakmX8wtUVPuX6f9HGQ4h9LNBnIv0Qrb0hCJwfRLZtKsSxKXb+DU/kc0mkNtzgtomMHaE2RNnHREREz7AIV2n0z+haPy+H8yvfotyeVi4GwAiaYrVJyQMcKrIv0bkESVZQDEh0DVg5v4pzr1lHCrmigqzsneIvyQqKhQVtCCFpX7EQsL67uRmGBvWsF7DUZdNSyBWzmG2aBDmroFiYtS2KZCqDrCx5t0sKXhYBJHFQKEKRJWxsl0WRytl54vxLOQ4jLAl2CG7bOm1IHqCgyNaMke4Gx86CepMHBRSz1nnAYh8TSjbctm6EYP+uY0E/XGsbNmp2hczApNHAlmxbPOcoIMLxdkveW4QkD1BQsrNtkiTIShGFTNBGbsN4EHGN7V14fohi9bEZ1/lX5HNJtDbc3LaJ2IY2EBER7brnnjx58nP3A7K89sd72homht0z9A0ZSjHnuRw8YGLYO0NfA2SljLn4EBHRBui9FlRNhrLoxwMiuhE3c2xez+eSm9k2IiIi2hZ37tyBYRgiM7zo9pnNwvNfGN00r2BosH5RjDBtn4hoOScPFiBlM/zSSbQ1bvLYjPtzyU1uGxEREW0bzvDaac4vqf7HZ6RsEYXAdTVERBHoPbTc2cilLIprX6mOiNa2FcdmTJ9LtmLbiIiIaFtwhtczwZVbxJcQQpJkZJUIHyqJiEJx8kTxSyfRdrnJYzPuzyU3uW1ERES0bTjDi4iIiIiIiIiIdgJneBERERERERER0U5iwIuIiIiIiIiIiHYKA15ERERERERERLRTGPCiG9JBNV9Fx//w1tj29hERERERERHRImsHvIbV1/Bm4jW8Wf2J/6kIPsSw8W2cJOw67dsPGHXYMWM08iU0VQBj/3NbYgxAbaKUYNCLiIiIiIiI6LZZO+C1ScPq13BaO8dT/xPPkHGnh2r+PyJR/Vv/UzujU02jpiqoj05wtO9/dkvsH+FkVIeCJkpVhryIiIiIiIiIbpPtCXiNf4h3mtafL9S/jq9Ovo9v2rcvHfkL76q/R/vhX6Cpfux/Ynd0qig1AaX+Fo63Ndjl2D/GW3UFaJbAmBcRERERERHR7bE9Aa/3NXtm10vIlj6L5/3P0w4Yo/GwCSh1vLX10S7L/vEbqABoPmxs7epLIiIiIiIiIvISDHh9iGH1G54cW6f2rKx58/m4Tqo/xPAaowbT5YGJb01v+XwbDX8bOm3r+XwPY/w9OtXZa/LV3izQYZerdv4ejbxdZ76H8fhvUbXv5+eWIlr15V1tSOTb6Iz/flpi3HD+339ATbUfbP65t92NWfnQ7XWM/xYNXxvy+TY6voKd6ux/jTttV/n/iKr7/zvset3tdN/mZkV1HqGmAsr9EhaFu8aNPBKJPBrjMTqNKvKJBBKJBBL56tx+s8omAv5PFYlEAnnnBeMG8na5TtV6TSLfwBhjNOz7+blKHEd4va4Aag2PFhWxWXXn59tDRERERERERNdKIOD1E/wg8TWcNj8IkWPrQ5zn5/NxPW1+D6fpb2PoPDD+4SwgVjq3H/wAb6ddSevzP0SkBX7jHh6U5pcHqup7qKX/41zwxHryYzyq/geUmrPXqM2/QNoXxGqWXIEp9S+QTv+5lYAdgNr8c1fA429RTVj1OcWtQu+hlFbXT4Yepr3jHvLpP0fN1wZVfQ+l9H8MDM6otf+AdOk9V/mP0az9B1/Zv0XVrjeszuMmAAX3S4vCXQ4Vpw/SKNWaszaoTdTS6yWQ7z/MozTdUad4VH2Amn1fbT4MHhMA9kv3oQBoPl723zt43FQBqJwNRkRERERERHTDQge8htU/Rh+wlhy2vzXNr3W/4i8JfNz4d3hbtcq+4pQdfR1ZAMA5TjdyRcfVspVfR3v0O5hMvmbdRr8OBQDwMU7bATOW8B6aTaDStl4zqtsLK5vvzQVaKu3fmT2P51EffQ1tuy/6I7vuznuwJsA9j0rbbsPkaxiNfhsVZbZoc//4X9nP/Q7qVgOBym/P2j35Gs6Pf2lafmZVe/8ejQd/YQeNPo32yOmH34bV1I/RfBgwIwwAlF+3yztlgebjWSBt3PhLe9tm9Y7an7aftfrjxJN7bYxRH4ByHyvjXQBUFVAqbYwmE0wmI7tvm1gac1pBVVUo9REm7YoVmGqqqLQnGNUVACoG7/tfYdsv4b4CoD8K7isAwBFerSgAFFTeWDyDjYiIiIiIiIjiFzLg9RMMpgnl/y2+dPSiv4DLhxiefgDYZfNO2f3P4jfqL1l/9z+0Zm3tfxFVJzl9O2+//iW8MpolrP/m+Rej5fPaz+HkJIejfVegaP+eFbgAoA6CAl6AUv8dnBxZr9lP/y/2o/8TI3ekQ/l1vG6XAQBUfm1FAnYrsOQsIdzf/xWcnOewiVz8S9s7fh+n9oQmpa7Mroi4/ys4cYJT6ntoz0VxPo32ec4u/yt4NSCo+f7Amtnlrnf/6NPTQNp88Oh9DFQA2XS4YFCljfOTI7vsPo7sRvQ9O0KQP3eYUsfrR8B+2grFLraPdBaAOsDcZrkcnZxjMjnHydZeepKIiIiIiIjo2RAu4DX+cLo08YX0smAXAOh4agdZnta+NluamHgN36lZgTCoWrRlioKs3Fru3FWupYiBnsf9kiuQdVSyZ1j9K29AK/u/eII2SiZo9hWAI2U2Y0v9C5TSszxb/vxZ0axo7/vOMkZfOQC49/x0tttccEp5Hvd8D/ndy1hhSPVUnW7L2DWjLbOqghUqr24iHOjlzx3mv09EREREREREuyFcwOs26rTt3Fq+/FnX6pdwfP47GLV/HRUn8AUrz9ai/Fm3xf7xr1mzudT3poG8dOk960nl06GWLRIRERERERERxWHNgNeH+NhK7OWSwgt2cOeF+izXl/f2ezjwv2yj/h6Nh07wxclF5cuRdW1+CftHOZycW/9/VHfyXH3syYkViyWzuMZtJyl9xNlYzmwuxfkfAPA8lMpvY3SeC5g5dQ+ZlXmwNqPzeG5QrsnJP5ZZOfONiIiIiIiIiG5euIDX/meRtaMa/YfOVROtKzFayendXsTBfStX19Pav8MPOh/6C1yvLHBvHwD+Hp3G/7ViSeNmjRtt5Kt/i/E0wvNL2C+5A0R+v2TlioKdeH7dyJArZ1mz1J7VN/5bPKrZi0ojzcaaBRSV+/8bzqfJ9f8Vzk9+JSDYBVcerNOAnGHROLm3mo+dqyKO0am6rsS4KeO2lQttRf6xTjWPRCJ/q2fuEREREREREe2CcAEvVxAL6vfwncRreDNhBbteUOzHXZ4/LtsBsg/QL3nzeL2ZeA0njbiDYO7A0V8gbefvKjlBnmvzP6E2/xxpe8lfIvEtJNLOVROfR/31X/G/AEevOjPAZksFE4lvId8ITrK/3C/h+I1P2wE2V33pP5/m2qq/FTQba5VZ/6q1/zDbNueWdwXXXKzE8ypONxXxOnrVWlbZrCGdSCCRSFvBLmVxSDGKcfsU6sq8Yh08bqrW1R8fOgE4IiIiIiIiIroJIQNewPPHf4Sv1vN4YfrIS8i2v4XqG7KnnOWz+NL5t3C/8pKr/PU6OvkdtCvu6zs+j0r9tzGqR7rmYyT7x/8b2vVP++Ivz0Op/DraI18ifMdRCaO516zhqITz0W+jonj7YmkbQjh6/dcXz1RT30Mp3cbcRKej11FXALX2aP65SI5wMqq78qMpqNTbGJ2/YV8tchPGaJ+q0ys6LnaEVyuK1YY3mAyfiIiIiIiI6CY99+TJk5+7H5DloAAWkdvfopqwZolV2r+DkyPXFSA7beRLVn6wSvtrOPEHiTpVJEpNKPURzqNG267RuJFHuqai0p7MbwsRERERERERbZU7d+7AMIzwM7yIpsb/E9O08CP3E3+Pzuh/Lk+Gf3SCdgVQaw/Q2PZ1f+MGHtRUoNJmsIuIiIiIiIjoFuEML4pgNsNrEaXy2zg/mc9RZumgmiihiQraoxMcbeNEr3EH1XQJTaWO0fkxlygSERERERER3QKc4UVr+BWcjH4b9cr8FScV5dOot39nSbALVu6tSdvKvbWtkaR9AEoFbQa7iIiIiIiIiG4dzvAiIiIiIiIiIqKdwBleRERERERERES0kxjwIiIiIiIiIiKincKAFxERERERERER7RQGvIiIaCuYwy5arRa6Pd3/FC3APiMiIiIiCsaA19booJpIIOG+VTv+QkS0iDlEt9VCd2j6n3m2bEU/6Oi1Wmi5bysDMiZ0zQAAGNolVpUmbLzPnODZyl0FRNzHRERERETXZ+cDXuNGHvlEFZsOHcVV7+0yxkd/VsU7v5XAj+zbO486+Ad/sZiZwy5a3SGcr/d6r+W5T/PMYRfdVm/tL8hEm5NESpYAAJJ8Fyn/0xSAfUZEREREtMjOB7zeH6hQ/Q9uwObrPcLJZILJZILJpI2K/+kt9NGjNN79btMTWDLfLuE//27jWoNeV4YB7CWRBACYMK/guk9BrgwD1rwQojikkCuXUS6XUS4rkP1PL5A8KKBcLqOQY+gmrJvrs2j7mIiIiIjouux8wIticlHFu28DeLmCzzQn+MKPJ/hCs40XXwbw0xre/bOx/xUxsQJckrRn37+CwUgOERERERER0TPtuSdPnvzc/YAs78DvtJ0qEqWm/1EPpT7C+fG+65ExOtUHeNiczdxSlAreeOsER06xKPWOO2g8eojTZfXO6aCaKKFZaWNycuR/cit89CiBd99W8OnmOdJ3XU9cNvBOpQbz5To+/yfH+EXXU5ulo9dSofkf9pMVlCPNfDChDwcY9LXpTChJziKTOUDKNXXMHHZx1jcgK2V4/o3eQ0vVIGWLKBwkrbxKZ33sKWXcvexC1QxAyqJYSEHvXaCvGZBkZY1ZGiHaa7dpmWl7p0zovQsMtNmMMEmSkTnMefrB2R9X2SIKB8DQ3ibY7TjMHfhm3PnbK0GSMzjMpaLPzLP7GL5t0HstqJo1Foru+k0dw8EA2ga3zRoPQLZ4iKTu2j5JRvYwB0/XWq+4+X6Iow0e9rG68FgMOJaDytrbZUhZFAv+8eRsn4RsseDq5w1vW5Q2xDDOQveZI2QbZuO3gJTew8XK8etYtY+x+X1BRERERLTAnTt3YBgGZ3hZxmjk0yi5glIAoKpNlNJ5NCJPVhqj8aCEWmC9tzn/Vwcfvg3g5ft40RPs6mD0vVNrieNPB7c6h5beO4PqCh4BgKH1oQ7Wy3p1NbCDXQBgaBi4vtQa2gBR84zH014Tw+4ZVNeXZAAwDA3qWTe4rYaOXutsuk2w23HmS2Y9314DhqbibMO518xhdxrkKfuCPMMLFf3AbVuQ2yzktgEGtAvf9hka+gH13nw/XF8b1pZMQZasvtTnGqbjUgMgZzxBmY1vW5g2SLIriBTnOAtLvA3aRRdnc+N3wTEf0sb3BRERERHRCrsZ8Do6sXNhTdCuAEAF7Wl+LOvmnoU1bjxATQWg1NEeOWVGaFcUACpqj+zQlGC9AIBsBfX2yFVmZL+2icfXEPHqVH1XfvTf8g0Ix/MuR9YXlH+UtmdwjfHRozx+VCnhvbed0F4f5qX7RZvm5I+xcsfIip1LppiF5L6/cLbBMs6X5yyK0xw1ZRSVrPVldw2GYUDKFlFWZCswolmzw4pZyfoCeOV/RRgh25vKTZ9TZACQobjKl8tlz4wgc3iBvgFAykIpOmWKUKxv/OgHBNMMrQ8NErJK0d4fdm4f9xXk9N5sptH0f9v1Gn0EVBuJM/tOWjTrZE+etXPaBgDQcBnQhlDb5pQ1AGm6fQvq3YZ+uKY2LBc2F1QSBxn7uPFHm/RLaADku67ti2XbQrQh45v5Fcs4C9tnNqE2GNZ5yj1+7fPT3DaHFcu+ICIiIiJabjcDXkLGaJ+qVvDq/Ni1zHAfRydvoa4AaD6OOBtrH8cnJzj2rF3cx9GrtyEl/WpJwL5KYxrvvq0CUPDiV9r4zFcUf9H4mCauIGGWwsuA4b6/Dk2D7vqCl0wdIHcQEDgRIWVx6J6CImWRSQHJ5AYavNH2mtA1wwqKFdzLOJNI5Q6RlfxfwB0ylHIBB84Lkinc9X0b163oHBTPTKMkUrkMZADa/DdwYe4gT/Ay0SQOcrlZO+3HUv7Geqzetin7/1olZ/VembP9sw39cB1t2KjUXcgADE33zArSL7XpseR5LI5tW9YGyHDH3GIfZ6GIt0HKFr3j98DqM/82hxXbviAiIiIiWoIBL7yPgQqg8irms2XtI50FgD5GwtOgbOMOqvm8d1bVijxgm3R04p2BNnc7P8bCVGIrmG+XpldpTL7Sxud/fI5//i+OgCebvX5lEHPYRavVQuusDwMG+mct676qWbOPzlpotaIuwUkhp8iQYKCvnqHV6qI3HAYsYRInyd7lZP770cTRXjv5v3wX82GSJKz43BVc8RtLQPlUroxyOWc/bl9FExrUlr3Ppjc7J9GVGelL9ZR2gbO+MQ06LWTq6HXtceTcluU4W7ltM56ZRoG2oR+uoQ0bl0ImK3mXFJpDDDT/sRTnttkBKM+yRmeW5fwYiXOchSbYhr2k/6y0Byny7NY49wURERER0WIMeMVp3EA+XUJTjT8AdK3upqdfLJOv1PGZ5gSfe/1ourzRfAIAWSTd+b1um1QOhXLRXhZoQOv3oZ610I2cRydmt629cZIz9gy0ARZuvjlE90yFtsuX9AzTD7dQMmUFd53ldaauwYCMzOKM6huXymQ9bbCWM0rIuqeYYUvG2Ta0gYiIiIjoBjwjAa8QM7QCly2OMeoDQBbpwGlQy+vtPKrBSg3Wxsg9q8pK4nUtYsnhhXtIvgxrCeOXj/HLnsT1bXz4UwAvZzYwc2mx5EEB5bKT+2qWi0qRrWWCVp4Y99XaokhaywILVr4Za2JJuMTy+mWkZFxrEm1vwAwtv8Bli86MjT3MTQRZyZ4dNt1HAbeAq9+J2cNBQbECf2rwLD990IeVnsydU6hs51a7DtvQD9fRhhjYieOt5XX20tu5WVExb5unDc6SSneyesvNj7MNtcHUoRkA9pIR+izmfUFEREREtMDOB7zuZazE86ftzoLAzhGslFpNlKruMmN0qnYy+4Dljqvrncmm702XDY47DVQfXt+Sxnjs48XPWdv/3h9W8ZGTnP6yg7/6wxpMAC/+y2N7xle8rjyzFpxAzJrMIXq9IXRPNCiJlJ2s3Z1Y3sm9pV06VxozofdcV2K8DgLtdexJThLqRTl5nLxBGtSeu4wJvWcns58LMoSzJ1mJqi96+uqAW2Qp5AoKZBhLry63l9ybftE29SF6g8XLvDZtG/rhetqwaXbieKOPwVCHZgTMrIp92+zjy9Cgm9ZyxmXLk29ynDnE2uDqMFPH8MIKmq1eqhss3n1BRERERBTsuSdPnvzc/YAsC/zqext0qoE5s5T6yHVFxQ6qiRLmSwFQKmifn8wFvMLUO27kka4tXs5YaU9w4lS8oD6Ht73bYIzR76bx3k/9jwN4pY0vvD7XY7HQey2oV1kUCwdIwsSwe4b+XsDV6ESYQ3TPrC9482Qonlw6OnpOHho3SQLsKzIWDpLTOuHc13toqdrsefu+rJQh3HSh9trs/+c3bQ+weNsAQJKhFAL6IehKgHPs/RTc4Gh9gFk/TPvY9Zjh6wcnmfsi3jaE3zan3rlt8O9vq/SN90NsbVgwvhyefhApO+Uam5Jz/PvFtG1TVhsgy9A0BB5ncY0zkT4TacPSsv52CbQh/n1BRERERDRz584dGIax+zO8cHSCUbsCZemFA49wMmqjXnEXUqBU2hgFBbsQrt7943OM6hXMith1tuuux26rfaT/ZITPvOLtsxe/0sbnrynYNT+jy060vq7kAQ4V2ZekWYIkKyjOfalNIVfMQp6WlSBnFRQL1tXHroVQe22pHIpzr/FLIVdUkJ1t3KxeT7BLVBIHhSIUWcLSf78JyQMUFNmaqdbtTZdnJg8KKGZl1/+3t0vJxt+mqZvvh2ttw0bNrly4eGZV3NtmtUHTtIWzHbdhnIm0IZnKICtL3vOCJEHOFlcH4ZaKe18QEREREc3b/RleRES0c/ReC6rmn7FGRERERETPumdnhhcREe0QJ08eIGUzDHYREREREVEgzvAiIqLt588ZtTB3FxERERERPcs4w4uIiG4hJ48cg11ERERERLQYZ3gREREREREREdFO4AwvIiIiIiIiIiLaSQx4ERERERERERHRTmHAi4iIiIiIiIiIdgoDXkRbzhx20Wq10O3p/qfWEle9RETPIp5T6Tbj+CUiol3EgBfRVjOhawYAwNAusbmPoXHVG4aOXquFlvu2Ix+wnS8Mt2ZzzCG6rRa6Q9P/zHa6be2lZ8hmz6li55LdPadSBJHOk5sdv0RERNti5wNe40Ye+UQVHf8T9Ewyh120ukM4HwP1Xstzf/skkZIlAIAk30XK/3RkcdVLdHuZwy66rR6/7FEEPKfeRjzmHRy/RES0m3Y+4PX+QIXqf5CeWVeGAewlkQQAmDCv4Lq/nZIHBZTLZRRym/0IGle9q6WQK5dRLpdRLiuQ/U8T3ZArw4A1x4FIHM+ptw+P+ZmbG79ERETx2fmAF9GMFeCSpD37/hUMftIlIiIiIiIi2jnPPXny5OfuB2R5B34b7FSRKDX9j3oo9RHOj/ddj4zRaTzCw1rTnhGmQKm8gbdOjjAtNW4gn64h257g1cd5lJoqoNQxOi+hXX2AWlOFUmnj/OTILp5HugbUR+cotat44NStVFB/6wSef78FZu19C+m2qy8C2muVVVFpT2BvrsXu+2n/CvZZPHT0Wio0/8N+soJypF82Tei9Cwy02S/FkiQjc5hDyjN1zGrHVbaIwgEw7F2gb+fMkOQsDnMHrplmAW1e2j6rDapdn5eEbLGAgySE6jWHXZz1gWzxEEl9gEFfs7ZPkpE9zNn1uV+gYzgYQFvZD252exa0QYRIe62yBmSlDM+/1XtoqRqkbBGFg6SVC+Wsjz2ljLuXXat/pSyKhRR0e/9JsjL9RXzWhgJSeg8XS9pgMaEPXW2FBEnO4DCX8s06FBk7Auztg7O9Nr3XgqpZY6PoaUvYsS4qZD8ItzcEe58vMx0PUyHaex1jJ9S+EBw7oY/jkPXa/WBIWRQL8+PU2nfuc1RIUerd9La5yoY5pwLh2yA+Hhxhzqkhxq8IwbFuv2izbZjy12vts0zmYNa/UY/5OI63ufZuoB+EzpMhx2+sxxsREdHm3blzB4ZhcIaXo1NNozQNdgGACrVZQjrfwNhTEug/tAM3AKCe4pEduAEAtfkQDd8LTh8kkHbXrTZRS+fnym0HFacPfH2hNlFLr5cHTbTPbg8Tw+4ZVNcHOgAwDA3qWReBOWMNHb3W2fRDMAAYWh9nkZMMz9qweQa0izOori8PMDT0z/w5T0wML1T0A/vBXzZOYdsr5mpgf4mDVd/A9SXG0AZz+1m76OJsrg3z40Hv+doKA4am4mxRXrmNj5155rA7/VJU9gW7hMd6SML94LK4vfERaa/42GmFGDsR9kWosRPhOF5VbzIFWbK2Q59rl45LDYCcWRLAWSBMvZLs+mIdw7YJE29D2HOJCJHxK0JkrMfVhvl6rX2mDoJ6N6y4jreg9m6mH/zWPk+GOd48x7H4WCciIorDbga8jk4wmUwwmUzQrgBABW37vnPzzO7qVFFqAqi0MZqWGaFdUQC1hke+SI+qqlDqI0zaFQAqmk1rptOorgBQMXjfUxqqCijTukdo2+VO29GiPJ1qAonEkltAkE7EXHsrANDE4zUiXmJ9tmlOfhMrt4ms2LlOillI7vv+XzRDMIcX6BsApCyUopNDpQjF+mSIfsCHbEPrQ4OErFK022HnXPFcGUkgJ4s+mLah6LzGqRMylLJ75oRAvTbDACRZsesuQrEai0v/pu3Js21aVTZGodsrwDAMSNkiyooMwICmWbPDillrPxtXntJWeXcb7HKa+5uC3pv92u7pMwkw+ggYOiHHTnTOzDcp4Bf+KGM9lAj94FjW3tBSuemYtcaKDGXaDuvmmekh2F7xseMbvwFjJ8q+CD12BI/j1fUmcZCxt93/TVm/hAZAvhtl34WoN+ObibLxbYP4OVWoDSHPJSIEx6+I0GM9tjY4gRfXe2G5jKKStYI1DsFjPrbjLbZ+8Fp+ngw7fkMcb/7jWGisExERxWM3A16COo+bVlDMvXwR+zg6eQMVAE1/pEep4y13wEyp4/UjYD+ddZeaUuojnE/r3sfRsVWvetpeKzAVG3uJ4bS9r1YAAP3RGq0V7LNYmCauIGGWwsuA4b4vzLmMtwyl4FougSRSuUNkJf8XI4cdhHJekEzh7uJPmSuZpvUtwvPlLplCJisBuIIZ8XvRlL0Uxao7iZTd2CtPxUkc5HKzbbIfc8peq1DtFSRlcegOekhZZFJAMhk8eKRs0duGgwxkAIamz64Qan0zg+L5tT2JVM4qqwV+I9js2HFzfymaT1ocdayvFq0fVrU3PsLt3fjYibovwoydKMdxiHpTd+fGP5y+tPsjkmX1Qob3+3dM2yZEvA2rx4MY4fErIuRYj7UNAKBp0F1BmWTqALmDqIMsvuMt9n7Y9Hly2fE2dxyLj3UiIqI4MOCFMUZ9AGii5J8plSihCQD9kScwpdwvuQJj8/f9smn/s/eQUXwPCTg68c5Wm7udHy9tzyqVVzefT8vfR/77cTKHXbRaLbTO+jBgoH/Wsu6rmvXr7FkLrdaCZQlL2UnvAy/hnYT1GT8g4BRQPpUro1zOzT0ehvNlQrt0LYEwdQz6BoA9JN2fNyOY+9V2EVNHr2v3tXNbkSclDqHbK0CSvUtA/Pf99uY6fQ+Se4aBc4VQaFDd/dVqoeXkU7ky57/QbnjsTGkXOOsb02DhvIhjfaWI/bCyvXERb69/rPjv+60eOxH3RUD5wLEjehyHqtcOwLuXQ5lDDLTV/bGcHUTwLLNyZvnMtyuebRMk2IbV40GE+PgV4d+X/vuWONuQQk6RIcFAXz1Dq9VFbzgMWIInIq7jLc5+sG38PCl4HAuOdSIiojgw4EV026Uy9q/MfZw5HyrP7A/MAR+6Y2EO0T1TofGyl7eT7IyhASKnJ7pOt629t0WMx3EyZQUinOVQpq7BgIyMcPIur1Qm66nXWl4lIeufNhbjtoW2DW3YdakcCuWivYzRgNbvQz1rofssnihiOE+GPo451omIaEs8IwGvPhavxttHOmstsZvl79rsjKk54zZOVQDZdKR6487htY7O477/oRuXPChYeTyyEqxlBlY+CUW2llxYuTMErxDmFricwfn1dv0ZVivZObwkz8/+EuRsMSBfRzz0QR9WihN3LpKyncvl9tAvPQmVNsfUoRkA9pLTpUnJPff4C7gFXAkrPns4KCjWF0R1yWzHjY/1qP0Qsr2RBMzWmIra3jXMjR3bxvdFzMexnfTaWg5lLxPbREDeU6+zvMqdrN4S67aFtJE2LBoPodzA+J1zHW1IWssYC2WUy0VYk5LmLxAxs+yYt238eLuOfojhPBnyON7IWCciItqAnQ943cs4CeI7C4NA9zJWcvoH1Q7GiwqtxVXpuIPqgxrUmJYOXhcn91bzsRNcG6NTdV2JcQtdeX5pdD6orsPJyaFB7blzWliXL+8vXAaxWU4ekMzhIYrThLoF5CJH8KLbS+5NP6Cb+hC9wXYuX5hfBmpC77muMLY21zcLU8fwwvrw715uuSdZiYkvevrqL1vXIoVcQYEMI+AqcPGN9ej9sKy90exJVhJqTV+cHyl6e8Pyjp3e3NiJb1844jmO7aTXRh+DoQ7NCJiFFUkSKesbOHTTWs4YuLzKFs+2iRFrw+pziYj4x+9qsbXBHKLXG0L35ZdM2cnlvReIsKw+5uM73mLrB49NnyfFjmOxsU5ERLR5zz158uTn7gdkecd+felUkSg1/Y9aieSnSdTHaOTTqC2I1VTaE5wcARg3kE/XAOe1dt3Tuuz7TvlxI4/04koxOdmugJfT3un2OvzbaT2IqpPjzE1RAPuKjOfH+8J9Fie914J6lUWxcICkfZnx/l7QVYtE6Og5+Tb8JBlKwZ3rxS4beKUkH723NNeFlC1OryLlJKUNIkkyMoe52WyHCPXKShme5tp1BJVdxFOHQBtEiLR34X6TJMC+0ljhIGkvy+gDzn1/XfZ9538u7Ye5/W6PwYXF3dshMHZE+LfP9ZgBGYonV9GCPkPQWBch0A9C7Y1gwdj0jp2Q7fW3daNjR2RfhB87S9vg3xcC9c642i055+JNsOqFLEPTEDgOYtu2BWPGEfU8ubSsv10CbQg9fkUIjvVY2gD3uSDIgvPDgr4L9X6B9Y63uPsh1HlywfY7gt+PVx/HS8fvOttGREQU0p07d2AYxu7P8MLRCUbtCpSlSeL3cXw+QruiYGmxTVAUVOptjOKO7sTuCCejOirTDrO369y6AuX28c/oshPRri2FXFFB1nPNc8m6jHzkAICYpH3VLtjxGjfD0KCe9QKWYmxW8qCAYlbG7N/bfaBkXY9tkxRyRfel6iXIWQXFwqwvo0imMsjKknc/SIuWlyZxULAuQb9VfZQ8QEGRrRkNXffYiWusr9kPC9sbQSqHoiLPHUdea7ZXhGSPy7mxE8++iP84nl2pbtksLHFWvZqmLZxtE/+2rSbSBrFziYhrHL8LxdSG5AEO545fu4+Dgl0Ie8zHc7zF1g9BNnmeDHEci4x1IiKiOO3+DK8btHDGFNHGOL8Qy1CKrplcznO9M/Q1/ppKtO0WzlDcMXqvBVVbMNuGiG4FHsdERLTtnp0ZXkQ7bTZTzX8Bc9O8gmGtOYBkpawiIrohTp48QMpm+CWZ6FbicUxERLcLZ3jFiDO8KH7Lc4AAi3JwENE22dkZXv4cQQty/hDRFuNxTEREtwxneBHtBFcOEF9iDEmSkVUY7CKibeDkPOKXZKLbi8cxERHdLpzhRUREREREREREO4EzvIiIiIiIiIiIaCcx4EVERERERERERDuFAS8iIiIiIiIiItopDHjRjumgmq+i4394a9229i4jsi0iZYmIiIiIiIjEMOBFEf0EP0i8hjfdt+pP/IWu2RiNfAlNFcDY/9w2um3tXWEMQG2ilAgRyBIpS0RERERERCRoxwNeY3SqeeQTCSTsW77aQMcfXOhUp8/Pbnnkqx1fHKKD6ly5BPL5KhpzlS4u79yq7m/6odtAi3SqadRUBfXRCY72/c+K+7jxDZwkvo2h/4kNCdPecSOP/G0JCu0f4WRUh4ImSp7BHUCkLBEREREREZGgHQ54jdHIp1FqqlBdj6rNGkrpMAEEFWqzhHS+sTLgpKpN1EppJEKUFRO+Ddfvs/jS5Pv45uT7+Obk68j6n75unSpKTUCpv4XjBcEjUR8PPsBT/4ObErK97w+843fr7R/jrboCNEvegG4QkbJEREREREREAnY24DVuPEBNBaDU0R5NMJlMMJmM0K4AWDCrpNJ2yk0watehAIB6irY/2qTUMbLLTSYjjNoVu2wNDxr+wgAq7Wm97tvJkb+gQBvIZYzGwyag1PHWsujR1rht7RWzf/wGKgCaD1cHakXKEhEREREREYW1owGvDh7VVAAVtM+PXcvF9nF0MkJdAdB8vHSW1/6RPfsEKgbv+59128f+0QnOR1ZwSq09WlqviPBtuA0+xLDxbZxMc359AyfVn+BjX6mPG9/Am4lv4HzsK5//Ns4XRUQ6j1BTAeV+CcvDR/42vIaT6g8xdNfb+fb0udMmAJzj1Jer7KTxoesFVi4z67EPcV79hqdu//YBIdrrWt5aasIK0PqX0c4FVsfoNKqu5bsBy2HHDeTtpbSdat4ql29gjDEa9v28KxA8buSRSOTRGANjd935Kub+vccRXq8rgFrDo5UHg0hZIiIiIiIionB2M+DVeYwmAKX+OuYnUe2jdF8B0MTjTX7B3i/hvgIAfYyWBgOeTcPq13BaO3ctEfwAT5t/jO/kg4JCH6D/wFdePcfb6eB8Wp3HTQAK7pcCw0dT820Anja/h9NHG0i2P/gJfpD4Gt5ufjB96Gnze/hOQCL/sO0V0ammUao1XcsfFy+H7T/Mo9S0S6qneFR9gJp9X20+nAtmnT5IIO2uW22ilrYCYYvsl+7DiiuvPshEyhIRERERERGFsZsBL1s2HRxQ2E+vzjg17lTxwJ4l9up81CzAPqxqA2ZjNUsBCelX5xETb8O8TtX/f323gIDIxnW+bc2WqnwdX53m/foW7ldeAtTv4b8EdMRTFXhhWv5buF8BgHMM5sqOMeoDUO5jefzoJxg0AVS+7GrD9/HV9peRzbiKHf3e9Dnrf+Zx31X+m5Pvo3r8ousFlqfN76GPl/BK+1tWuZGd16zZ8wXpQrT36GS6rNVagltB27cc9ty9FNLOB4ZK27PUtl0JnjmlqiqU+giTdgWAimZTRaU9wShwNqEKVQWUad0jtO1yp8vW2ToB4P5o9fgSKUtEREREREQUwk4GvMajvv+hQH3fVKxmaRYISpeaUKGg0j4JmCUW7F5G8T8kbN02bKPh43MrcHTyWTw/ffRFHJyUkQXQfzw/CwqVr6M6Lf8iDl7NAwCejtzLCQHgfQxUANl08PJAv+ZfYtiZ1fH80RfxpePPeopEk8f9yR8hf2QHw/Y/i0zFXwbi7Q3BmjFWQfvkyFXnPo5O7PxY/plT/txhSh2vHy0OBCv1Ec6nde/jyM67pZ62lwSo7ACwOoA//jtPpCwRERERERHRajsZ8Fr0xd1v0QwwSwX10XlgYvlF3h8suJ5eYNL6MEEs8Tb4HZ34/6/vdn68scBLsA/xcR+BubDeTPwx+gDQ/3BuWWP21U0Eodw+iy+183gBH+Dt0tfwZuIb+EHDl79rHZUcDnwPHZx8H9+c/N7c45tlzxgLyPOVSJTQxPzMKX/uMP99v/nj5B42ENslIiIiIiIiis1OBrwc/hlcjkUzwJwrJFpXR2yill697HDGCTwoyNzzPxfeem2gpY5+D9XJt6xljMoH6Ne+h9P0azgJyLNFRERERERERLfXbga87mWsKyYGLrmaXcFxUV6s2dURm3i4LDO3m33lvaW5mQREakOAm8/h9SKezwJQvLmzPLfzL7qWOoqyZxuFzv/0orWM8dzKDfaKAjxtthZfARIaPl74XBSi7cWKCyHYywGVuit/V8yz+MZtnK5clunkKstgdfxXpCwRERERERHRarsZ8No/xhsVAGoN6WpnFlgYd9DIW8u8gq/gOLPv5CmqPVh6NTpgjE6jinypCQCovLG54EL4Nmy35zNWcvpW9ScbDh7Blf/pFMtyqGP8Q/yg+kMMx+4cYC/i4P5L1hUjA5JHPZ+xnuu3fzK35DK6kO21WXnhVJy2XePY517GSk7/oNrBeFGhtbgqHXdQfVCDCqCyKGKMsEExm0hZIiIiIiIiohB2M+AF4Oj1OhRYV0hMO7OZ0iV7FpYvaXegI5zYV7GrzV3mrjarM5FGqdaEVe0oON9W4FUaE6iuXKu4pA0hxZbDq/Pt+VxczT+ePnbScCWGP/639kyqP8Z30v48Xq/hB9E2beroVauPll410L6S4mn6a57//Z3aBwDyyATst+fTMgDgae2P8R3Xa9zbFkXY9sKVj06tucZxIoG8KwK6f/wW6gqgNktIp6OMs+WapfSsvnQJTdXKSxc41m3j9unqoJhNpCwRERERERFRGDsb8ML+Mc5HbdQr7uzaCir1NkZhgzxHr8NaVfhwyQwrBUqljvZogvOVQbQIQrVh272I/Pm3cL/yEl7wP7UJdh+ptUeL853tfxHldh4veJKtv4QXKl/HVxcllj/6PXx17jUbEKa9jqMTjNoVKEvbsI/j8xHaFcUK8sZJsY+hZdEujNE+VadXf1xOpCwRERERERFROM89efLk5+4HZNma1UJ0q3SqSJSaUOqjeAKPm3YL2jtu5JGuqai0J0tnc/mJvE6kLBEREREREdEqd+7cgWEYOzzDi54tRydoV25RvrPb1t6wxg08qKkrlzwCgmWJiIiIiIiIBDDgRTvj6KSNClTU0lV0bkEQ6ba1d6VxB9V0DapSX7HkUbAsERERERERkSAGvGiHHOFk0kZFAcIlabtpt629K+wDUCpoh8mRJ1KWiIiIiIiISBBzeBERERERERER0U5gDi8iIiIiIiIiItpJDHgREREREREREdFOYcCLiIiIiIiIiIh2CgNeRERERERERES0UxjwIiIiIiIiIiKincKAFxERERERERER7RQGvIiIiIiIiIiIaKcw4EVERERERERERDuFAS8iIiIiIiIiItopDHgREREREREREdFOYcCLiIiIiIiIiIh2CgNeRERERERERES0UxjwIiIiIiIiIiKincKAFxERERERERER7RQGvIiIiIiIiIiIaKcw4EVERERERERERDuFAS8iIiIiIiIiItopDHgREREREREREdFOYcCLiIiIiIiIiIh2CgNeRERERERERES0UxjwIiIiIiIiIiKincKAFxERERERERER7RQGvIiIiIiIiIiIaKcw4EVERERERERERDuFAS8iIiIiIiIiItopDHgREREREREREdFOYcCLiEIyMey20Gp1MTT9zxER3Rxz2EWr1UK3p/ufIiIiIqJn1HNPnjz5ufsBWZbdd58Jw+prOG0CUL6Mr55/Ec/7CywwbHwDp7UP8ELlyyifBLxu/EOcpL+Hp54H87g/+T0ceB4jugXMIbpnfRgApGwRhYOkv0Qo5rCLs74BWSkjl/I/u4Xs7cYa27ytbt2+2GHXvi/0Hlqqdi3/L/5tMzHsnqFvAIAMpZzDev9GR6+lQnM/JCsox9P4rRXffmP/EhERUbzu3LkDwzA4wyu6n2BQ+wAA8LT5lxiO/c9vl3Ejj3yiio7/CVpgjI/+rIp3fiuBH9m3dx518A/+YlvEHHbR6g7hTL7Sey3P/bUlU5AlAJAgp7Y38GMOu+i2euA8j11lQh/20G210LJv3Z6+uXFOt1ASKevkBEm+u2awi4iIiIh2BQNekX0WmfpLAIAXKr+Gg33/8wD2v4jq5Pv45uT7+Kpd9qa8P1Ch+h+khT56lMa73216vkSbb5fwn3+3sbVBryvDAPaSsEJRJswruO5vQhIHhTLK5QK2eaLTlWHA8D9IO0PvnUHta559bGgqzjYZ3KVbJ3lQQLlcRmEjs4RSyJXLKJfLKJcVPHvz3uPG/iUiIqLrwYDXGg6O/wjfnHwf1aDljHQ9OlXkqx1sdILdRRXvvg3g5Qo+05zgCz+e4AvNNl58GcBPa3j3zzb63zbECnBJ0p59/woGoz60a/QeVA2AJEMp2l+Yi4o189Do44LJ5YiIiIiIyLaDObw+xHn+a3hbBbLt7+NLR/7nAXS+jTdL59OcXR87ObwqX8dXX/0QrYffw1MVAF5Ctv5v8aXjF+df67E6L9fHjW/gO7UPVpT9EMPGD/BO7Xya9+uFypfxude/GDyDbJVOFYlS0/+oh1If4fzYXfkYncYjPKw17RlhCpTKG3jr5AjTUuMG8ukasu0JXn2cR6mpAkodo/MS2tUHqDVVKJU2zk+szh838kjXgProHKV2FQ+cupUK6m+dwPPvBVl1O///eNbGNXz0KIF331bw6eY50nddT1w28E6lBvPlOj7/J8f4RddTANCp5lFqApX2OexNvwYBuVCCRMmPYuf4CRKY08XUMRwMoGmzGVaSJCNzmIN7BaSVFwbIFgtI6T1cOLN1JBnZw1y02WNL2uqYyzsWsr2LcnjpvZYVfJEVFHMp4Zl0s344RFIfYLCkHxbm0rG3e7ptdlv3lDLuXnahagYgZVEspKD3LtDXDEiyMp0FI74vTOhDV1shQZIzOJzbfmtcXmWLKBwAQ/t/A4AkZ3GYOxDuL0z7XEK26Jtl6OSXk7IoFqLVPb9tVlszmQPveAACyi7qh/CE90XY8QvM2qtpc4HwuTElVG847vGbMTe5bQHnvyjnuqXs/7G0XhN67wKDle1F6LLC40GU3cfOcQlIkLOHyLkqjm+/uYXs39DHm9W/6nS73HznjkjtJSIiotvgmcjh9XT0of8hr+yL3plZzT/Gd0pOsAsAPkC/9jX84FoSX1mBulNXsAsAnja/h9P0tzF0PRanTjWN0jTYBQAq1GYJ6XxjbhZV/6Ed7AIA9RSP7GAXAKjNh2j4XnD6IIG0u261iVo6P1dOxP7xOSbtChS1hnRivbosHXz4NoCX7+NFT7Crg9H3Tq0lUz8dBCyd6uBxUwWgovlwvq92n4nhhYq+64sDABiGBvUsOJ+WdtHFmXtpmqGhf3ZdV4AUb6+bOexOg13lwC9dYRnQLnxL9AwN/RBtWOZqYAe7YNU3cAWcDG0w18dh98X8ckJj+XJCQ0evdeb6Ug0YWh9nka6kp+PSnt3lDUjqGA7sNhkGrlxPiZjfNqut6mC+rfNlV/SDgHD7QmT8mrP2BsUAPETqFSXhahC0bf5642xDHKyE+WpgewP2W+iyFu2iFdBnwWVDM4fonll9PGNA618E1Hvz+y388Tbr39Xiay8RERFtjx0MeL2I57P+x7w+Hlm/B7+QCfg1Ufky7o++j29Ovg6nmv7jn8yeP/o9fDOGvFwfN/4d3rZnlb3S/pb1P0ZOG85xWnW1IayjE0wmE0wmE7QrAFBB277v3DyzuzpVlJoAKm2MpmVGaFcUQK3hkS/wp6oqlPoIk3bFCvQ0VVTaE4zqCgAVg/c9paGqgDKte4S2Xe60vWZ46OgE56M2KlBRS+dR7axR3+XI+gD9j9L2DK4xPnqUx48qJbxn7SAAfZiX7hcBwBFerSgAFFTeKG1kplk4Ti4UKw+KrDjLvLKQ3PcX/nK+RCpn51iZ3YpZKzF0oD0ZWaXoKl+EIgOAhsu5bw8GDMOabVR0ymYl60uXPveNazVXW63/KUPxtX3uCotC7Z1xZj1IS2ckhGcY8PZDiDasYhgGpGwRZUW2+lSzZmlY+8+A4YkKhdwXznLCaTmnvRJg9BEQF4Kh9aFBmvVz0c7Xo12Kf6E0TSuY5cpTp/e6aHm+uF/BjDB8psE0OevatjKKSta+UIO7qHg/hBdyX0Bg/OoDexlodrYMtFxG0So8L2y9wgK2bVG9odtw87mgzOGFdXVIT//a4wEG+q4BIVLWYsyfHxaNh9BMDC/sq+36x3DWWRLvFsd+EyByvOmDaf9OyzrnHMhQ/Pkn42gvERERbZUdDHgBz2esQNRT+5PQx41v4M3EazhpWDO+Ph5YV1d8Ie1aqghYyw3PneWDn0Wm4ns6Nh9ieGq3qf5vkT+y27X/WfyGE1Trf4iPXa+IQ+dx0wqKuZcvYh9HJ2+gAqD52BfxUup4yx0wU+p4/QjYTwdHHJX6COfTuvdxdGzVq562158RtX+Ek8kIdUVFs5RGfs2pXknAvkpjGu++rQJQ8OJX2vjMVxR/0amjk3NMJuc4Obq+cNeUaeIKEmYpvAwY7vuxS+Igl8OBZ+pNEqm7i7+CStkiCtPZUUmkDjKQARjadVxxT7y98AW7NpMc2/oi5+kHuw1X0SI3FimLQ/c3OymLTApIJoMHRJh9oVsRISieGW1JpHJWWS3wG6L9JdPp52QKK7p4JQmwr9LozOSQIGcVOxCwJk2D7gokJFMHyB1493O0fggvzL4IP35NDAd2ewvepZm+8K8tbL0RhRrrMbdho0zomhHQv0mkcofISu7grkjZmXDjQYCpw2qGe1/ArjtgmSL8Za93v4kcb6ZpRfLljGtZczKFTFYKCIbH014iIiLaLrsZ8Eq7P7DMgklPT3+yPGikyDeUfF6fLqN8Wvsa3ky8Nr1Zeb8AqNrytq9tjFEfAJooJRJIeG4lNAGgP/IEppT73plM/vt+2bT/2XvILI4fRbCP4/MR6gqg1tYLeplvl6ZXaUy+0sbnf3yOf/4vjoAn23WtS3PYRavVQuusDwMG+mct676qWTMGzlpotdZc/hKWqaPXtdvj3Jbk1dpL+r9Z7UHaQMwiNMH2QrvAWd+YfvnbFPnu5upySLJ3maX/vt/qfWFf9RMaVHd/tVpoOTmUrsz5L+DyXfi3LpUro1zOzT0elqGp0+VN1qyTghWUWr1eb4kUcooMCQb66hlarS56wyHmJ9FE7AcBq/eFTWT8ShKCQ50BROoVFHqsx9iGzbIvDhIwzoEkrPiyE2gRKTsTejyEdWUt4Qu9L0TKbny/iR1vTkBfu3QtdTR1DPoGgD3MdeXG20tERETbZicDXrgn4wXYs6LGP0FfBV5QXgLUv8Rw/CE+7gPAS3jhnv+FdLuN0cinYeWw9yfjD+luehoYSL5Sx2eaE3zu9aPp8kbzCQBkkXTn96JpThhtraDDNYrSXjljz8IYIFIKKlpPMjkN2kiytSRsNuvE+WIc8KU2rFQOhXLRXsZoQOv3oZ610N3GnR16/AperTV0vTHahjbsMGcW1MZtw35LOefoPs6cANaZHRjzBxq3ob1EREQUu90MeO2/aAW8VA0ft/8ST/ESsm/8Gl7AB+i3nS8vMp6PEA+JRwov2DOdXqjb+bvmbouu7Ciij9HCSU/7SGetZYmz/F2+24augjg1buNUBZBNr1/vuINqPo2aqqDSjhjsAgDcQ/JlWEsYv3yMX/Ykrm/jw58CeDmzdLbMdUoeFKx8PFnJWvZh5yJRZHceE1/ekhjoAzsnTNadZ6Vs55AKyVlqM83RtI75mRJu0dq7h4OCYgVD1GuaNbeCfhnXl1f/vrBnoLhz4/hvka+OGJYzs0WC7L9yotNekZlMgZLWMsaClc8nK/mT/N9AP8ztC5Hxa/dZQDJ/a6mY77HQ9cZnG9ogLGAp4sIgrEjZIAHjQYQzC2qtJdMB4tlvgsebncNL8kyBkyBni3P5FuNpLxEREW2b3Qx4TQNIGt45/QBQfg0HR59FVgGenrbQV29y+WKQF3Fw3847Vvt3+EFnxdUlI7iXcRLEdxbmy7qXsZLTP6h2MF5UaC2uSscdVB/UoAKovHrkLiRu3EA+XUJTVVAfrZtDax8vfs7qq/f+sIqPnOT0lx381R/WYAJ48V8e2zO+vDrVPBKJPKrXclVPryvPr9TOl6frt5fcm375MPUheoP5L9Uzri9cpj5NpBx6+cwCe9Y3fGj66hw3Yu2FtfStoECGsf6V0gTML9WxEraHuxpZGKv3xZ5kJYm+6OlLg4nxSSLlJPe+6M2WG5o6ek573bl7RJhD9HpD6L6cRM7/cyf5j78fVu8Lx+rx6yyV0zBwBqupY9htWYnAF1hdb/y2oQ2rOTnpNKg99/nGhN6zE9RPZxaJlHXzjofpWA8YD6Gk7lo5wPpn6A597Rj21j6nbXq/iRxvTr6vzOEhitOLAhSQW/KLz6bbS0RERNvluSdPnvzc/YAs78KvWx/iPP81+6qH1qyp6vGL+LjxjVlOrMrX8c2TzwIAhtXXcNq0rtD41fMvTgNh08ddZT11BHHVIVIW+Al+kP9jKxgXwNmGyDpVJEpN/6O+pX+zJYFBKu0JTo6cAFMNcF5r1z2ty77vlB838kgvrhSTk+gBr2ndSh2jjc1AG2P0u2m891P/4wBeaeMLrwe1t4Oqk+tso20JR++1oF5lUSwcIGlfmr2/t5mrCLo5SdtlpQx31c7ji7jLLy27iSsf6r3APCxStji9UuPSNvjaay196QOu1zuPGZChRMxHtagvnfa72wvo6Dk5a9wkCbCvyFg4SM631V+Xfd/5n0v7YW5f2ONqYXH3dtjtnatjXUvasM7/mu7PIP59vKQNc/0Qnsi+WFrW34YF2ybJMqBp2At7bPrrFSAy1oXasOBYd3iPIQFC9S44NgFAkqEU3GMnfNml/bDOWMey7ZOQLc5mBG/Hfgt/vC1rgyTJyBzmpjNDl5WFv71ERER069y5cweGYezqDK8X8fz0QoEvIVuyAkXuZPYvZLbtk8xn8aXzb+F+5SVrOeamHZ1g1K5AWZok3kr63q4oWFpsExQFlXobozWCXQCAdBZKpb3hANM+0n8ywmdecfeCdZXGzwcGuwDgCK9WFAAKKm8sT96/ef4ZXYJ5ezYgeVBAMStjtpBEshKKK1nXY5ZkKoOsLHkTL0vBy04iSeVQVOSliZ1F2hsoeYCCIluzNbq9gCVKm5ZCrpiFPG2cdWXCYsG6UllUYvsiiYNCEYosheujWMzaMGP3xVx7BSQPcDg3ZuwxMRfQjKcfRPaF0PhNHqCgZGf1ShJkpYhCZq6kWL0x2YY2iEkhV1SQ9Y1JSVZQ9AS7IFg2gLSBsQ7nHJmFPLf07zDy8vf49lv44y1pX8ESVld5GIYG9Wx2ro6vvURERLRNdnSGF20TZxbWdIYY3VrWr+LwzAIgIqLNWji7ihZwZoLJUIqzmVzT53pn6GucuUVERPSs2PEZXkS0HhPDXs+b02jZ5d2JiIhuzGxms+nL3miaVzA0WLO41ruqBREREd0ynOFFseMMr9tocd6UyHlxiIgoFM7wErX4PcvB9y4iIqJnB2d4EdESSRwcKt4cL07uH35hICKireLK9eVLwiVJMrJ87yIiInomcYYXERERERERERHtBM7wIiIiIiIiIiKincSAFxERERERERER7RQGvIiIiIiIiIiIaKcw4HXLjRt5JBIJ5Ksd/1NriateIrr9zGEXrVYL3Z7uf2otcdUbl9vWXooXxwMRERHRdmHAa9t1qkgkEgiOO43RPlUBAGrzMQKLRBJXvRSHcaOKfCJhBygbGHufRD6RQL7heZSE6Oi1Wmi5b7v+hVbvodVqIXgzTeiaAQAwtEsEFokkrnrjEqK95hDdVgvdoel/Zk23a0w6gaCbbGL8bQgxHoiIiIjoWjHgdavto3RfAQAolVdx5H86svD1jht55BPVWxMUu23tXalTRbrWhBWeBNRmDQ+mwa0xGg9qUJU63jred71I1BgfPcrjnd9K4Ee/28A/+J+eGuOjP6ta5ezbO486S8rHwxx20eoO4YQY9F7Lc/82M4dddFu9G/4ynURKlgAAknwXKf/TkYWvd7f7gW4njgciIiKibcOA1y23f3yOyWSC85NlYSlxYet9f6BOgy23wW1r7yqdx00AFdRHE0wmbVQUQB28DwAYNx6gpiqov3WMSOGuSyvQ9aPfSuPdt9WVAaOPHqXx7nebnnLm2yX856VBss27MgxgL4kkAMCEeQXX/ShSyJXLKJfLKJcVyP6nr9GVYcCaQ3KzkgcFlMtlFHKb/Voftt5d74fVtmdM0szNjQciIiIiCsKAF9EumUbzOnhUU6HU30LUyV0ffc8KdAEKPv2/1/Giv4DbRRXvvg3g5Qo+05zgCz+e4AvNNl58GcBPa3j3z65rSaUV4JKkPfv+FYxtiIwQERERERHRtXruyZMnP3c/IMv8rfjmjNFpPMLD0yZU3zSkSnuC2WSrDqqJEpreApgsnI01Rqf6AKVm0NwmBfXRuR0UCVlvp4pEyVNqjlIf4TxqpGXTIrXX3hfT5YIKlMobeOvkaDZbatxAPl1Dtj3Bq4/zVv8qdYzOS2hXH6DWVKFU2tNZcuNGHukaUB+do9Su4oFTt1JB/a2TaIGpgG1T6iO8MUij1K9jdB5xdhcAXDTwzv+dxmdeP8IvooO/+q0SPny5js//yTF+0Vf0o0cJvPu2gk83z5G+63risoF3KjWYC163OTp6LRWa/2E/WUF5rdkX9v9ZVo+pYzgYQNNms5AkSUbmMIfU3DQzE/pwgEFfm5WVs8hkDmZl9R5a6vItk7JFFA7mKg/JboOmzQUHZaWM2WYG9PGyfoAJvXcB1c5r5CUhWyzAanLIemPsB3PYxVkfyBYPkdRd+0OSkT3M2e10hGwv7BxeVsWedum9FlTNel0xl5rNPhQaO44QYzI0q66rbBGFA2DYu0Df3n+SnMVh7sA7UzJke63+NSArZWTMHi6W9i8CjgsJkpzBobuvBAm3IeS2iYwHsXFGRERERFHduXMHhmFwhtf2GKNTTaNUmw92rWeMRj69INhFi0z3xfQRFWqzhHTelxQeQP+hHewCAPUUj+xgFwCozYfw54s/fZDw5N2C2kQtnZ8rF8rRCdoVK98aACiVNt5KP0KpCVTeWCPYBQCHx/jc60chglQdfPg2gJfv40VPsKuD0fdOrSWOPx2sXBK5G0wML1T0XV+SAcAwNKhn8zmn9N4ZVFewCwAMrQ914C8ZF3PWhqC4VGQmht2zBcGubWVAu/DtD0NDP2C/rcMcdqfBrrIngCM2dmJl6Oi1zqbBLtjj8syT8V20vRKuBl2chejf+ePCgKGpOFs7F1/YNohum4jrGWdERERExCWN26NjBSmg1NEeTTCZWLdRu+IvCeAIJ/bzk0kbQSWmOo9QU616R85rRs5rKmhPnNldCF/v0cm0fVbzKmhPX2fdos7u6lStqw0uvAUEnFYSbW+nau2LSnvWZ5ORFVhSa3jky3ivqiqU+giTdgWAimZTRaU9waiuAFBhp9RySkNVrcCUVfcIbbvcaVt4ywAARydWvrXJZILzE+BRqQlU2q4ZgTG7HFlfQv9R2g6O2bm/KiW897YT1uvDvHS/aNOcnEZWPiNZsfMbFbOQ3PcDZl1s3J6MrFK08yuVUS4XocgAoOHS841Wx6UGQM6iOC1bRlHJws59bUnlps9Z9chQXOXL5XKkWU0AAH1gBV+kLJSiuw1BM30F8kbpA/QNq97pthWd18hQys7sLoSvN85+sBkGIMmK3eZF+y1kewM4s4ykBTOAwo+deBlaHxqkWVucfee/+qBQew0YhrXtS/tX781mv3nqlQCjj/ViwSHbAJFtEx8P4cYZEREREa2LAa+tMEbjoZV8vH1+jCNX7CVa2GhmPOoD8M322T/C63UFQB+jaDGWneYkgm+7ly9iH0cnb6ACoPnYF/HyXwVRqeP1I2A/nXWXmlLqI5xP697H0bFVr3raFg/m+XSqJTTttl+3JGBfpXGW++vFr7Txma/MZqDFzjRxBQmzFF4GDPf92CVxkMvhwLPmKYnU3SVfgzUNuj6bt5JMHSB3EBAM2TgTw4FmBY4KriWU9r5ch2leAQDkjGsJXDKFTFYCcAVzvWk68ZEVFKazrmb77WoDDXYHu4KTmkcYO7Gxg5JOW5IpzDcjQntD9K9uRYGheGa/JZHKZSAD0NaNCoVoQ6RtExGqDURERES0Lga8tomSwT3/Y2tygi7Nx66ZUWMroTmQRXrdiNqGHZ14Z17N3dbJSRXKGFaMsImSf3aZk9+sP/IEppT7JU+b/Pf9snOdfg+ZTcSE7JlplfYJ7nWqyNvtzlcjzIqLwHy7NL1KY/KVNj7/43P8839xBDyJfzmtOeyi1WqhddaHAQP9s5Z1X9WA6f0uhtfxfdLU0eva7XFugbmnUsgpMiQY6KtnaLW66A2HcMW+rockYdPxwGTSqlG7dC1BM3UM+gaAPSTXjajFRL4bFIjaAO0CZ31jGuhYKPTYiZl8F/5WpnJllMs57+OC7V3dv/ZVVaFBddfZaqHl5Mm6Mtda1ri6DTbBbRMRug1EREREtBYGvLbC+xjEFRM4eh11BUCzhrQTuEnbgZvKq7j+eUAUjw6qzlLGew08KM1yhKnNGh5EShAW0t30dCZG8pU6PtOcuHJ/jWE+AYAsku78XrvKHKJ7pkILmxArlUOhXLSXMRrQ+n2oZy10PbmS4hLjFSxTGWQlAFofZ06w4MwOWAQEU3ae7PTHAAt3rejYuWm3rb0idnnbiIiIiJ4hDHhtBXuGjzqAJ93TdHndGuwcXorinkKkoFIfzV99MbLNLY2MJYfXnGXt3Uc668t55r9tepbZuI1TFUA2HbnecePhdCnjuH0KFQrqo4mVi03ZzHLJxe4h+TKsJYxfPsYvexLXt/HhTwG8nFl7mdwyyYMCyuUyilnJXo5l5dRRZHceKXfeqHjogz6s1FXu/ENllANzYjmS1jLGgpXPJysBhjZYMhttU0sC9yBJVkIhawHijLWsbA12Di9JcicjkyBni8G5qyLZVD9chz0cFBQrqKkGzzSMNnZuTjztTSK558v95r8VfFeKjEE820ZERERE140Br61gB1nQxENnJs64g0Y+YSVPX4OTj+qNt97CaJoM/xwnEZPK+92zInU4bXdiDKhsTpj23stYyekfVDsYLyq0Flel4w6qD2pQAVRejRiAHDfwoKai0j65oRl7+3jxc1a/vveHVXzkJKe/7OCv/rAGE8CL//I4xNUe13flmZHhLI+6fnvJvemXclMfojcICCCZQ/R6Q+i+3EEpWbKSawe0fc+KUEHT9bWWdVns4AI0DJwIjKlj2G1ZScPX4ORhyhweojhNhl9AbkMRx832w3VJIVdQIMNA/yw46IWwY2eLbLq9e5KVnP6ip994QHPT20ZERERE1+u5J0+e/Nz9gCzzF8wbMW4gn7YCH25KpQI0m8i2J7Or7nWqSCyJhCn10fSqg+NGHumav1aLolTwxlsnsyT5AvVOLXhNYNltEKq9YzTyaevqlgEqzr6w9xmc19p1T+uy7zvll+0LVNoRZ9zZbc26Xh+wjZH2x0UVP/o/5/tq6uU6Pv8nTiBrjNHvpvHeT/2FALzSxhdej7Jt4vReC+pVFsXCAZIwMeyeob+34Ip4Yem9pbl7pGxxenVAJzH5IrJSxrQp5hDdM2smyTwZij9fEha3xd0GIQvaIMkyoGnYc7d3wf92hO0HSZKROczNkuQL1Du14DWBZUNw2uvZP5j9H0+9C/63w1PW7l8EPGb49vGyPoN/7Ii0QYiOXkuFtugqki4i7RXqX+e4XVD1XB0hibRBZNtE9oVIG4iIiIgoujt37sAwDM7w2hr7xzhv1zFdeagoqLRHOH894ysoZt++AiCsKj1UtYlSugrfNQfFHJ1g1K7M1b21QrV3H8fnI7QrCpYW2wRFQaXexihSsAsYNx6gpiqouwNKRycY1WctVypt71UkY7GP9J+M8JlXvEtnX/xKG5+/pmDX/IyuGHNULZA8KKCYlTFbyCdBkhUUlazrMVvyAIeKbC0rnLLLBwW7YOX8Ks69Zg3JAxSU7Kw+SYKsFFHIrPcPkgfWFfVgVelhGBrUsx4WpbIKZdP9cJ2SBygospWYvTvrB6GxswXia28SB4UiFFlas57o4ts2IiIiIrpOnOG105yZShW0R66ZXM5z1TRqTdeMJYqVM8OL/U27zZmhI0MpumZyOc/1ztDXos/UISIiIiIiWoYzvJ4Js6s/jnwZq8bj9zFoAoCCzD3PU0REa5jNrDN9GbZM8wqGBmvGzJ7nKSIiIiIioo3iDK+dtjwXFaLmdqJIOMOLng3LczBhrRxTREREREREy3GG1zPBlYvKl4xKUSqotxnsIqJNc+Vg8iU8kiQZWYXBLiIiIiIiih9neBERERERERER0U7gDC8iIiIiIiIiItpJDHgREREREREREdFOYcCLiIiIiIiIiIh2CgNeRBsybuSRSCSQr3b8T60lrnqJroM57KLVaqHb0/1PrSWueomIljMx7LbQanUxNP3P0W23Xe8tOnrdHrahJcvE1Wdx1bvLbrbPbsd4pfXFNc7iqpcBL4qog2oigYT7tusBmU4ViUQCwZs5RvtUBQCozccILBJJXPUKGjeQT1TD/X+RsnT76T20Wi0EvzeZ0DUDAGBolxv8EBRXvSGYQ3RbLXR38Juu80EjeF9ek23o321ow62jo9dqoeW+3ehAipGpwzr9GND0GMbI0nPqzdmG80P8bbjB95Y5JoZd1RprMQwzIUvHZFx9Fle9IWzFe0CUc+oN9hnscWpoUFsMet16O3bMM+C1ZcaNfCzBgrjqJcc+SvcVAIBSeRVH/qcjC1/v5vdxB418FZ0xgP00ss7D4w6q+QbGkcuKGqNTzSPvCq7mqw3rf7nZAUnvLY98tTPX1rlgbSKBfL6Kxlyli8s7N08ANHQb4mcOu2h1h9PPyXqv5bl/PZJIyRIAQJLvIuV/OrLw9ZrDLrr88EW3VFzjN656nwnJFKzTjwQ5lfQ/S7da+PeWuOm9M/QNCdliDkHDzNSH6HVdwZBuF72hfs3v8Yixz8LXy/OZI3yfxSKZQq6YhQQNanCk5Jo4s3Bv4nPvsyCucRa+XtFjngGvLfP+QIU1n2ezNl/vEU4mE0wmE0wmbVT8Tz+D9o/PMZlMcH6yLCwlLmy9G9/HY2CAJkrpPBqdEaBkgE4V+XQJTQzwvjuCI1JWyBiNfBqlpnfb1GYNpXSY4J4KtVlCOkTQTVWbqJXSSIQoKyZ8GzbpyjCAvSSsz8kmzCu47l+f5EEB5XIZhdyyty5xYeu9MgxYvxcR3T5xjd/N15tCrlxGuVxGuaxA9j+9U5I4KJRRLhdwcN0nVIpd2PeWWOk9qBogZQ8XjDEdA7VvzzS0GQa0voqzGwg0xNVnYevd/PlsG0Q7p4bts9gkD3CYlQBNXTA76BrYs3BlWQYMDXFMxH3WxTXOwtYreswz4EXba+kSQord/hFOzicYtbM4LdXQVGsoPewj2x5hcn6Co/2IZQWMGw9QUwEodbRHToB1hHYFAJooBQyOStspN8GoXYcCAOop2v5ok1LHaBq0HWHUrthla3jQ8BcGUGlP63XfguKQodsQGyvAJUl79v0rGCLvDERERHQDTAwHGiBlcRgc7QIASHIWStEJiJRRLmYhAcCGlwIRiUoeZCAD0AY3M7vK1DUYkHE3dxdyXEvP6VZ57smTJz93PyDLYWPItDGdKhKlpv9RD6U+wvmxO2owRqf6AA9dM18UpYI33nIFF6LUO+6g8eghTpfVO6eDaqKEZqWNSdC3/6js9lfawUGFeI3RaTzCw9MmVN+0KW977G33FljSD9Z+KzWD5mIpqI/OYe2OkPVG2ceCxp0GHj2soakCUCqov/E6jhcMBpGyqzl9UEF7cuJbzmnN/KqprucWjJdxI490TXU9bter1DE6P4andeMG8ukaVM//FBjfodsQFx29lgrN/7CfrKC84teTYCb04QADTZsLoMlKGbMqA9qx9H+a0HsXUD0/VzskZIvOTIqQ9eo9tNTlvSBliygs+TKxkDlE96wP+F6v91pQNas9xVxqNpPO1DEcDKBps1+jJElG5jB4mYoQu+7+tN8kyNlD5FztModdnPUN3/6Z9ZG7H6yyQLZYQErv4aKvWW2WZGQPcwEzDezx4JSDBEnO4NC9/aJi619r7FxliygcAMPexbTfJDmLw9yBq07BNmy6HyKNX+sYGizrhyj1hu5fN/s4DTo2Rdj7YU8p4+5l1zo/SFkUCyno9v6TZMX3S/CG9wWW99vccQWE2xdTYc+pIgTGOsLvY/e5JGPezPlBuA0hty30e8u0DUC2eIik7tq+RW0QFXBuDss6R8lQyrmly4GWCzsmw/eZZYff52MY616rzqkh+8zeLkPKoljwnQem2+feF4i8bQs/e8TOxLB7hv6egnJuz/obwdsbfkyKn0tCn39Dive8sxvHfLlc9j+EO3fuwDAMzvC6nRYs81LtJWWRZ5GM0XhQQi2w3jDLx3bFGJ1qGqXafLBrPbP9diuMO6jmE0iXToE36qiggvYbwGkpjYSTrytK2bA6j9EEoNRfD8hd5uQ2a+LxJgfmfglWyrQ+RlHavNNM6L0zqP35N8T1WB9Ogt8Qbwdz2J1+CC77PgQPL1T0XR+QAMAwNKhn4XMPBDKH6J5Zdc8Y0PoXa185Trvo4mz64dZKQts/m78i3XQ8TB8xYGgqzjacM2Oj/Wvo6LXOPP1maP2Vy4AWt+H6+mGx2TE03w/z+y28CP0bg6uBHeyCNRYHri8QhjbwbN/t2hdxnVNtoca66D6WcDUIOj/Ml41vX4Rtg+i2iTCgXfi2L7AN4vRLDVHyw5l6D9bEsMx6wa5YxuQuv8/HOdY3zMk/GLjMT8elBkDOeIInUbctmZIhAdAu1z0iBNnLGa0VDnZOqMDtFRmTEc4loc6/ouI47zwbxzwDXtvg6GS6/MlaqlVB27dsyj1DZ/EyLwWAitojOwIgWC8AIFtBvT1ylZktH9toYGEDOlV/cnDfLWrOpM4jlKxIi6t/JxhZHeEjkMus82i636ZL6UbOaypoT5zZXQhfb5R9HNY+gGwd7dE5Tu4BfVj/73zURgUZ3PMsaRQoKyibDn7xfnqaGn+hcaeKBzUVQAWvzkfNAuzDqlbF4H3fU83S/BgLcZEA8Tasw8n5YOV7kBXvUofpff+vJmHoA+vDnuRdRlFUgmYFC+Se0AfoG1a9xenSDOc1MhRPnpyQ9aZy0/ZZzZOhTF9n3SL96hvA+RVTCvo1CgD2ZGSVout/F+02aYj+OdDE8KIPA4AkK7N+KxehZJ1lrFEZMAxre6x6i1CykvVBy/2J0c4xA///lyXA6GMQedu8Nt2/htaHBmn2GmesLVkGtLQNcfSD4Pg1hxfTY2h2bNptgIG+0wjBegHx/o2DYRiQskWUFdkah5o1a6Boj0vjyi4Yx76At9+cm/W/54XeFxA9p4oLPdaF9nHA+SGobFz7AgjfBohsW8j3FhfDcJ9/F9Urys63KckBswH9XIm5Wy2cqRr2os5ocgiNSYE+2+X3+VjHelgh+wxJHGTs86g/AqRfQgMg33Vt3zrb5gTXrsylgbFNs5YzzgLGVuAtaHtFxqTIucQS+vwraOPnnR065pdhwOvWGaN9an15bp8fu5YZ7uPo5C3UFQDNxyu/hAfbx/HJiW8J2j6OXl0YbtmsccNzJT5nqV6z5A0yBKRt2qAxGg+bAf1rxXTWMR71AQCVN1zL6PaP8Hpd2dIZRUc4OfH2AeDk6/ItBRQqG47TX6v0fR3nHi/pUhMqFFTa/iWRi93LWFfFXMe6bVibaeIKEmYpvAwY7vvC7JwikKEUDjwfxNf9OGma1rdVOeOa5p1MIZOVAFzBvM5PSoLcH4KDE2wmcZDL4cDzzSWJ1N2Fb+fh2L9gwv6/s9qTSB2sO7XdXgYyrTeJlJ2Pw9BmVwCzZiHIUPz/P2fn7oj86Wsmnv61P2g5r0mmsKz4qjZcRz8s51zG239sJpHKHSJr/cQe8QN2lP6NgT+XkZRFJgUkk94T2u3aF/GdU2fCjPUI+9hz3pmVvXKdrGPfFyHaEGnbRIRqgyg732bEC8xo/TN0A6Z0msPu7GqOrpu3bHxjcpff52Mf65uWujv3fg5nO+xzq+exyNuWRHLPitA4v0nEzz4HuwPGduDNv71iYzLKuSTM+TeCkOcdHvNeDHjdOu9joAKovBrw5dmZnbJG8GTcQTWf985iWZEj6qYcnXhnMs3dIgZaAABKBvf8j63JmZHUfOyaeTbu4FFNBZDFgolM22H/GOdzebQWECm7RJgZXFgyA8xSQX10LpQ36/3BgiWngUnrw2yneBuimr7BnfVhwED/zH6TUzVrdsFZC62Wf1mNAElC5JjZAs6XVu3SNT3e1DHoGwD2kFz3XTcu2gXO+sb0w8dCpo5e1/fBY0kOglCurGn1nl9iN2hvrtP3IHkmtNizEKBBnftAZedhWPdX3bj6N+BS16lcGeWgnDcr23AN/bCS/QU5YLumXzjW+XAp2r8xkGTv8iH/fcst3RcxnFOnAtoRONYF9/Hq8078+2J1G2yC2yYidBti41wt1JmRYc3kNvpn610dL4Yxubvv8/GP9c2zgw7uZX7m0FoO6zm33sJtc5YzerbDCbx5lzUKj0nRc0nY86+gWM47z8Axz4AXzYwbyKdLaG42cVV4+8c4dwcT7CWE7iveTRZcFW9z7IBiHI5et2fg1ZB2golpOzF9YACTEDCDy7FoBpgzXqyrIzZRE8o/N4ZVrYLMGhHP9dqwjWK8ymMqY8986OPM+RBxZn+YCvjAsDVkp92DxV8u7Dxb2oY7z/nlbKfdYP9OhWnDLou7f59pMZ5TRezyPt7lbQuQTB2gYKcv8M/2SB4UXEuxZjfvkr8Yx+Quv8/fQv5lfs5VDTPrTg+/YdZ2WEFfd2DKikv5ljWKjMlbeC7hMe/FgNdWCjFDK3DZovNlfdFsoeX1dh7VYKWYas9yTLkCT9smnhxe95BRAKgD+FM4dR6vOdPNzuGlKO4lcwoq9dHqq/+Ftnwf3yr3MlAAqKftgP3ozIxbnBdr/+gYb1kRRjwMeyWHaZ61+ygFHkNiIrVhDc4bnJVfZra2XZHd6+h9eQlCsWf4BExNt6a8r8Fe5y95phBJkLPF+VwZka0xw2WhPRwUFMiSAU0NnjWnD+w8W1l3/ouynYsoOueXM/+XGhH6pX9PLuEsoZwus7F/MXXnZvDfAq+IJOLm+ndmVRuuox8QbvwGLlt0fqFf9Gvq8nrj799Nuq59EUKofRHjOVVAPPt4O/ZFPNsWN3tc3MjMmRjH5M6+z2/HWBfmWeZnLwOcC0Ksu21OPrrNzx4K5iwpX8yzrFFgTN7Oc0kYz84xz4DXlrHyB6k4bXcCvuQDwBGslFpNlKruMmN0qnYy+4DZQqvrncmm702XAo47DVQfrhnouVWcZaGuAMW4g0Y+YSWyX4MVMKvgjbfewmiaDP8cJ1GTyvuI7ONbYf8Yb1QAqDWk3WN93EEjb82MC76C48z+8Ruwqniw4uqlY3QaVeTtnezJs7am8G3YnCvPTzbOF611OMtxNAycT3ymjmHX+eUsOidHRObwEMVpwswCcuJRuUB71rs5NN2bv2EzUsgVFMgwAq9i6NhL7k0/FJr6EL3Bmp3m5ODon6E7dG+XCX3Y87Rjflq5Cb3nuupdIFcFpj5NkO+eSr8nWUlrL3p66A8c4m6ofz2WtyHuflg9fp28IBrUnm8s9OwE6nNfZMLUOxNv/25O3PtiNZF9Ed85NYpN7+Ob3xczm962eAUvvwrDNHX0LvqehN1i4huTu/w+v01jPTw7eb3Rx2CoQzMkZN3Ju2xrbdvcD2VBTAx71jLB7rpT6Fy5TecCc84Pv67jKsqYvF3nkjCenWP+uSdPnvzc/YAs3/Zo5S3XqQbmzFLqI9fV9jqoJuylcH5KBe3zgLxCIeodN/JI1xav56u0XcsJF9Tn8LY3Ivt/eP7vdRg3kE9bs93clEoFaDaRjdgPy/pXUSp4462TWdJ3gXqnFrwmsOxtsWBfAPbVLt152haNF6dfKm17Jt2S4yewv5aXDzouVrchXnqvBfUqi2LhAEn70sD9vYCrC4kwh+ieWYEPN0mWAU3DnlLGtHq9tzS3geS6kpSTEDaIJMnIHOZmiTQF6p1a8JrAsmHY/QD366d9I0Nx5WdYtm0AILv7TNSC7QIkZIvuWXw6ek6+DTdJAuyr34XZF5i7OpU9rhYWj7htsfWv3Q9z2xFAoA2x9YNjwX72jt8F+xgAJBlKISBnSIh6hfp3QX2OSMebfz/Y/2Nal31/1o6Y94WL0zfzdQrsC5FzqpDwY11kHy/cZv9+sUrHsi9E2iCybSLjV6QNkYSpZ0l7l75uFZExuaQNWNBnQW77+3xcY33RNjk82yZSdsp1rpKcz4t+0bdt4XHi5hlv/n4VNPd+4DW9+IDdFyJjcllZzPVD+POviIX9GeZ8scwOHfPlgCs13rlzB4ZhcIbX1jk6wahdgWfV25wjnIzaqFe8S+OUShujoGAXwtW7f3yOUb2CWRG7znbd9dg1Ojq5hpxdAfaPcd6uz/pKUVBpj3D+esZXUIwz0wdWlR6q2kRp3TxPIfbxrbN/jPOAsV6pt73BrmWmudMeLplhpUCp1NEeTeIJDoZqw6b4Z3RtaI1+8gAFJTtLXi5JkJUiChn3dGVxSfsKgLCq9DAMDepZL2B5kIBUDkVFnqt7o5IHKCiyNbOjO2tv8qCAYlbG7F9L1uWk7eTCa0nlUFSykOemix/6lqymkCtmrcuDT8soKBZm/e5IpjLIypK3r6RFU9CTOChYlydfe1tWuYn+9VvQhtj7IdT4TSFXVJCd7eRZXwQFuxCu3mvt342IeV+EIrAvYjqniohvH9/8vohv22Jm574x+gOB9z4JkpyFUvTn6BEU05jc5ff5bRjr0cyuGhh8IRCssW3O1RK9V32ck0xBts+VUsBMZBHOjKJFOd2tvGWAYVgfkEXG5K09l4TxjBzznOFFdC3GaOTTqKkVtEeumVzOc9U0ak3fbCGinef8eihDKbp+7XGe652hr/l/PSMiulnWr9fwzaYk2pB1Z21sFb7Pbyu914KqrTmzKsDC2Uhbg2MyXtvTv5zhRXStZld/HPkybI3H72PQBNa9MiDR7TObfeZP0WuaVzCsufaQrifjKRGRj4lhrwfdncDmBi+tTs+IVA6KDBj9i7mcUbcP3+e3j5PLE5CymY0Gu2AOcdE3AFmJPZgRHcdkvLavfznDi+haODO8/I/PzOeOItp1y/NDAAvW7hMRXYvF5yiemyheTo6loFkSt8niY8jBY+ma+PMeLczdFZGpo3emQtt0vRvHMRmv7elfZ4ZX4vd///f/D/cT3stHEtFm/BJyX/n/IffRu/gfn7rE5eXsGUWp4Ot/+n386f+XwS561nwKz+/LkMyPYT73CT75ZPaMJMm4988U5F6O/w2RiCjYp/D8CxLMj01cOScoSYL8zz6H3+C5iWK1h7sZCaZ+hb1/fBfXOBliw/g+vzVMHYPLK2t2jfzP8LnfeHmzQalPmdD15/BPCv8Uz/uf2yock/Hanv597rnn8Mknn3CGFxERERERERER7Qbm8CIiIiIiIiIiop3EgBcREREREREREe0UBryIiIiIiIiIiGinMOBFRBSSOeyi1Wqh29P9T60lrnqJouKYpPXp6HV7WDaCOM62R1z74rbVG87qsU1ERNuBAS+6OZ0qEok8GmP/EwFEytKG6Oi1Wmi5bzfywfIa6T20Wi0Eb6YJXbOusWtolxv8oBtXvas5XxiCt5eCbEOfxd+GmxuT2yD+/n0WmBh2VWgGANP/nOPZHmfXbqfe3+KqNyQTgKFBbTHoRUS07Rjw2jLjRh75RBUd/xM7Z4zGwyag3Edp3/+cn0jZTRrjo0d5vPNbCfzodxv4B//TU2N89GdVq5x9e+dRZ0n5eJjDLlrd4fS7hd5ree7fZuawi+6Nf7BMIiVLAABJvouU/+nIwte7Hf0Q3m1rLznCj0miIHrvDH1DQraYQ2rh1cfjGWc870QRz764ffWGlEwhV8xCggY1OIJIRERbggGvLfP+QIXqf3AXjds4VYHKG8dYGcMSKbsJl1ag60e/lca7b6srA0YfPUrj3e82PeXMt0v4z0uDZJt3ZRjAXhLWdwsT5hVc96NIIVcuo1wuo1xWIPufvkZXhgHrt9yblTwooFwuo5Db7MfrsPVuSz+EddvaSzNhxyTRHL0HVQOk7CEOVrwBxTHOeN6JJo59gVtYb2jJAxxmJUBTF8yaIyKibcCAF92IzqMaVFTw6pH/mXkiZTfho+9ZgS5Awaf/9zpe9Bdwu6ji3bcBvFzBZ5oTfOHHE3yh2caLLwP4aQ3v/tl1rcG0AlyStGffv4LBT/xERHStTAwHGiBlcbgq2kV0yyUPMpABaIPdmE1PRLSLnnvy5MnP3Q/I8k3O43hGdapIlJr+Rz2U+gjnx+75TWN0Go/wsNa0Z4QpUCpv4K2To9ksqHED+XQN2fYErz7Oo9RUAaWO0XkJ7eoD1JoqlEob5ydWJGncyCNdA+qjc5TaVTxw6lYqqL91As+/X0sH1UQJ/bltCiJSdkMuGnjn/07jM68f4RfRwV/9VgkfvlzH5//kGL/oK/rRowTefVvBp5vnSN91PXHZwDuVGswFr9scHb2WCs3/sJ+soLzWr6D2/1lWj6ljOBhA02a/rkuSjMxh0JIWE/pwgEFfm5WVs8hkDmZl9R5a6vItk7JFFCJ/qbLboGlzwUFZKWO2mQF9vKwfYELvXUC184t4ScgWC/ash5D1xtgP5rCLs74BWSkjY/Zw4ewPSUb2MDc/OyPMPo7S3jD1CrP69ypbROEAGPYu0Lf3iSRncZg78M5+DNkG4T6bG+sSJDmDw1wq8uxL4TaE3LbQY3LaBiBbPERSd23fojaEJFKvux88TbTH4HScmUN0z/rYU8q4e9m1jk0pi2IhBd0eF5KsTGeKzNpQQEoP0b+h97HgmBTib0PAOXXKX3ZReyPw932gGMZZlPOOUD+EPa9DoN5rGA+ben+zjyFDyqJYmG+X3mtB1SK8v035+2zR+I1Qb+8CgxXnvtDjLMDC8xAREd2oO3fuwDAMzvC6rTrVNErTYBcAqFCbJaTzDfjnFPUf2sEuAFBP8cgOdgGA2nw4lwj+9EECaXfdahO19OYSxo8bD9GEgvshEnKJlN2Yw2N87vWjEEGqDj58G8DL9/GiJ9jVweh7p9avfT8dPCO/+pkYXqjouz5UAoBhaFDP5nOp6L0zqK4PtgBgaH2oA3/JuJizNgR9f4nMxLB7tuBL0baScDXo4sy9PwwN/bn9JraPw4urXpuho9c6m36RhD3WzjxrUETbELbPgsa6AUNTcbZ2fr2wbRDdNhEGtAvf9gW2QVQ89V4N7GAXrPoGrgCDoQ0w9O0Q7SKof7tz5YT3cagxKWa+DYvPqfNlV7RXgH6pAZAgz0fZ1hDPeAjfD2Ln9fD12jY+HmJ4f0umIEtWv+tzG6HD2u1yQHA1nPk+Wzx+w5vtN0+9hgY14DiOOs6SKRkSAO1yWSkiIropnOG1ZTrVBErNCtqTEyxcwefMCKu0MZrO6BqjU32AUlNFpT3BydFshpfqzBBLP5rOJKu0J3h9lEe6NitvzfCy54tV2vZssTE6jQco1dSAWWZRjNHIp1HLtjGxZ5Yttrys1Vf+R12UOkbn6+b9WjLDy5nF9UobX3j9yE5y/8BeDukImP0VC+tXTzi/MLpmNGzmF8dVM7xMDHsD4G4GB9NPvPaHbm3BL8pyFkXXL9imPsTATCJ3MF+/9euxDKWc20xyWmc2gJSFcjj7BdnUezhTtSW/1K7oB1e901/BTR29MxUalrV/Rb22TfeD88s0AEiyYs9AWLTfRPaxJVx7xesNxz0TQEJWObTqD9wf4dsg1GfOeJAVFKezO2YzRaJum1AbBLbNa/mYFGtDeCL1LpxZ4Z9l5MxOgT3LJzmYzgaSlTIypreehW0YXkDtG96ZQkL7WGRMihA4pwq1V5QVYOgjeBZQsM2Ps1DnHZF+EDmvi9Qb13iI+f1tbqac/XjkekXGr8fyeqdjx9MPs33hnhkWZZzNRBn3REQUN87wusU6j5sAKmi7ly9iH0cnb6ACoPnYd41HpY633IEqpY7Xj4D9dNZdakqpj3A+rXsfR8dWveppe272mLDOI9RUoBImIZdI2RuUBOyrNM5yf734lTY+8xXFXzQ+pokrSJil8DJguO/HLomDXM71hdp6LHV3SQBd06C7fipOpg6WfLDdJDvHDGQoBe9yiXU/qJrmFQBAzrg+9CZTyGQlAFcw535R3hL2ci6rzbP9duVpcIR9HEpc9TpkKOXCrP5kCvNVR2hDiD6zZrvIUDxLmZJI5ey8L+vOCAjRhkjbJiJUGyKIo15/Xikpi0wKSCaDT5RStuhtg52vx9D02dVwI+3jMGMyghDn1GjtDcvOHbnWxVIW2PB4EOkHkfO6SL0zmxwP8b2/IXV3bvzDtc131337DjF+wzOha0ZAPySRyh0ia03Jmp+5FWmcJZHcA2AYsEYKERFtEwa8bp0xRn0AaKKUSCDhuZXQBID+yBOYUu6XPLOc/Pf9smn/s/eQ2VDspvO4OQ24rbKq7NHJBJPJktvas7vCMd8uTa/SmHyljc//+Bz//F8cAU/iv96mOeyi1WqhddaHAQP9s5Z1X9WA6f2gqfsxMHX0unZ7nJs9i8IrhZwiQ4KBvnqGVquL3nAYsEwiZpKE4K+50TlfnLVL19IVU8egbwDYQ3LtbxzxkMN+Uwm9jwXFVS8ABFyyPpUro+yfOSHYhtV9Zl8pFRpUd52tFlrOrI4rM3iJU0ir22AT3DYRodsgKI56JdkdhJi/77c3d8DuQZLc9yPu47BjMrSw59SI7d0Cmx0PYv0Q/rwuVu/UxsdDPO9vgB2I8yxrtJczBmxDeGHHrwg7+BrYLjtAFfAj1GbHGRERbQMGvOj6jBt42FwdcAMEy96Uu+npl6XkK3V8pjlx5f4aw3wCAFkkY1/OuAXMIbpnKrSwCUNSORTKRRSVLGTJgNbvQz1roRs5Z4mIGK9gmcrYvxz3ceZ80Tmzv+gEfvC+RUT3cVhx1StiG9oQl13eNpq50XPqjrtV5/UY398ApDJZSDCgOdEo/RIaJGQza/YCxy8REcWEAa+t1Mdo4drBfaSzdn4q/4ymuGY2jds4VQFk02vVO26fQkUFb4TIAxambKfqn+HmuwUk8N+se0i+DGsJ45eP8cuexPVtfPhTAC9nls4gWFfyoIByuYxiVrKm7pfLKJfLUGRruU6xXEa57L56VDz0gZMfR7H/p31Tlq3LSFpLFgpllMtFZKXgxNEz87/GRmPP0ghYfmAtzViDPkDfACTPNBAJcrYYmGMkmk31g5ho+xgr2xu93s2Jpw32LILpcRhwu4Z8L/Fs23bTL/1H9oaYOjTDvWRvO/bxzKpzatzttc+tQbOYrt2y845gP4Q+rwvWG4sY39+AafJ6Z1mjfqmtlazea9X4jSBo2eJ0Jt6mZl3b9cUyq46IiNbFgNeWuZdRAKg4bXcWBmvuZRRAreFBtYPxokJrcVU67qD6wEp8v14urQ4eWQm5FifjnxIpe5P28eLnrP313h9W8dGl/fBlB3/1hzWYAF78l75E9zG58vyk63yYu357yb3ph3lTH6I3CPiAbQ7R6w2h+/IMpaxLQMEIaPue9Qkemu7NHRKNs5xBw8D5JG3qGHZbWHeVl5PLJHN4iGLR+ZJTQG5DEcfN9kM0ofaxTaS9IvXGZdNt2JMkwOjjoqcv+fJ9PTa9bdtgfqmZCb3nuhLj2lw7zdQxvLCCh+5lT1uxjwXOqfG218llFHQlv+sT5rwj0g8i53WReuMR3/ubxR5XhgbdtJYzrloavJLA+A3PyYOmQe25x4GVtL5vHcibmZ03FwgnIqJtwqs0bhvnCow+3isk2lcvXJAiyn+VRjivteue1mXfD7pK45xK8JUSQ+tUkSj1UR+dY8mkLYtI2ThcVPGj/3N+H0x5rtg4xuh303jvp/5CAKZXb4yf3mtBvXKuEGRfMWgv+MpFoTlXelrAfaUm9xWOgniucOS6Ytq8BVelWtCWuatFhbWgDZIsA5rmvbrlgv/tCNsPkiQjc5ib/RIuUO/UgtcElg0h9FXuVmwb/PvYEaK9keoNZfkVvNxE2iDSZ9Ordy2oeq6OkETaILJti/aXI6jeMG0QIVav+yp3LpIEGK6rKdrHO5z7/rp8V5lb2mdz40lkH4cfk0IWnM8s/nOqSHsj8PdtkLjH2YL6ox6by8bD3HldoN7rHg/rvr/NWO2GLEPTIPSe7fDUu6C9lgVXwVwg1PkBACQZSmFWb6RxZlv4WiIiulG8SuO2OjrBqF2BsjRJ/D6Oz0doVxQsLbYJioJKvY3ROsEujNGwEnKhtDKAJVJ2G+wj/ScjfOYV956wrtL4+WsKds3P6Io3h0eQ5EEBxayM2YIPCZKsoKhkXY/Zkgc4VGRf8me7fNAHZ1j5PYpzr1lD8gAFJTurT5IgK0UUMuv9g6R9FTfY37ndDEODetYLWF4hYNP9IEBoHztCtDdSvRsWXxuSOCgUocjSmvVEF9+2bYMUcsUs5OmGSJCzCoqF2XEYRTKVQVaWvONWClrChq3Yx2Ln1Jjba+e7MvqD9c516whx3hHpB7Hzevh6YxPT+9uMNXtK07TNzJISGr8iUsgVFWRnJ4hZva5g13rsq0HaV3wlIqLtwxleNOXM8JrOENsUe6ZZNky9ImWJtorzy74Mpej+xd9+rneGvub/hZ+IaMeEmBVze/C8TotxdhcR0fbiDC+6Np1HNaioIEwKMJGyRNtlNrPOn7LZNK9gaLB+XWZWWyLaZakcFBkw+hfrJRzfCjyv0wLmEBd9A5AVBruIiLYYZ3jRVGwzvIieCctztwD+/CJERLvKyZ8UNDPqNuF5nQKYOnpnKjTJyZ1KRETbhjO8iIg2ypW7xZcqRZJkZBV+KSKiZ0UKubJi5Ve71ac9ntcpQBJ24nsGu4iIth1neBERERERERER0U7gDC8iIiIiIiIiItpJDHgREREREREREdFOYcCLiIiIiIiIiIh2CgNeRERERERERES0UxjwIiIiIiIiIiKincKAFxERERERERER7RQGvIiIiIiIiIiIaKcw4EVERERERERERDuFAS8iIiIiIiIiItopDHgREREREREREdFOYcCLiIiIiIiIiIh2CgNeRERERERERES0UxjwIiIiIiIiIiKincKAFxERERERERER7RQGvIiIiIiIiIiIaKcw4EVERERERERERDuFAS8iIiIiIiIiItopDHgREREREREREdFOYcCLiIiIiIiIiIh2CgNeRERERERERES0UxjwIiIiIiIiIiKincKAFxERERERERER7RQGvIiIiIiIiIiIaKcw4EVERERERERERDuFAS8iIiIiIiIiItopDHgREREREREREdFOYcCLiOiGmcMuWq0Wuj3d/9Ra4qqXiIjoWcf3WKJ5PC5o2zz35MmTn7sfkGXZfXcnDBvfwGntA7xQ+TLKJ1/E8/4CHh9i2PgB3qmd46nr0Wz7+/jSkesBIgBAB9VECU33Q5U2JiccLBSWiWH3DH0DAGQo5RxS/iKRxFVvGDp6LRWa+yFZQTl3fS2Iizns4qxvQFbK2IHNeYZsw5jchjZsgN5DS9WeoWMgnv12284lbK/fTb7HEkXD44KeJXfu3IFhGM/CDK+fYFD7AADwtPmXGI79z3sNq1/DqS/YRddv3Mgjn6ii439iTXHVe9uYwy5a3SFM+77ea3nu03VKIiVLAABJvrvBDwZx1UtE28gcdtFt9XBbflOPq71x1UvkdfPvsdsx1k0Muy20Wrfjc+R29Nkuu/njgsjvGQh4fRaZ+ksAgBcqv4aDff/zLuMf4h17qs4L9a/jq5Pv45v2jbO7rtf7AxWq/8EN2Hy9RziZTDCZTDCZtFHxP72lrgwD2EsiCQAwYV7BdZ+uW/KggHK5jMKGf26Lq97VUsiVyyiXyyiXFezevGG6fbZhTMbbhivDgOF/cIvF1d7N1xvvfqPb6+beYy2bH+sRmDo0w14hZGjQtzzitRV9tuNu+rgg8nsGAl7AwfEf4ZuT76O6ajnj+5o9s+slZEufXV6W6NayAlyStGffv4LBd38iIiIiEmDqGgzIuJu7CxkGtG2PeBHRM2d3c3h1vo03S+e+B/O4P/k9HPgenZq+5iW8Mvoj5JfNBgth3MgjXQPqo7eQbj/Cw1rTml2kVFB/6wTHrvqtsioq7Qk86Z86VSRKTSj1Ec6P94FxA/l0Ddn2BK8+zqPUVAGljtF5Ce3qA9SaKpRKG+e3MYeUva3LTPthaoxO9QEeNmcztxSlgjfeOsGRUyxKveMOGo8e4nRZvXPsfF4hcnh1qnmUmkClfe7d37EKyEMSJGpuElPHcDCAps1+PZMkGZnDHFJzU8dM6L0LqFpQpE1CtljAgfOa0PVa23eVLaJwAAx7F+jb9UtyFoe5gzVmsFntHWy0DQH7Y2nfh+2z8PVauRyAbPEQSX2AQV+ztk+SkT3MzfbB9AVh94Wb3Z4FbRAh0t6FeSrs/ENStojCQRIwh+ie9bGnlHH3smv1r5RFsZCCbu8/SVamv1TO2lBASu/hYkkbLCb0oautkCDJGRzmUr7xKDJ2BIXcb6H7zHowvvZi1manTkCCnD1Ezt/BIbfNK+SYDNEGsT5zC9GGMNtm/59l5tsQdky6ymra3A8jc9scRtT2rjr/Rqk3TP/OCbHfQhI+l4Rur+CxGbLerWlvSO5jM2Nuvr2xvMeGEWWshzmGIrHzNe0pKOf2rL+RRbHg32ch97Hg+7HFfz6z6sxkDtY4P4Rs71S4/hUfD2E/94W3DccF0XV5hnJ4rTD+IU4Sr+HNxGuuANkHeDttP5Z4DW/mf4iPfS8LT8XpgzRKTrALANQmaun18kj1H9rBLgBQT/HIDnYBgNp8iMaKXGW7YYxGPo2SKygFAKraRCmdX6MPxmg8KKEWWO96+83SweOmCkBF82EDkZu5VUwML1T0XW+IAGAYGtQzf64E6wNS8Bu4n0i9NkNHr3Xm+pIKGFofZ5GvFjNr73wbuhgG/ZgZYxs2z4B2cQbV9WERhob+XP9G2BexCNteMVcD+8M1rPoGrg+4hjaY28/aRRdnc22YHw96z9dWGDA0FWeLcp3EMXbi3G8bb6/zpcdq84wBrX/h698Yty10G+IS37aFH5PmrGwcp55QIpx/Q4mvf0WFO5dEaG+oY1O83pttrygJV4Og9vrbEKG9ocXznhVeXMcQpssZrRUDdu6mZcsaQ+5jkffj+fOZVac62EDvhmqvaP+GHQ9xfu7bhuOC6PrsbsDr6Pem+be+aufwuimqCiiVNkaTCSaTEdoVAGji8RqRE1VVodRHmLQrVuCkac0OG9UVACoG7/tfsVqnmkAiseSWnwVnRMqGdnRi58Ka2H1UQXuaH8u6uWdhjRsPUFMBKHW0R06ZEdoVqw9qj+wOFqwXAJCtoN4eucpsZr9ZjvBqRQGgoPJGCQsnjG2ck4fEykEiK3ZOkmIWkvt+1F9j9mRklaKd56SMcrkIRQYADZfud0V9YF29Rcqi6JQtOnlRZChl3y9WYeu1GVofGqTZa5y6tctIb87m8GLaXqXoboMEwEA/4ENVuDYI5IUR6jOBem2GAUiyYte9pH8F90VcQrdXgGEYkLJFlBXZ+kCqWb+AFrPWfjauPKWt8u422OU8yzn0HlTN+pVzut+csWP0ETB0Qo4dQTHut82318Twog8D7n3s9LGzDNsllm0TbENcwmxbKjd93npOhjItb908Mz1ExqQ+sMp6zn1lFK1/FI1ge0OffwXrBUL2b+xCnksg3t7Qx6ZQvVvQXiEB7V3UhtDtjfE9NgzBsR76GIrAWs4oQban+iRTMqSgsWALu4/Dvx/ruNQAyK7PRuUyikoWdt50i2CfOcK0N0r/hhoPQp/7RG3HcUF0XXY34BXW/hdRdZLTt/P2gy/hldEsYf03z1fk/lrFXmJoBTb2cfSqldq8PxIOCc0odbzlDtIodbx+BOyns+5SO2yM9qlqBa/Oj13LDPdxdPIW6gqA5uOIs7H2cXxygmPP2sXZftuEo5NzTCbnOFm8PjI+pokrSJil8DJguO9HksRBLocDz/zmJFJ359/yTNP6pCJnXFPCkylkshKAK5iez0nh652xPwg4r0mmsLT4UiZ0zbDqLLimxyOJVO4QWWn+g5plk20Q7bMI7CUC9kfWaf9eeSqOsi9iEqq9gqQsDt2fHqUsMikgmQw+MKRs0duGgwxkAIamz65+an0Sh+JZKpZEKmeV1eY+WWLjYyf+/bbh9tozBrz7GHYf+5dbxLRtQm2ISzzbFn5MmhgO7LKecx8iLS+LJur5N4x4+jeKMOeSaO0Nc2yK13uz7Y0g1PtFlPYKCNWGOMR5DNl1S/Ks3mQK1iQv91hwC7mPBd+PoWnQXUG2ZOoAuYOIP956rGpvxP4NMR74uY9ocxjwugaVVzefpEm5750Z5L8fxdGJd9bT3O38ePo/RMrG430MVACVVzHfu/uw4n59RI4pjjuo5vPeWWsr8oBtO3PYtS4bfdaHAQP9M/sy0qpm/Qp11kKrFTT9OiRTR69r/w/nFpAzwfnAol26ls+YOgZ9A8Aeku73Vfu5MPVOBVwGOZUro1zOzT2+mp3QP6BOIAlrUwI+eASUj96GCH0mSL4bslWi+yImodsrQJK9+Yv89/325jp9D5L7F2Xn6qfQoLr7q9VCy8lzcWXOfynY8NgBYt5vm27vlbV0IvQ+jmPbRNsQl41vW4QxKUlY8BXzGkQ8/4a18f6NZvW5xCba3oB+Czw2Beu98fYKCn0ci7ZXQOg2bFyMx5CznNHzXmnXuWhZY0A7gvax//3Xf38mhZxizSrrq2dotbroDYfB/zuKle2N1r9hxgM/9xFtDgNeRH7jBvLpEpqqO4MXLWXnu9HCJHpJZexfvfo4c948z+wvW/4PDSL17jKRPosL98XtdMv2m/OrdigxbZtQG+IS07aFt+NX773x/hUUV3tvW71xuW3t3QLWckbA6J95giFWLGTxssaNS+VQKBftZYwGtH4f6lkL3bVyv20Bfu4j2hgGvLZc53Hf/1BsRPJyiZSNLsQMrcBli2OM+gCQRTpwmtnyejuParBSgzl51+yblcTr1koeFKzcBlkJ1jRta629IrtzBETLCaAP7Hw3WXdemLKdf2GuMPoGIHl+EpYgZ4tz+cOE6o1T0JT06WyJ9X9pW0mgz+KyNftiTfplTMEMZxncXnK6RCC55z62Am5zV7LavE3st9j6LIDzq3aYpT6b2LYgIm1YZN0+i75t87MJZkTGpD1rxzDg3xJrWeSmLGuvLdL5d3m90fv3GsydS+Jr70bqvcb2xuW2tddr+VgHoh5DyzhL+RZbvKwxDklrGWOhjHK5iKyEueT2XiH6TMTG+5ef+4g2iQGvLeHk3mo+dgJFY3SqrisxPmPuZazE86ftzoLA2RGslFpNlKruMmN0qnYy+4Dljqvrncmm702XZY47DVQfbm5JY6eaRyKRR3U+Whe7K88vNc4b8mbsJfemH3hNfYjeYP6LkZNDJnN4iOI0wWcBuSWRtjD1xsPJ16BB7bk/vFmXiu4b1/NLW5Q+i8vN7Qsx88sBTOg915Wf1ub6tGzq0yTn7mUCe5KVCPyip2/2w3UEYfZb/H0WQuqulQ+of4bu0HfMDXuBX2DCbJsQgTbE3Wci27ZnRaig6Yu/aIYfk85yHA0DZ4NNHcOuM4NjfavbG+38u7reGZH+jc/qc4kjrvaK1Xvz7Y3LrWvvyrEe7RhayZXncBoEcd0Uecmyxk0yh+j1htB9eadSdsJ478VmLKv7TERM/cvPfUQb9dyTJ09+7n5Alncjavtx4xv4Tu0D/8MzypfxVX8y+s638Wbp3E5a/0fIB84OCm/cyCNds66eeOKOvHSqSJSaUOoj19UBO6gmSpgLqSgKYF+R8fx4315uVwOc+/667Ptz//O2sbfDL1SfAYBSQfv8ZC7gFaZeZ78t4unbBfU5vO11uNqt1DGKPd+Zl95rQb3Kolg4QNK+7HF/T1nrFyNz2MVZf/EXPFkpw6l+WVlJkpE5zE0Tfy4rC1+9gI5eS4Umr7ct8+x6/Q8DgCRDKbhzTwi0Qe8tzYMgZYvTqwYt6wd/n0Wp19uPszqCyi7iqUOgDSJE2rtwv0kSYF8BqnCQtKfs9wHnvr8u+77zP5f2w9x+t4+vhcXjH79L27uoDd4i830GxNZeYNn4kZAtzmahCm3bwjotc2NyYXlvG4T6bGGdlsjHm2NB/d5tExiT9rHhLyrJMqBp2Atqg4hQ7V3Qvwg6/9pC1CvUvwvqc8yNnZCWtsF3XC0t62+vwLEpUu/SstfUXhEi7xdC7RUYDyJtiGRBW9Y+hlbxvS/6Ods9a0fIfSz4frzoHGWRoQTlfxPps1XtBYT6V2Q8LBuTc5/7BGyqDVjjuCC6Lnfu3IFhGJzhtT2OcDKqo6I49xVU6m2Mzt/A7V5IF9HRCUbtCpRpfwQ5wsmojfqs0wAoUCptjIKCXQhX7/7xOUb1CmZF7Drbdddj6zjCqxXF2sdvrH+xATH+GV2bydOSPCigmJUxm3gtWZc7VrKuxyxJ+4pOsL8TuhmGBvWsN50aLlJvfFLIFRVkPde4ttsR5YNiBCJ9Fpft2BciUsgV3ZcmlyBnFRQLs76MIpnKICtL3v0gLVpmkMRBwbo8+U31kdh+i6fPhKVydj4W7zEnZw89S67Ftk1QyDbE1WeRti2VQ1GR584RXgJjMnmAgpKd1SdJkJUiCpmVrwwnVHsjnH9D1BupfzdM5FwSV3tF6t2G9sbltrV3KsRYj3QMreDMPgqY1AcASKasvjSCplhtUvIAh3Pbb29bULALYftMxOb7F+DnPqJN2tkZXkS0jZzZBTKUov/XKRPD3hn6mv/X32cd+4yIiIjo2cDPfUSbwBleRHQDZjPKTF/2BNO8gqHB+gXJSotDAPuMiIiI6JnBz31Em8QZXkR0jZbnjwG4zn8e+4yIiIjo2cDPfUSb4MzwYsCLiK6ZdfWawZXhyR8mSTLkTAYHUbJw7jz2GREREdGzgZ/7iNbFgBcREREREREREe0U5vAiIiIiIiIiIqKdxIAXERERERERERHtFAa8iIiIiIiIiIhopzDg9Qz5uPENvJl4DSfVn/ifugEdVPNVdPwP05zxj/NI/OsE8t9lbxHtNp4XiYiIiIg2hQGvZ8aHGJ5+AAB42uxh6H/6Wo3RyJfQVAGM/c/tts53E0j86wQSdvDKf3/eGO13VQCA2nvML8JEITmB4urf+J+5Xv5j3H/fYwxAbaKUYNCLiIiIiGhdDHg9M17Ewf2XAAAvVHI48D8d0ceNb+Ak8W2hAFqnmkZNVVAfneBo3//sbrv3y4r/IQCA8sv3/A/Z9lH6jPUaJfcqjvxPPzPGaPyBHSj4g8bWx0nHP84j/68ZtCDBY37/CCejOhQ0Uapy9BARERERrYMBr2fI88d/hG9Ovo/qyWf9T0X28eADPPU/uEynilITUOpv4fgZC3a5OV92F30Zdtv/rXNM/nSC8688u+Eu/F0bp5dAJVcBLk/R/jt/ge3y/kcqrHl5RJbQx/z+Md6qK0CzBMa8iIiIiIiiY8CLrtEYjYdNQKnjrWc52kXCxv/1FCoqePUrr6ICFaf/ddvneBFFt3/8BioAmg+3fzYjEREREdG2YsBrS1gJ5b+B8zHwcePbOEm8hjcTr+HN/LdxPveN5yf4QeI1nDQ+BPAhzqtWMnorIf0P8XFAWef5NxOv4c0FSetnbfgQw2Vt6Hx7WtdpEwDOcer7H1bbfDqPUFMB5X4Ji8Jd40YeiUQejfEYnUYV+UQCiUQCiXwVDV8/WGUT87MgOlUkEgnknReMG8jb5TpV6zWJfANjjNGw7+fnKonH/i9nA+9nf9nfIx1U/7W9hM+5BeX8mRqj8+Mq8q7y+e820Fl3JtTfddD4bt5b7x9U5+q18iXl0fg7Xzv+oIrGum1w8pjlXsUR7iFzF1DfbQcEAqw+y/94bAVXv2vlcHL6Ylr+7xrI27mdOk6ZP7DHg31//gIBIfr3b6rT50o9AGii5NuHVtscIds7NUYnln1h1etu5+yWX/Ca5UTasDDXlt2f0z6LtN8UZH4ZGK9og8W/j/PIf7cTsB/E9lv4Y97tCK/XFUCt4ZF/k4iIiIiIKBQGvLZM/8Fr+E7tfLZMUD3H22krEDZn8BP8IPE1vN20ktEDwNPm9/CdBQGtcD5A/8HXcDrXBrE8XUE6j5sAFNwvLfuiBwAqTh+kUao1Z8vC1CZq6fVyIvUf5lFq2jWqp3hUfYCafV9tPpwLqMXin55YyxN/y+4D+/7JP/UXFNP5bhqlx67+AqD2aii11+mxMRr/voRaz7s8T71sovTNoH2h4vTf+9px2UQtsKwAezmjtSTMzmm2bFnjR21U/3Uatd6s1WqvhrQvGNL/UR4lp8zlKR5998H0NWrvoScoEk//2kK1d4zGH6RRCtwXQUGpsPtiVu/mhW2DGJH9BgCn/z6P9Fwb5vtsfh+rUHslpBfljAu136If8/ul+1AANB+v01tERERERM8uBry2ygd4qgIvVL6Or06+j29OvoX79ZesIFR7fsbU0+b30MdLeKX9LXxz8n18c/R1ZAHAcxXGz+JLk+9bz0/s51eYa0MFAM4xcL53Hf2eXd/37efyuD/9H9atevyip05gjFEfgHIfK+NdAFQVUCptjCYTTCYjtCsA0MQ63/1UVYVSH2HSrgBQ0WyqqLQnGNUVACoG7/tfcZOOcPKnE0z+dILJn7ZR8T/t0cHjHoBcHaPpayYY/Zs6Kr/sLysoVUH934ymdU7+dIR2Dta+8M/IAaBeAkqubbdjedmwrOWMCu7/M2vg7P+z+1CWLGtUezU0ocza/abdf76rXKqXKpRXR5j8G3s89FRU/s0Eo1ft8fCRUzJk/9qBjMmfTuztrqDtKu8JeriEae/4xw9QuwRwt472m+59YbW1FhB4C7Uv/ubRtN7ptjn/HxW0//Qcx/8fV3lBodogKPx+AwDVKu9ug13OM37+pmrNypuWc/XvZQ2PAtobZr+t5f9p745C28jSfdH/O3qYfR8c3YeQJm2LhqsT4eujh0wzjVIghs0Gj9WIYZvBmJ6nQKB2lGbw2Zom9EvHXJK8DKFbHNF0K1MQyNMEYxpvmiLyMWw2B0FF9NA7D9o6Rrm1TxpZ3cTkRdZT90XMfVhVUlWpZFWVVLYs/39giKSl0ldrlSquz2t9Fc9iXQJQa7gn3IiIiIiI6FhMeE2Zy4XPkSu9j0uAuLPixhqSAA63vnUsVYSRaPoT0hkjuRR/H0vHZ0a8kT+2x7CaBgAcNgaTbt69RF0DkEwMXc5oI6uolDJG2zgyq2LHao0xLv2ctcOkAu5kgHjCSxrwDKhuQX3R75/4tQ2UPhin0H0cGzdL2LhmHbE4Mu8dc5ClVFRuWsbNaFv7Mei4GcsZF9aRNRMvb2exPnRZI/qJGjPutzNYTTnbiCTPE2sCaqGAO9cGl6D1TLx/TaPiNfoAMtS7G8j0ElBxZG4+QWFhSJLFw1joP9YAAPJvN/rfy7czuLMqAaihMTBzzCcPMfjmc9yk1YY9hg9EfSzr8VP+ThH922tntL1p1NL6bqB3PYzbuOJIJAFodUxVLp6IiIiI6IxgwmvKXE44Z0bN4/Kwm3rJKSw6nlosPcVm9w8Dz/uRXJ3cXRyDklcnkUiwc9YOcz4+uzIo3ZYhQUP+qwQit9LIPZtA/S6IGl65+476Tl8pzlY98nsTHjdzOeOvrGMVR2JeLGdzXdaYWoUziszNLrqPSrbn7dscfNwXYv/CS7wvUT9wb9frC5fklJexMJNEynfWGmdlPNzRACSRGGN2FzzG4JdznJyPnQZrZYk6cH06Gi241lyL3MpCAYCWyywrl/FwO86IiIiIiOh0MOFFNAuulVB51BDL7BY0KDt5ZDfdinj78LqI9GYWykEY9Z28EcsZAW0nYUtEiKLww5c1TlwY/TsNrt0xZojlkTD7d9NI8rgkdIiIiIiIiM4KJrymnf4tahqA5DvGEsNp1MSbkXmHq1g6oXo05R2xTOv8iYtldndF/aHCgnsRb6/Kah4aAGnVWteoa9ROOgnmUr7hhi9rDIPf/h2cdTUWt2WLvdlJAWdjGTW8pAXrNFIJ8moD3Zunm+4qfxfS99iYNYh5c3m1MUvOWsfM+XPXsuTzxJh1D5dw1fkSERERERGNxITX1LHUydK/xdc3/oLDKVlm6ObSkllU363GmJVZj2YL6oQyFGbtLWXHXI6lo5yz3IlxAsq5NCKRCNK5wVTD1HhdRO5xEeXX1o417mY4UMTbv+SVq72Lff1FEblvhi9pnCgzMZFSBxMQZmH4YcsaJylA/169YhZGL08gIWfWhlKQfWzdno7yY6OYfcDZWGbtqk//6QkavWL4FZRciuuHZXBZpY7yY8udGMdmGYHXZRT/LBK51uWWV6+I4vQ3Hpehh308eaWr2PJT95CIiIiIiGyY8JoytewfcS/yofhJfCZmd8kf43dBrmYBoPxFf3uRz1ADAOWz3nOl4jiF6IFLiRgA4DD/Gb7sfY77dkXheQ1bk8p4ZVbFXdGUPBKRCCKRhEh2ScOKnvlVxo6RPNOUByhOKGxPXuQG6whVs73n0s/swdSqeWQ37cv+Ejui0PnqNVtTz0TSBlC+6m838VUeyoGzZUh+rA8kJqz6SaXwB8Zv/5pJHG0n218q6DJuXmVumncAtG4vIZJCC6LYehCiDxVkNxNIbPbjjNyKIH0/N7k6Zce5ZnyPe8sqzf2azPfYevxGNrNGglBFyTJu8Q9E8X+tmh3oh8itCHIud2kMm66K5bxh1DMkIiIiIjoPmPCaZtK7SBY+xkel6ZzdBQDI/AEfqenhhfWtMndQkAAt/9BlaVYQGZQaBci9z5YgF1Q0KuLOauPLoKROZkuhensDT27LkGyFuCVIKRWNMQpoxz+ooLEqoz+0xjZvFyzPhcecfeSWUAKA+HvrkABoP4Z8D7sg/XuthMbAe8aRQemeikLKvvRQSqlo3B0Sgwdx446FAAZi1Q4UZDdzE/quHieD0r0C5N7nS5BXVTTujvc9jr/3KQopyb5fC8OWa8axcbcBNSWdyLE9mg51S+vdSZaIiIiIiPx769WrV3+zPhGLiRk7dLLeFD/Bl/nvkVSfBp/NdRaUc4hkFUiFBiob079QRy/ncCOrQIMMtRs8sUA0fXQU7yeQP5Ch3ishY6sBpqP4OIF8FZBvd22zoSh8ejGNRF6DrHZR4kmHiIiIiMiXCxcuoN1uc4YXnbBMCaoMaPkbJ7tE0KdyLoJIJIJEVhHLilQmu2jWvETdWJ7qvJWE/vol6lUAkLB0xfYShU0v4kZeA2SVyS4iIiIiojEw4UUnLlNSIUNDPpFDeYqTXgAgSTLUBmdZ0Cy6iqUFAFCQd9Yn2xR146TVJ9gIcvdHCkYvI5fIQ5MKaPCkQ0REREQ0Fia86BRkUOqqovbWlK5qzJS66Ha7qFRKyExpjETjsdStctTvkhZkFG43UDnBuzWScT6UZKiVjWk9NRIRERERnRms4UVERERERERERDOBNbyIiIiIiIiIiGgmMeFFREREREREREQzhQkvIiIiIiIiIiKaKUx4ERERERERERHRTGHRegDQ/wWlxF9waHsyjfXuH7Boe46IiIiIiIiIiKYVi9YTEREREREREdFMYsILAOL/iFz3KTa7T/FR4V3nq0REREREREREdIYw4UVERERERERERDNlxhNeP2C/+AVKkQ9xz/gp5f4F+7qznV8/YD/3iW2799JfYF//wdkwUAzlXBqRSBq5svMVIiIiIiIiIiIaZYYTXj+gkv4jtvIVWzH6Q+Uv2Ep8gX3Lc/58i68jf8SW8r29yL1WwVbia8d2g8RQxo6iAdCgPCjimLwYERERERERERG5mNmE15vif8e/agDwLv5B/Ryb3afYbHyMJACggq3ct863eFOuogYAeBdJVdT92uw+xUeNj5GU7He4DBZDBquyBECC/GkWcefLRERERERERER0rBlNeP2A/a3vAQCXC/8N6cw74un4+/i1WZS+9gPeWN7h3/eoPegvTbwUfx+/q/wjFnuvB48hU6qg262glGG6i4iIiIiIiIjIr7devXr1N+sTsZh9ltLZ9C2+jnxmzMQaJo317h8sCSrhTfETfJn/fujr5jJFMXOr77L8e/z9nX/EYi9HFTwGIiIiIiIiIiLy78KFC2i327M6wytM7yBd+Rwfqb9HUuo/K+pyfYKvWWieiIiIiIiIiOhUzegMr/4srMuFz5HbMJYTejB6hpfTD3hT/Bpf5iviofwxNkvvjxUDERERERERERH5N+MzvN7B4rqok3WY/+/4uvyDs0Fgb4pfoJT7Fm96t098B5eyMVy2NxsrhnIujUgkjRxnixERERERERER+TajM7wgamilP0PNUWvLZJ111Z/VNYT0e3xU+UdcGtn2XfxD409IW+t4eYyhr4xcJAsFAKQCGpUN3qmRiIiIiIiIiMiDGZ/hBQDv43eVz7Euv+sy+yq4Sxv/DeuFNC5b6ncB7+Ky/Hus25JdCBhDBquyBECC/GmWyS4iIiIiIiIiIp9meIYXERERERERERGdJ+dghhcREREREREREZ1HTHgREREREREREdFMYcKLiIiIiIiIiIhmChNeREREREREREQ0U5jwIiIiIiIiIiKimcKEFxERERERERERzRQmvIiIiIiIiIiIaKYw4XWOvCl+gnuRD1HKfet86RSUkUvnUHY+TQP0Z2lEbkWQfszeIqJpwvM4EREREU0vJrzOjR+wv/U9AOBQqWLf+fKJ0lFMZ6FoAHTna7Ot/DiCyK0IIkbyyvl4kA71rxoAQKvu8MKSaEaZie3cC+crJ8t5TnI+ttEBaAqyESa9iIiIiGj6MOF1bryDxfV3AQCX5RQWnS8H9Kb4CUqRL3wl0Mq5BPKahEKjhEzc+epsu3pFcj4FAJCuXHU+ZYgj+yvxHim1iozz5TNMf5ZG+tasXijrKN43EgX3i1Of153tsSA/fJ2j4hmUGgVIUJDN8eghIiIiounChNc5cmnjT9jsPkWu9L7zpcDe1L/HofPJ45RzyCqAVHiCjXOW7LIyLx6HXVxaxT+ooPuoi8rNWUp3AS9/1CDmrs2g1yq2DgA5JQMHW1BfOxtMl5keCwrE8zkqvoEnBQlQsmDOi4iIiIimCRNedIJ0FB8ogFTAk/Oc7aKZp3+3BQ0yVm+uQoaGre+mfY4XUXDxjU8hA1AeTP9sRiIiIiI6P5jwmhKioPwnqOjAm+IXKEU+xL3Ih7iX/gKVgSuIb/F15EOUij8A+AGVnChGLwrS/wveuLQ1X78X+RD3hhSt78fwA/aPi6H8RW9bWwoAVLDl+AwRm0P5IfIaIK1nMSzdpRfTiETSKOo6ysUc0pEIIpEIIukcio5+EG0jg7MKyjlEIhGkzTfoRaSNduWceE8kXYQOHUXjcXpgI+GIX0m6Pk5ecfZIGblbxpI488ethk6PjvKzHNKW9unHRZTHmFkkagqlUXzt2Pb9HIqu29VRfpy2x3A/Z4/hRa73WrYKAAqyjv1MPxs44L17XUZxVAyB9s0Po+5aahUZXMXSAqD9VXVJBIgxFvuro/hY1HAyx67X/nURaaO2U9lsc984fo3Hgzc08HA8+B4Lj/H2eDgeAo2F2K41zv5Pesh7jucnhqG1toz+7PVZoHGTsHQF0EfEIDjHOI3047LLOPgbN+/nKKsM7hQkQMvjoXOXiIiIiIhOCRNeU6Z240N8ma/0lwlqFfxrQiTCBtS/xdeRP+JfFVGMHgAOlb/gyyEJLW++R+3GH7E1EIO/Ol1uyjsKAAnr2eMunABAw9aNBLJ5pb/MSlOQT4xXY6j2II2sYmxR28LD3A3kjcea8mAgoRaKayWxPPEDow+Mx6Vrzob+lB8nkN2x9BcArZpHVh2nxyDG4s+ObR8oyG86x0JH8X4C2ap9aZx2oCC7GSwJ4Z+O4p+zyLvG4IwXPvbNJ2M5o1gSZtRgO25Z448qcrcSyFf7UWvVPBKOZEjtmzSyZpuDLTx8fKP3Hq36wNbH4R0PXuP1ezx4HYv+difPawz++Bk3ANj6cxqJgRgG+2xwjDVo1SwSw2rGeRq34OeoeHYdEgBlZ5zeIiIiIiKaHCa8psr3ONSAy/LH+Kj7FJvdz7FeeFckodTBGVOHyl9Qw7v4B/VzbHafYrPxMZIAYLsL4/v4XfepeL1rvD7CQAwyAFRQN69jMn8wtvfUeC2N9d5niJ/cxju2bQI6GjUA0jpG5rsAaBogySoa3S663QZUGQAUjHMtpWkapEIDXVUGoEFRNMhqF42CBEBD/aXzHacpg9KjLrqPuug+UiE7X7YpY6cKIFVAo/eeLhq3C5CvONv6px0AUko1tt2AmoIYC8sMF/3ZDeQPACwUoN4zY2hATYm+zZuJFuPiufuoa2xHhmqJ2XahHcS8jMLthmV77vGavOybX2I5o4T198R+xN9bh3TMskatmocCqR/3PWO8HXfl1A40SKsNdG8bx29Vg3y7i8aqcfz+aLb0eDwEHAsv8Xo+Hiw8jcWLh73t9vbN/HzIUB9VsPG2pb1PnmLwyfu4AYAm2ltjMNrZjp8XOTErr9fO0r8HeTx0idfLuI0lnsW6BKDWcE+4ERERERGdMCa8pszlwufIld7HJUDcWXFjDUkAh1vfOpYqwkg0/QnpjJFcir+PpeMzI97IH9tjWE0DAA4bg0k3716irgFIJoYuZ7SRVVRKGaNtHJlVsWO1xhiXUs7aYVIBdzJAPOElDXgGVLegvuj3T/zaBkofTKDQfUpF5aZlLN4zxuJH87OMJXyQod7dQKaXcIgjc/MJCgsTvKg+VhwbN0vYuGY9wvrxuhq5b34ZfbGwjqzZD29nsT50WSP6iRoz7rczWE0524gkzxNrAmqhgDvXBpeg9YR1PIyMN+Dx4GEs9B9rAAD5txv988jbGdxZlQDU0BiYOeaThxh88zlu0mrDHsMHoj6W9fgpf6eI/u21M9reNGppfTfQux7GbVxxJJIAtDqm6m8HRERERHRuMeE1ZS4nnDOj5nF52E2y5BQWHU8tlp5is/uHgef9SK5O7i6OQcmrk7gwt3PWDnM+PrsyKN2WIUFD/qsEIrfSyD0br36XlfzeqLF4ifoBjJpVTnEk5jGZZIQXr8vI3XfUd/pKcbbqGb1vPpnLGX9lPbaMPhi2rNGl3zI3u+g+Ktmet29z8HFfuMfD6HiDHQ9exsJMEinfWWuclfFwRwOQRGKM2V3wGINfznFyPnYarJUl6sD16Wi04FpzLXIrCwUAWi6zrFzGw+04IyIiIiKaFUx4Ec2CayVUHjXEsrUFDcpOHtlNt6LYM+x1EenNLJSDMOo7eSOWMwLaTsKWiBBF4Ycva5y4WT0ert0xZojlkTD7d9NI8rgkdIiIiIiI6Pxiwmva6d+ipgFIvmMsMZxGTbwZeR1/FUsnVN+lvCOWPZ0/cbFs7a6o51NYcC+KHRq3ZWq92SjDZt8MzvQJqqzmoQGQVq11jbpG7aSTYC7lG274ssYw+D0eJjcWQNDjYQSjhpe0YJ32KkFebaB783TTXeXvQjrvGLMGMW8uBzdmyVnrmDl/7lqWfJ4Ys07jEq46XyIiIiIiOgVMeE0dS50s/Vt8feMvOJySZYZuLi2ZRfXdaoxZmfVdtqBO6IrfrL2l7JjLm3SUc5Y7MU5AOZdGJBJBOjd46T41XheRe1xE+bW1Y427Aw4UxQ6DWQtIQfZx2ZLQ0VF+bBQvd5l9c/WKWYzb+p7xJa9c7V3s6y+KyH0zfEnjRJmJiZQ6mIAwC8MPW9Y4SQGOh8mORbDjwQuzdtWn//QEjV4x/ApKLsX1wzK4rFJH+bHlToxjs4zA6zKKfxaJXOtyy6tXRHH6G4/L0MM+nrzSVWz5qdNIRERERBQyJrymTC37R9yLfCh+Ep+J2V3yx/hdkKtDACh/0d9e5DPUAED5rPdcqThOIXrgUiIGADjMf4Yve5/jvl1ReF7D1qQyXplVcZcxJY9EJIJIJCGSXdKwomd+lbFjJM805QGKEwrbkxe5wbo81WzvufQzezC1ah7ZTfsyusSOKBy+es3WNBSZm+Yd37L9pWa3EiIJsCCKazuZiQNtx/qewX3zSiRtAOWrfj8kvspDOXC2DMmP9YHEhFU/qRRs//zwezxMeiyCHA9eiD5UkN1MILHZjzNyK4L0/dzk6pQd55px3uktqzT3azLnHevxG9nMGglCFSXLuMU/EMX/tWp2oB8ityLIudylMWy6KpbzhlF/kYiIiIgoCCa8ppn0LpKFj/FRaTpndwEAMn/AR2p6eGF9q8wdFCRAyz90WeoURAalRgFy77MlyAUVjYq4U9n4Miipk9lSqN7ewJPbMiRbYWsJUkpF48QKUmdQuqeikLIvNZNSKhp3h8RwrYTGQNzBxT+ooLEqox+B8fm3C5bnwmPOPnJLKAFA/L11SAC0H0O+h12Q42HCYxHoePAgbtyxEMBArNqBguxmbkLnluNkULpXgNz7fAnyqorG3fHOO/H3PkUhJdn3a2HYcs04Nu42oKakEzm2R9Ohbmm9O98SEREREU2Dt169evU36xOxmJixQyfrTfETfJn/Hkn1afDZXGdBOYdIVoFUaKCyMf0LX/RyDjeyCjTIULvBL9SJaFw6ivcTyB/IUO+VkLHVANNRfJxAvgrIt7u22VAUPr2YRiKvQVa7KPEkSURERESn7MKFC2i325zhRScsU4IqA1r+xskuEfSpnIsgEokgkVXEMh2VyS6i0/USdWN5qvPWF/rrl6hXAUDC0hXbSxQ2vYgbeQ2QVSa7iIiIiGiqMOFFJy5TUiFDQz6RQ3mKk14AIEky1AZnLRCdvqtYWgAABXlnfbJNUedOWn2CjSB3f6Rg9DJyiTw0qYAGT5JERERENGWY8KJTkEGpq4raW1O6qjFT6qLb7aJSKSEzpTESnS+WulWO+l3SgozC7QYqJ3i3RjLO35IMtbIxradyIiIiIjrHWMOLiIiIiIiIiIhmAmt4ERERERERERHRTGLCi4iIiIiIiIiIZgoTXkRERERERERENFOY8CIiIiIiIiIiopnChBcREREREREREc0UJryIiIiIiIiIiGimMOFFREREREREREQzhQkvIiIiIiIiIiKaKUx4ERERERERERHRTGHCi4iIiIiIiIiIZgoTXkRERERERERENFOY8CIiIiIiIiIiopnChBcREREREREREc0UJryIiIiIiIiIiGimMOFFREREREREREQzhQkvIiIiIiIiIiKaKUx4ERERERERERHRTGHCi4iIiIiIiIiIZgoTXkRERERERERENFOY8CIiIiIiIiIiopnChBcREREREREREc0UJryIiIiIiIiIiGimMOFFREREREREREQzhQkvIiIiIiIiIiKaKUx4ERERERERERHRTGHCi4iIiIiIiIiIZgoTXudIZ38P29vb2Ku2nC8RTT0ev0TnC7/zRERERDSOyD//8z//P9YnotGo9SHNjA7+97//Bw5/An46egvRpQVcdDaZaS1Ut/8HntfrqJs/nSiWFs5+L3T29/DNv/07OtElnNbuhB/DeT9+KUzhH78edPax982/4T8vxBC/9Avnq8GFtV1fgpx/+Z0nIiIiomDeeust/PTTT/5neHX297C9t4+O8bhV3bY99qeF6vaw93ewvzfsNfJvDvMxkcyMxhYw73x5ynT297C3XQX/rk/CNBy/xjlp6DlruvA7RGfbNHzniYiIiOgs853wOmq3gYtzmAMAdNA5guUxTbO5xWWsra1hOTX9lw5H7TbazifHMo/U2hrW1tawtiYh5nyZpt6pH7+dFpptIBaLAe0mWlOe8Zr8d4goqGDn31P/zhMRERHRmeYz4SUSXNGoubDgCG1eURHROdBpNdFGDAupBcTQRnPaM15ERERERETn2FuvXr36m/WJWMztb68tVLc1NJ1PO8UkrPn6S6yx3WgSK8uLjlliHezv7aIG52sdtPbrqNeavdkL0VgSS0uLmB+YZuZsG0U0toTrqXnHZ4k4jpIrWF4E9qvPUWsa74glcT3ljM0PZwyTiNcPl7EbMk6d/T3s1oDkynXMtSxxRGNIXk9h0RJEv+0y5ltVPB/Zto2YtAbbx7aq2NaaiCZXsLw413t8nF7bsRh9MqQfhPDGwvNx1mlhv15Hs9mfqRONxrB0PWU7dqz9u9Q5fiyMd0x833zH4HHfwjp+/TPORxclrKUuDjk3wfsYd/axt1vDRWkNCwd70JptIJrEyvI8WsZ7ojHJMbPFOW4u5xLf3yGP8fZ00Ko+R33EuPkfC7FdzfhsuyiSK8su7/HIONbM/QKiiCWvI2XZoO/jd2AsRnyHPMRgHhNwnONa1W1oTXHcrwzb/nF8b9fnvvk26vzr8Ttv7Ffb9fcHc/+cx07Y+0ZERERE0+DChQtot9t+Z3idvlZ1F5rlgg8A2s0atPpgpZrBtm20mxp2h9XfabdQ3d61XJSIbe+OcYeowRgmGG8o2mg+d8TRbqK2614LqPl8G7sDbfewf3IBhyLUsfB0nHWw/1xDzZJYAIB2uwnNdSyiOKrvuYzFYNvw9s1rDH73zQ9/x69nxnJGMbvVqC103LJGT2MMHNWNZJdogLol4dRu1m3fo8FxG34u8c1TvCLpp7mOm9t33utY9Lc7cZ197O2KY62vjWbtuUu8Xo9ft7E45jvkKwa7zv5eLym1NsGkzHHb9bVvp2luHrGoGKPB72ELB00AsSVbsvLM7BsRERERTYTHuzRexMLSEpaWoujUDxCV1vCb60tYil1ASz/EZfPxsXdcctNBq36Ao7+7jP8SvwT7/aN+xpv/1HEI62st/K/nBziKJbHym1/jl0tLWFpaQix6AT+/9QssXLJ8fquK//EfR+Kv17+5brSNIdp5g4PDJn623Y1LxHF4dIgjRJGU/h6/vv5LLMWi6OgHOAp8h6iw4vXDHLv++B1FY65j9fOb/4R++BN++gmIxiT8/W+u45dLMUQ7Og6OjvCWJQbRtj3Y9sIbHBy28dP/0b8jmLndaMyxD50W6gdH+LvL/0W0vbhgxLmEaKeOg6MYpLXf4Hov/qUJ3WXMOO6G9EN4Y+HnOPsZb978jMv/VRJtejEcNxY/jRy3sPbNVww+9i2s49evzv/+d/zH4d/h6i//b1z6BfCLX/x/aOlNHFmOc6OltzH++Q3+Uz9E+6efEE2u4Lfxn1E/OMTR0U+ISWuQ/s8W9MM2fnHZjNnjucT3d8hjvAA6+/8TWvMnIJqE9Pe/xvVfWo6dozYOf+7fdc/XWLRe4N/+3yMxw+23xr6Zn48YpLVf4/8K9LXvYP9/amjaYjBivnCEny8uwOwKX8evr++Q9xhgHBMwzofmrLNoTMJvnbOb/PCzXV/7FtSI86/n7/wvcOnvOqgfHNr+vwEAtP4Xnh8cIfZfrwccNyIiIiI6y4LdpbHTwRGi6JfwaqNtfXxSmk20LH/SnZtfRGrR/ot7S/x5F5Ltr9dzmE8tIQageeD8mz1E+7VlLJprc+bmseC2wtOv0OINibGUSsQxh3mjE446g38DjyZX7G0XRbztZuvM/sU8/LHwcpzNYTGV6rcxnjPHwpWHcQt93zzEEGjf/PAUgx8dtJptIBrrL9szZpcMP869jDGAaBLXrVNQokkszQNzc0NOqh7OJcGMitfoA8QgLVuXY89hPnUdySiA5sHATCgvY9HpHImmS5ZlaXPzWEpGARwh+LCJWXn2GCDiWHRbpuhs6x6vr+9QkBjQX2I5uKx1PKO262vfpsH8guv/N62DZu+7ZHvuLO0bEREREY3NU8Krs7+H7e1tbO/W0EYbtd1t8VhrAr3HbktaJm0eKSmGKNqoabvY3t5DdX/fZTmDcfdINKFtG7H2fozaIEedwQtVl1ufz6fWsLaWGnjem5DjDUlswfveXpxzXrFdhOskwTPjBMbC63HWaaG6Z3z3zJ9j6jONHrfw9210DAaf++aH5xi8MpczxuwXynMXhy2n8j7G9m0OPu7zei4JaGS8xg1KXNr1+sIlOeVlLMzkXvPAsqys00K91gZwEQOnGK+OxNJLLzGYRrf1+R0KEAOaz7Fba/eSZBMzcrs+920qGIlR6/ews4960/ldOov7RkRERETj8pTwmirzKSyvrWBFSiIWbaNZq0Hb3cbeGHW2QnXW4qXpYNT9ac7ibVDP2L6JuzMC7dqu7UJZ5OdO8G6Ns3oumV8yZojVsGv2766RhHBNsHljzhw7TYFiiJn9UcdEhzas7Z6yuXmRCDa/h+bdVJeGTZ8jIiIionPDU8JrbnEZa2trWElGIZa+rGFtbQ1STCzBWVlbw9pakLtoGbOB2m0MXhYYMwpczYmlPMtrWFtbgfgDr7XAszHjoBeby4/LXZ3Cc9biHYO5hOfi3Mh4WweDo243OGMkfNMxFq16DW0A0aRkj0NyWxfn1SzvW1jMpXzDOZdThWvUucRpwt8ht2WLvdkzAWdjteqotZ31I6OIJVcG78zngzlzLPhSVjf+vkPBYriIxWVJJDW1Sc6cHrVdf/s2NWzLi43v60Ci9IzuGxERERGNxVPCy3Rky0CZFznjMJfCNFGvWi8aO9jfE3/hty1L6OyjWt1Hy1EPaF7cqgltSzwXo1GgXcPzamuyF3x+nLV4A7EE22mh+lwkM6xLeAaXLHXQqlruTufiosiEotk6yWSCME1jcXHuYu/477T2Ua2Pt+xvlvctFJYaTAMXyGbSf9iyxknycS4xTfY7ZNb0akJznKtb1eeoDV3uOJpZW2np+nWsrJh9u4yU/7+g2Jn1nWq72Nt3xLxfdUn4eOPrOxQ4hnmkliXE0J7wXW+P366vfZsac1hcigHtGur7LTTbUSStxbsMZ3PfiIiIiGgcb7169epv1idiseGzLFrVbWhHSawsL2LOuJV87aK4rXlgnX3s7YokyYBoDNKypebNcW0Rg2Srj2PE594YMWkN/bBbqG5raBq3aJ+Y0OL1oVU9tjZSNLmCZePC0ixoPPBZxjbc2roa6Eejfy3PAACiUaDdtm23Z0jcrm29GLI9k327IY2Fj+Ps2P51xOBn3MLaNz8x+Nk3P+PmJwbPjPcObNPQKwLe27bHMTbODTDf54zR+bm+ziWGIX1n7weP8QLDv8cYPFf7GYvjjodoNIal6ylLkXyfhvQBEEVypT8r2U+8vr9DHmMYOCYsz7WHjbEXvrbrc9+8GtoHgq1//bTtsRybUfN3FKeQ9o2IiIiIps6FCxfQbrf9zPByzug6bsmhD3OLWF6REHMsZ4nGJKxYk10Qba9LMUdRdKPtwMXAHBaXVyDFoji1GupnLd5xRaOIJSWsDFw1zCO1kkSst2NGu2VxdyxX8ymsDPTdSTn9sZhbXMZKMmb5fOO4kZJjxjTL+zZ55uyjYTXHRf0goO02xWqSfJ1LDBP/Ds0jtSIh2f8iDz9X+zBn3NkV4hRi0243oe1WXZZRejSfMmqe2WOOJa8HWIJv8vkdGieGuUUsSzExs25vjH5wGrpdn/s2Nfp3FR1+44ezum9EREREFJSvGV5EpqEzIoiIPDNn3cQgrThncnWwX91FrcnZNzRaq7oNremcsUZERERE51GAGV5EREST1J8p3HFUGut0jtAWa9QQFWUAiVyYNSGBaHKJyS4iIiIi6uEMLwqEM7yIaHzH11XC0JpNdO45a30Nrd1FREREROcNZ3gREdEps9RVchRWikZjSEpMdtEoZh05JruIiIiIyI4zvIiIiIiIiIiIaCZwhhcREREREREREc0kJryIiIiIiIiIiGimMOFFREREREREREQzhQmvMbwpfoJ7kQ9Ryn3rfOkUlJFL51B2Pm0xXfGGZXQ/EBFNgv4sjcitCNKPT++MwxiI6Ozz87ubn7ZERHTeMeEV2A/Y3/oeAHCoVLHvfPlE6Sims1A0ALrzNdM0xRuW4/uh/DiCyK0IIsZFmfMxnR/mBXruhfMVmoSp6N/XRaRvRZB+5nIymAgd6l81AIBW3fF08aW/yCF93zjvGD/j9ZH/GCZvGmIgOnum4jwZIufvWM7HNjoATUE24iGR5actERGde0x4BfYOFtffBQBcllNYdL4c0JviJyhFvvCVkCrnEshrEgqNEjJx56umcOINSxj9cPWK5HwKACBduep4poyc5YLU+TPuL6f6szTSt/iLGvnHY2eaxJH9lTinSKlVZJwvO+jP0kh8pUA7cL4yDu8xhHfseI9htukomsnM+0W3v7lMlfCOByLB++9cAOIZlBoFSFCQzY04Kv20JSKic48JrzFc2vgTNrtPkSu973wpsDf173HofPI45RyyCiAVnmDDJcljFUa8YQmzH8xftob9Mha2lz9qEPMhiPzhsTNd4h9U0H3UReXmqDSPOQtKQuF2A91H3d5P6ZqzrT9eYwjz2PEaw0x7rWLrAJBTMnCwBfW1s8F0CfN4ILLy/DtXfANPChKgZDEyj+WnLRERnWtMeJ1pOooPFEAq4MmoLM9MC6kfUqrtwnRSF6hEdN68RP0AQOpTbFyb4DmKpob+3RY0yFi9uQoZGra+m/Y5XkTTJ77xKWQAyoPRsyT9tCUiovPLc8JLL6YRiaRR1HWUizmkIxFEIhFE0jkUHf/TiLaRwb+6lHOIRCJIm2/Qi0gb7co58Z5IuggdOorG4/TARk7bt/g68iHuWX+GFIEXReI/QUX/AfvFL1Ay26e/QMXaZ+UvetvaUgCggi3HZ5SKP1jeYL7vIfIaIK1nMfwSKoR4bW2BN57afoivnUNp7Hdv30LtByB+Jen6OHnluHcdT9TgSKP4Wkf5WQ5pc+nj/RyK1r/wv8j1lkRmqwCgIOtYKjlYa8ixzVtppB+XXX6xE0swxft1FB+LuiCRWxGkH4/5i+DrMoqP05YYIkjfz6E8xuwFz33Wa+uyjNToz16fGfWaci+Asrn/941zifF4sKC2hKUrgD4iBuEUxyLosTPhcesxjon+56eRG/j8vsn2r8FnDFbWOjLe3uHksuR54NgKm8cYAh07XnmMocc5xuI7MfYx6fEc5ee8458xgy+1igyuYmkB0P6quhxfHs8Pgc5nHvrX9/HgMd4eb+cd/2MhtmuNs/+THvKe4/mJ4bz8PyRiTg/uZ0DBfufK4E5BArQ8Hjq7aoCftkREdF55TngJGrZuJJDNK/2p8JqCfGK8OhC1B2lkFWOL2hYe5m4gbzzWlAcDCbWz5XvUbvwRW/lKf4meVsG/JvzVp3JT3lEASFjPHvfLg1/+4q3d+BBfDrQVibCT4rkfrpXEspsPjHbG4/FnbGnY+nMC2R3L9+JAQX5zvO9F+bFjm9CgVbNIDKsP86OK3K0E8lXLO6p5JAZ+wfZKR/HPWeSr9qUv2oGC7Jj7Flaf1b5JI2vu/8EWHj6+0esPrfpg4CJi689pJAZiGLyAOv2x8ENH8X4CWddxG9w3X14Xkd4Ux0SfBmXnhst2JdS+cevfwTH21b++YrDTn6XFhX5KRfdm5tgE+diMi19xoZmFAgDVrP1i3W3/ZtTgGIvvRFZ1Hg1++D1HhXPeMZcziqVbRk2z45Y1ejw/+DmfhdO/Bk/x+j3veB2L/nYnz2sM/vgZN0zN/0Nl7FQ1cS79Zsj2/Ar4O1c8uw4JgLLjFqedn7ZERHQ++Ux4AZoGSLKKRreLbrcBVQYABeP8X6NpGqRCA11VFv/ZKhpktYtGQQKgof7S+Y7RyjljBtqwn3TQ/9Dfx++6T7HZfYrN7sew//3K3aEGXJY/xkfdp9jsfo51GQAqqJt9lvmDsb2nxmtprPc+Q/zkNt6xbRPQ0agBkNZxfJ4nhHh7vh9sW3hXJM1Ul5lYo4TaDwE4L05vRRAZUuRXOwCklIrGoy66jxpQUxDfC/MvpcYvet1HXeM1GapjqWTvl0KIvxybF+Zim+Z2JeAgj4cuf4HVqnko1hpB91TIADDOndPmZUfNIZd9C2hknwWgHWiQVhvo3jbOJVUN8u0uGqvGueRHW2vR3hqD0c62HOm0x8LnsaM/u4H8AYCFAtR7jnihIR/4AlhH8c95aLCOm9lvbmcWl/51G2Nf/es3hj79WRqJHRFPd6xaUxmUep9rjOuJ8xiDz2PHH48xAMbFNIBUwTJmXTRuFyBfcbb1yec5KozzjljOKGH9PdGX8ffWITnPIxZezw/ez2ce+zfg8eAl3iDnHU9j8eJhb7u9fTM/HzLURxVsvG1p75OnGHzyPm5wP0+eyv9DGaymJAAS5N8eP1s+dPEs1iUAtcbo39P9tCUionPJd8ILsopKyfzLeByZVfFrR60xxn81ztpLUgF3MkA8cfwFzJkhf4xc6X1cAsTdElfTAIDDRoCkUM9L1DUAycTkfzHxEe/lwuf2thtrSAI43PoWb5yNQxFiP/iRUlHpzRiJI/Oe8b34Mdj3ovydIn6Zt81CiSNz06hZ8d3gr6u9X/7NGkFvZ7CacrbxI46NmyVHzaH+vo1twn0GiIuiJ9YLtoUC7lwbXFphklYb9hg+EP1rXY40HWPhlVkcXYZ6dwOZ3oVgHJmbT1BYGHax44Exi8U+bjD6reR+0elhjH31b5AYHMmuEyus/vYGKr0LU+NC01kX8O7G6Z63Tlp1C+qL/tjHr22g9ME44xHgHOXhmPTH+M4trCNrHn9vZ7E+dFkjvJ8ffJ7PJt+/plHxBjzveBgL/ccaAED+reW78nYGd1YlADU0BmaO+eQhBt98jtu0/D+UuVlB91EFpVOvMxhHIglAq2P037v9tCUiovPId8JLXp3EL092ztpLzsdBZEpddLvH/FRO7kIjuTr9d0W08hPv5YRzxtU8Lo+4Ec+Z4bw4fdRF91EJbt8A+T23Z4PS0WjBtb5Kb2lUy+WvmanVgdgyN4fH7MnrMnL3HbVTvlKcrQKZbJ8J0q8c5xLHY6fBWiKi/k7fFI2FJ2Zx9MHPB+JIzCP4ReKPdWg+x210W5/9GyAG/PUGEjta78KWTkMGpdsyJGjIf5Uwaq5NoH4X/J+jfB07XpjLGW3nGuO7NmxZo8v30+384Dx/OR/3hdi/8BJvsPOOl7Ewk0TKd9YaZ2U83NEAJJEYkuT2yksMfjnHyfnYafb+HyIiIpoevhNeRHROGLWSlIN+/Q86v8yZFqcpUAy/+tSYYfJgYsWYKYBrJVQeNcQyuwUNyk4e2U23It4+TME5SixnBLSdhC0RIYrCD1/WOHFh9O80uHbH+P7mkTD7d9NI8rgkdIiIiIisTjThVd4JcLESUHg1vE5CE29GBncVS9NYt0D/FjUNQPIdY5njcPs7TedTDme4H0Ya/Gt3n/EXcWvNEufPCSyFKqtGraRVa82QrlGX5HSVvwvpXGIumZs3l8hOx1jYHXfsGNyWD/VmCQSbFWHOtBhrqc8Af/0bLIar2LiriiTAV4OFoM8XD8dOqOJimd3dLrqPGigsuBfx9ur0z1HmUr7hhi9rDIPf/p3w8RDCeces4SUtWKeOS5BXG2PW4hvf+f5/KExmbdYlXHW+NMBPWyIiOo9CSXiZtbeUHTOppKOcs9yJkYa6tGQWfR9VA8usW7AF9eR+m3Zhqeulf4uvb/wFh45lkZcSMQBAbedfjH36Afu5T7ClfN9r43T2+sG7q1fMgrRutxMXrl4RhWhvPC5Dn+QFSQDJK1d7v0jrL4rIfTN8udCkDS5nEbenn9wduywj8LrcK4huXeYyTWMx+tgxa7QoyNpuV6+j/NgoKh10VsS1VVFXZieB9DPHtp/ljrmoPp6v/g0cQwaluypkaK53PzsPRh87IXpdRO5xEeXX1k827mY4UMTbv1M7R1lqyg0kIMzC8MOWNU5SgP6d7PEQ3nnHrF316T89QaNXDL+Ckktx/bCcl/+Hyo/TYjnsac+E1VVsaR5rs/ppS0RE51IoCS9kxEUJlDwSkQgikYRIdkknV9wptBpe5S9wL/Kh8fMZagCgfNZ7rlQcLOzuh5kcOsx/hi97n+O+XXHDAA1bx2V6Qo63lv1jf/uJz8TsLvlj/M76m20mJe4OqfzF2Kc/imSX9K6lkd3E+yEI17s0Rsb+ZdD85VnbyfaXaNyKIP2sH3/8A1HoV6tmkdicfAxeiAsiQPmqv1Qn8VUeyoGzZYiMBEd/OYtxe3rbX/uDs+5bZDNrXJipttumT8NYmLwcO5mb5p24rG3MfhNFj4MRdYIw8PkJZMeYveuvf8eJIYPSvYKoc7TpfrdVT17kLPEZS6ss5wrrWIQmQAxejh1ffMZQq+aR3bQv+0vsaABkrFq+b36c+jlqRE25flIpYB/74Ld/J308hHXeEX2oILuZGDg/pO/nJlen7Djn4v+hMnaqGgANyjenuwJCV8UyYS81g/20JSKi8ymchBcyKDUKkHu/C0iQCyoaFXE3GTpG5g/4SE17K/yeuYOCBGj5h8Ev3iZJehfJwsf4qOQsev8+ftf4PZK9fTLaVcQdHV2d5X4Y5VoJjdsyJFtRWqc4Nu6KW4576YIwxD+ooLEqWz5fErdOv104wZhEkkLu9ZUEeVVF4+5455L4e5+ikJLsY7AwbJnM6Y9Fj6djJ4PSPRWFlDVaY+zujlms+FrJqBFk37a8+mToHRJH89m/48Tw9gYqt2VxAX1/jKTXWeTp2AnJ2xt4MvDZxjE5RgHt0z5HmbOP3BJKABB/bx0SAO3HkO8fF6R/J348hHPeiRt3LAQwEKt2oCA7TvLas/Pw/1AGqylJ7Ntvjy+yHy4d6pbWu1v78fy0JSKi8+qtV69e/c36RCwmZtbQGVHOIZJVIBUaqGyc3K8ob4qf4Mv890iqT+2zuU7LKfUDERERhUFH8X4C+QMZ6r0SMraEto7i4wTyVUC+3bXNhqKzSy+mkchrkNUuSiN+t/TTloiIzp8LFy6g3W6HNcOLTkymBFUGtPwNFE9zDvppYz8QERHNkJeoG8tTnbel0V+/RL0KABKWrtheorNKL+JGXgNkdXQCy09bIiI615jwmgGZklGMOZFD+Rwne9gPREREs+IqlhYAQEHeWZ9sU9SNk7wsZabpp5eRS+ShSQU0RmWw/LQlIqJzjwmvmZBBqauKmmnnejUf+4GIiGg2WOpWOep3SQsyCrcbqJzg3RopRHEAkgzVyw2l/LQlIqJzjzW8iIiIiIiIiIhoJrCGFxERERERERERzSQmvIiIiIiIiIiIaKYw4UVERERERERERDOFCa+ZUUYunUPZ+fTUmPb4iGZPZ38P29vb2Ku2nC8R0YTx+0ZEREQ0XVi0fiboKKYTyGsy1EYJmWm8bY1eRi6RhQIZarcE3kiapkmnVcXzehPtdv+5mLSG1Ly11VnTwf7eLmptAIhBWkvhTO+Oby1UtzU0rU/FJKy5Dqqftj509rG3WwOSK1henHO+em509vewW2uf6ncq/BjO+/eNiIiIaHqcm6L1ejGNdGS2ZxaVcwnkNQmFaU12AUA8g1KjAAkKsrnTG43O/h629/bRMR63qtu2x8F1sL+3je3tSW0vXJ39PextV8F5CMaFsGZPdk0rf+M2h/lYFAAQjS3w4psoVPy+EREREU2bmU94vaxr0JxPzpJyDlkFkApPsDGtyS5TfANPChKgZHFaOa+jdhu4OAcx16KDzhEsj8fQaaHZNmZItptoTXnG66jdxhnI75yADlrNNoAoktIK1tbWej/hzAIZj99xm1tcxtraGpancWdCN49UbzwlHD932U9bInfn+/tGRERENH1mPuE123QUHyiAVMCTqc92CfGNTyEDUB4UoTtfDJ1IcEWjF43HRxOb1dNpNdFGDAupBcTQRnPaM15kMI6B2BIW58dOexIREREREdGU8FfDSy+j+PABtpT+rClJkvHpE+dSujJykSxqhQYqG0AxdwN5RbxDkgt4UtpAHAD0ItKJPJJqF6s7aWQVDZAKaFSyUI33SLKKSsla8UlHufgQD/JKPwa5gE/vbPRjKOcQySqW9wySCg1Uekkij/H26CjnbuDBiH7Qi2kk8kCh8QQJ1RKzJKPwpOQyI0tsN2t8tp2EQqNif4+xn/Z9sfMTg2irQVa7sHW583MCjVvf0M8JjUt9HjeBa/YYtVsuSlhLXRT/RhIry4uOmWMijqPkCpYXgf3qc9SaIuMWjSVxPWW0N+r+XJTWsHCwB63ZBqJJrCzPo2W8JxqTHLMIOmjt11GvNXszgKKxJJaWFtHL47Sq2NaO74WordaQx3h7OmhVn6Pe7M9CikZjWLqe6sfQq6UDJFeuY65liTkaQ/J6CoOljsR2NeOz7aJIriy7vMcr49g4ZuyH1v4x+tPaZ/73TcwO3K/Xe30LRBFLXkfKbBxw3LzXowpr3Hwa1Q+Ods0R8dqNHuc+P21HGFLDq1XdhtYU47KSmu9/jzzvm9/vplc+t+sxXut3aKlTxfORx47zfBZFNLaE69a+8sl3DB73zc/3LfTvEBEREREBwWp46SjeyCJvSfIAgKYpyCaG1Miqq8hFEr3kEQBoSh4Jx3q22gMjaQIA2hYeWhJOmvIARctUoHIugawl2SXa5JF96BqBP57iFQXis679kLbFaryCrRuOmDUF+YE+62/Xq/KOAkDCetY92dXnNQZ//IybVTy7DgmAsjPOp08RYzmjmDlm1HE5bllju4Xq9q7lwh5oN2vYddzZ66huJLtEA9QtF5/tZh37lu23qrvQLMku0aYGre6t2tOxPMUrkn6a5eIQANrtJrTdPVusxitoPnfE3G6ituusT9Xf7sR09rG3bdRbMy9Um5rxeBJ12Lzum5kQ0Wx9C7TRrD136bMwhDVuPnnuhw72n4t2g/GOGcMJ6ezv9ZJda7YEToB98/TdDMDTdv3GG8VRfQ+7Ho6dwfNZG+2mht2xvpfwEYPfffMjpO8QEREREQ3wkfACkJRRUBvodrvGTwOqDAAK3HIXmpKHAqn/noYK0XzHlmjRNA1SoYGuKgPQoChi9k+jIAHQUH9ptixjRwEgF9DoxdBFQy1AXrJsMFPqvSbik6Fa2ne7XdcZUV7i1Ys3kNcASAWoDWs/iFjzLok3TQMkWTViHtJn5Ye97fb2zfx8yFC7jtld0NGoAZDWMTLf5TUGn7yPm0M8i3UJQK1xQssazfo8ojZPTDJq9awkEbU+dvmLvBdiOWMUMePP/nPzMUSPWdbYbtbQtNaMWjFqBjUPbBc87XYb0eQK1qSYuEhqitkJK8mouAA8Mlu2cNAEEEtixVKDakVKwqihLMyneq9JMRh3Euu3X1tbc72TnJd4O/vPxd3JoklIK+b2ViDFRKw1l8Rbuw1EY5IR84oRUxMH1qatem+7vX0zPx8xSGvjzO4Kj6d9Qwf7z2tow9rWaJ80l90GGTfv9ahCGzdfPPaD6WLMUW9tEjGcDHOWUXTIDCC/++bluxmE5+36irctzmmjjp1WtT/7zbbdKNCuweWQ9MFjDPCzb96/b6bJf4eIiIiIyI2PhFccG6USNmxrF+PIrIqUjDsjUWO+J56Ba3NnDSqpgDsZIJ5IWlv1KVtQy/1USTyzgdLGJNbGjYpXh7qliXYVyxJKxJEpPUFBTFsanDVlLO8Tzft9Vmv090Fv1ETTTy3LJ+MZ3ClIAGqwNDW8RF0DkEw4llsO4SEG3/yOW08ciSQArY5hObFQdDo4QhT9El5ttK2PAzGKnkdj/WUuc/MQk7xaQ2YjGIka8w1z81hwu0qKJnHdmsiIJrE0D8zNDQm42UTLkmSbm19EatHlotq3UfGahd9jkJYtSygxh/nUdSSjLhfKEBe0y70ZLnOYNzZ61OnvQ6cjsnqxJctSqrl5LCWjAI5gaerd3CKWnReoMclyYbuGtYHlqD552DdzZqC9rdF+8SSWN4U3br746oc5LKZSjnpr/RimmTXZ5V7UPMi+jfpuBuVluwHi9XDstET2HpLzWEgtIQagOW5WyEMMgfbND08xEBEREdG4fCS8RA2vXDqNSCTS/zmuVpa8CmcaKlPqotst2Z6X1rO2pI3zcV8GJVWGBA35bAKRSBq5YhGW3Nd4RsZrJJlc2vWSOC7JKXl1sLWTmSRSdizF3PUyHuY1AEkk3DvEMy8x+OUcJ+fjadHZ3xPL1HZraKON2q6xbE1rilksu9vY3nZbvuWBuZwxZr84m7sIDF3W6HLL+vnUGtbWUrbn7dscfNw3j5QkZpXVtF1sb++hur/v/tlBjIzXLPw+2K7XFy7JqdjCYGsnM7nXPLAsZeq0UK+1AVzEnHuHnDov+yYSrh7bhiK8cfPFbz90WqjuGd9p82dEjbNT13yO3Vq7l+gYyu++uYyd27nEN6/b9Rnv6DE27pyLJjTrNrcty4+POkP+kODN6BgMPvfND88xEBEREdFYvCe89CLSiSwUzXuNqVBkSqh0G2IZo6RByeeRTUSQdtQFO3Myd4wZYnkkzGRiIgsFwxJsNA3EckagXdu1XRiJ66Lhyxonbj6F5bUVYxljG81aDdruNvbGreVz2uaXjJlGNeya/btrXPi6XJSfJebstfPOVz8Ytb6ak7q96kmJmcdxHUO/kmdt385avH7M8r4RERERnSOeE17lh3mIElNmHSjjRxSDOmFxsYyxIupRFaTji6S7zboai9uyRbOmVtDZWEYNL0mSLE9KkAsNdF1vZXgVSydUB6u8I5ZbTo5Zf2wJV50vhWBucRlra2btq379IylmrQ0VpBaUuSRsuOHLGsMwJ5YxLou6MMkoBorb2w3O3hmL2/K33oyNgLOxjBpe0ai1GFkUseSKew2kE9Q68JGocWHOXvO/jOkMjJsPfvqhVTdqfSWt9Z3WjDp30+wiFpclkYzW3GeTnrV9CydeY2ahtWaf82fc5cYehLNvRERERHTSPCe8TMnE1d6yNb1cRO7BMUsaJ00vIpcroqxbUzxxZNeHF0m/uiRe21LLE0gMmTW9FGRz1u3pKOeMYvYBZ2OJOy7K+PTJEzR6xfArKLkU1xfMOlhbUMffMcB1WaWOcs5yJ8ZJ0VVs+ak/NiFHtr/Wmxf0Y7DUHhq4KDMTasOWNU5SZx/V6j5ajho080bh8X5x+76LUfFaszWJhJxZ36cJrWrdXgetqlEUPeBsLLOez9L161jpFVVfRsp/djKwwWWVHbSqljtoBjW/gJgxO3Bv39Fv+1XXpMhZGTdfgvTD3MVe0qPT2ke1PpmlZuGaR2pZQgxt1FzvgCmctX2bdLwXo6I4/fNqa7KJ3QAmvW9EREREdLI8J7xE4ghQsole/a5ENo9J50JGqSl5ZBP9GCKRCBIi0wS3MlVmEkfLZ/tLBSMRpIdPBztWpmTeudG6vYRICkkyVNfZWKOJ/lWQTSSQSFhqpEUiSKdzrnXKROF5DVuTynhlVo19M5dVmvtlnXU2Pl3dgsgNBuursUSjsJV8vzgXfLbAiNpD/eRE+FdtR80atF37sspdkbGAW3hmEqdd0/pLBbe3sTfsKnyE+ZR5Fzfr9nZFUigqClAHIfqwCW13F7tm7TUz1r1q+MlE9BMy/WWV5n5ZZ50FIWqvYWAcdqHVXLKUXsetVbX0k7H8s6m5tg1r3Pzx3g/ieACaWv9Y39VqIvHs5KMffLUdyzxSK0lRb2+3aptZ52vfpkBY8c4tihsmtJvawHd+e3t7+JLQCfK1byd27BARERGRX54TXvGNChoFGf3UhwRJVtFQC5bnQhbfwBNVduRfjDgchfB7MiU0Bt4zjgxKDRUF2b70UJJVNCpDYvAgvvGpSDZhML+kaQqyidzgMkqj7peWfzj4WiAZlBoF9HdNglxQ0aj0YxufcadL446OJ8c5o8so2D0Gc/aRW0IJAObmY4gCaLtNsZqkuUVcl2KO/EvUuO39kOLV8ymsDLxnHPNIrUhIxuxLD6MxCSvLQ2LwYG5R3JkNIldp0243oTmSBuEQSYr+rkURS0pYWe7HFth8yqi7Zu+3WPK6+xLbMzJuvnnsh7nFZawkxffKbBONSViRkpbnptzcIpalmEjk7vWP37O2b+HFO4fF5RVIseiY2wkuvH0jIiIiopP01qtXr/5mfSIWG/sSjnzTUUwnkNdkqI0SMrZ1fjqKuQTyCiCrXQxMICvnEMkqkAoNVIYuf5weejGNRF5z3xcimw7293ZRa8cgraQwb0sAdbBf3UWtCcSkNZzIRCQiIiIiIiKaehcuXEC73fY+w4vC9BJ1Y2moswS9rr9EXQEACUtuFd4zJagyoOVvHFO0f0roRdzIa4CsMtlFHvRn4XUcFas6nSO0mxAzL2xrVImIiIiIiIg4w2tKmDO8nM/3HT+Dq4xcJAsFbjPEpoReRi6RhSIV0KhsnGixejqrzBlezuf7oskVLLuu/SMiIiIiIqLziDO8pkocG5UGVFkaqN8lSTIK6nHJLojaW11V1N46rtlpikMU9Weyizyz1PJxFM6JRmNISkx2ERERERERkTvO8CIiIiIiIiIiopnAGV5ERERERERERDSTmPAiIiIiIiIiIqKZwoQXERERERERERHNFCa8iIiIiIiIiIhopjDhRUREREREREREM4UJLyIiIiIiIiIimilMeBERERERERER0UxhwouIiIiIiIiIiGYKE15ERERERERERDRTmPAiIiIiIiIiIqKZwoQXERERERERERHNFCa8iIiIiIiIiIhopjDhRUREREREREREM4UJLyIiIiIiIiIimilMeBERERERERER0UxhwouIiIiIiIiIiGYKE15ERERERERERDRTmPAiIiIiIiIiIqKZ8v8DUkDEcuNQ8tQAAAAASUVORK5CYII=;" vertex="1" parent="1">
          <mxGeometry x="699" y="2845" width="1212" height="455" as="geometry" />
        </mxCell>
        <mxCell id="t6ghwq_tImVH2vB8FOV7-114" value="" style="shape=image;verticalLabelPosition=bottom;labelBackgroundColor=default;verticalAlign=top;aspect=fixed;imageAspect=0;image=data:image/png,iVBORw0KGgoAAAANSUhEUgAABMsAAAGmCAYAAABiPwOBAAAAAXNSR0IArs4c6QAAAARnQU1BAACxjwv8YQUAAAAJcEhZcwAADsMAAA7DAcdvqGQAAMVJSURBVHhe7P1viCPZnSd6fzv1Yu+DrYyHvU1Pu1VBL61pOckVrHe2G1XMiMFuyJWMrteF0RbtF7s1GIRlj8ld2TR+U+773HbBMBS2GOHxyCNopgYWNznClNdXtHKT7TV7NRspumfWC1o9snrkpxqluqeLWkOk7BceEP28OBFSROhfnJBCqcz6fiChJIVO/eKcUGTGT+f84okHDx58hBWoqup+ioiIiIiIiIiIaOvt7OzAMAznc45HREREREREREREjzEmy4iIiIiIiIiIiExMlhEREREREREREZmYLCMiIiIiIiIiIjIxWUZERERERERERGRisoyIiIiIiIiIiMjEZBkREREREREREZGJyTIiIiIiIiIiIiITk2VEREREREREREQmJstWNOycoFqt4qQ5cL9ERESSeE7dHhwLeVe5z67yvpHAMSYiIpoI/ft//+//P+4nZSiK4n7qkhqgWf1POG230bZ+hgr2r+26N7QZ4v/33/8nHv4G+M35E1D2r2HR1r4Nmqj+p1MMlX0sDIfWZtg5wU9++t+vZJ9vxb4NOzj5yU/xix0V0Sf/kftV/4Jq97LZin7Y4nPqmg0HTfzX5in++3+f7OuFfr7W4nKOxdiaf296G+NL0me+zg+XZN+usOB/d3OMiYjo8fXEE0/gN7/5jeO5nV87Hq7fsHOC6kkHQ/PxoFl1PJZlfevl/DnBSbODgd9GfQsjoopkoaJeQ8T9MhERSbh859Rh5wTHeh+G4X5l+ww7JzipNuFtzsjlG4ugeB/jq9xnV3nfSOAYExER2QW+DPPcMIDdMMIAgCGG57A9XhcDRr8F/fgEHd8JswgS2Syy2SyyWQ2q++U5wnsHyGazOEjwzwoioonH4Zw6xKBvAFAQ11LmvoqfbQz/3DCwNN9jc7nGIihyY3yV++wq7xsJHGMiIqKJnY+5n1krkRxTFGsi97mHb2a9UbXJH6zZVAqaqgAw0Dr1P2uNiIjIO/N3mrqPvch6vwKibcExJiIiInocPfHgwYOP3E/KUNVZ8wUGaFZ19N1Pu6kaspLfXg07JzhuGVA197e61v+pQssmJtPHhwN02m30+5Nv1BVFxf71BOb/3Wu2NTe+Gfs3Z1sRLxBPXUd40Ea71RdxKCri1xPYm4phiEGnjXZ/esmHc59FDOfxFA72gE7zFK2+eIOixnE9seeavTfEoHmK9qJ+GHZwctzCrpbFtbMT6H0DUOJIHUQwMNtXVM31jaMZr7VfUKCo+7ieiPiePSjTZ3OPh0ETVb0PJZ7CwV5Yet8mMRwgMmjidEEMgtd+kB03SebxbrUJKFDj15GwBWzvs/3hOvfN5CEGazxgjY9p0KxC74vPU2pe+4vItuv5/OB93GSOX/Mdcv3rhWw/BBGDw5rOqeZ+GUocqYPpz4rYPwXx1IGtn4Pct2X7JXGO8nXsePi8mf/PIvYYPI/FmIffLX73zTOvvzfh43hYPsYyfSbfD7LxeiB1fvC4b34+m57Pv7LEMamPPxN2PmLYkn2T/t3tOQaPY0xERHSF7ezswHD9IRn4MsyLNUTnVEfL9ocCABhGH/qx17ot62Cgf3oMffzHLgCjj9ZUDEMMmuZ2s/7Gm8UYoFk9tl0oAUa/hWPHnYyG6JwcQ5/ZD9NLV8/bZjIJIs62LTFg9NuO7cfxjp8xYPR1HK9Ql07w2mdyZPYNAPqnJzieimG6z6T7wdO4SRp2cHIsjvcJA/3W6VS8gILz9qx9m+5fqX2TisFp2DkZX6hlV7kQdJnfro/zg+dx8378SvXvCub3w+ZiWFk4AjGJuD+jRuUAZ32IGUC2nVv7vg07OBnXyzQvMPu6s46m37YBqWNnlc/besj9bpHaN8/kfm96Oh62aIw9xbsGi84Pnkh/Nn2cfz2ZHJPLeYxha/YNEr+7g4yBiIjo8RDQ3TB3cW1/H/v7CobtMyhaFv/y+j721R0Meg/xlPXYx+18/uHRL9B7+Bsoqu1uQMMhOj/7Kf7uHID6T3F9/MI/4NGjf8BT/1TD71//59jf38f+vgpl2MPZ+TmemHtHoSEG7TOcK+qcGK39m+zjvG2teH/zG0BRNXz6X17HP58Xw+Bn+E//8xxQ4tA+/fu4/s/F/6EqQ/TOzp37bMb48PwhzqEgrn1a7KOqYNg7w7ntTkbDzn+F3v+Nq10VyvARzs4NPPwH8w51//AIv+g9hPGb30CJp/C56D+gffYQ5+e/gaplof2/B+g9NPCPnjLjGDRFvKqG1L+8jn8+7t9HOHvYxz/M7d/FZPps5vEAAMMB2mfn+N+e+m1xty/JfRPtGvjNb37jjGHnEc4eGvjN/8t2FzGpfvA+bnKG6PxXHX1Hn5lx7JzjH3avwQp37r7N6F/ZffMagzUeMMfH+sZcUTV8bpVvs6XalTk/eB83meNXrn8lyPRDUDE4rOuc+o/w5P82RPvsofMzCACD/y9Oz86h/tPrwfav2bfOe+W4/G9P4bejT+IfyZyjZI8dr5+33Wtmv+5DGbZxdq5Cy/5LXB/3977rjohex0Lid4v0vkmQ+b3p9XiQHGOZPpPqB6/xypI5P3jeN8nPptT5V8LgZ/jp34njIfW53xd9Zp2noULL/j6eG4fmNYbt2Dep391SMXgdYyIioqtr83fDHA5xDgWTkmUGDPvjFfR12ze8x8do9cVUdM3xh14Ye4mEq85IGJFrs5aOBsxc4icimcRwPrS+phyi0+4DUKEd7DmmyC/+hleFlj2Y7GM4AufuWcWJ3e2GEUlcR1wB0D9zfsuoxHHdPjVDiWM/AoTDzoEbiK9ToTm+hQ4jktiHCqB/tuJ3l0v7zAeP+2ZR4ilnDHti34z+YHKHV1/9sGzcJA0HEMNs7zOYMc9YngH3trP7V2rf/MSAydISZWqJ72qWt+vn/CAxbuvuX5+W9cMmYliryLWpzyCs/TA/z47n1r1v4T0cuG9coGqOwu/ZGUu1pHg4dvx+3tbHx+8WuOOds2+eyf3e9Hw8bMkYe453BcvOD1IkPpv+zr/LDYfnAAB13zY+4Qj24wqAczgPM4kYtmDfxjwcO4HHQERE9BjY+Vlv/emyYefETGK1YMBA69hMaul9YPx41hINnxQFalxD6sBWq8wyHKB5YsZj/Syp3xIE9dpUZLMpitysohm3944kssiO67ZZxYmntwPCEDki5x+Qimr/w3z6sWDe2RR96Pa+tS9bOR+utEzEc59JcO+L+7Hbbtj96i6ckyl99sOM8XCOm6RzsdRCps+Wbyu5bz5iQP8Uxy1j/Mf/2nhtV/b8IDFuy/tBsn/9WNoPG4hh7cwLX/uSqGEH7b7783wZ901Yfuz4/LytlfzvFgQVr6ffm9t1PCzvhw3Eu/T8IMvrZ9N6TfL864H1xVf/zL6sdoB2ywCwi6lf6Z5juPh9syw/dkwBxkBERPQ4uLQ1yxx3wzw4QGJv1h8rop5L30shkwu3vjuF0uPH+jb9IvmKQd03Z6C0MVX2axVe2r1U5wefvPTDJRSOqFBgoG9etQ4HfRhQsR/8dKqt4evzduXw9+ZKAjg/eP5sBnX+jVj71MKxlSA6NpOL7sSuZAwXvm8ytiEGIiKiSy6QZFl47wDZbBapuAKxbEkktTRVLHtLZbPIZu13KwvGoN2CAUCJa+b/af5o2zgN3ZyxZBhwXwKJpRgrmrUcZvzN9YxvW5cyZw6Mx3PGz6rLVFYwOHP34ppYS592w+MlENvQD9a36f6WMs0jt2/+YtjF3oEGVTHQ19c429RDuxd/fpDrX3+W9cMmYgiAWXBbLIkylwO6L4S3fN9WPUf5+7xh5myvlaz9d4sMmd+b2308TNtEvMvODz54+mwGeP4dtNEy3PV0Fajx1NTdHaVjuOh9k7ANMRAREV12O08//TH3c2tz7vhGy/rjefN2w7vjPyiHgw6abfcf0dvAWrbSR9v6i3U4QOfEvJW7b1ZNpT70pr3Whri1esuY8W2rR7uKAhgtnDYH6734kjC95GKIQdN2x8uV2XZsOEDnVPwBal8GsQ39MK6n0jrGScc1zp2m74sgqX3zHUMEiQMNKoyZdxr1z1u7F3l+kOpf3xb3w2ZiWLcw9vZVwGih3RmgbyiIO4sGAVuyb4Gdo3x83nZFZgn9gbPukj/B/W7xTu735jYcDzI2E+/i84M8b59Ny7rPv1adt/3r15FKWUmiAyQWfDvrPYaL3Tc/tiEGIiKiy+qJBw8efOR+Uoaqzv+WatCsQj+PI3Wwh7B5O+/WrrgtuV9WMVpVy2JZM9a28zjaGDQX1nJQ4ikcWH9sSWw7N16zDUe7ww5OjkUyxk5RVaDfx66jjQGaVR198zbvi5nbup8GxE0RrFpv5v8PKyZ3jObjyb6YY+oO2DS1zx5J9dm8fVMUwDAm20ru28JjZ6rPZfpBZtwkzT0uFcRTk5mccv0rs2/eY5gaD9tzBlRoM2qAeSLR7sIxnto37+MWaP96JdEPgcUw91gQ/J5TJ2yffcX6PeMW0L6NeTkuPJ6jpI+dRf3m+rxZ5mzvfyzm7Btcv1v87JtXUr83/RwPHsZYos/k+sFPvB7InB8k9m1i+WdT7vzr3aJ2FUXF/vXE+EYQi7bF3Bguft+m3j/j2JGKwdcYExERXS07OzswXOULAlmGKbhnkm2+tkh47wCpuIrJZHwFiqohpcVtz22R8B4OtPikgLyiQNVSONhfNdoIEikNcdW5LEFR59wUwbMw9g5S0FTlAvszgkQqjsmuWTd7EHcL8ysc2UdcVZzF/JXZSzm2ox8ARBJIaXGoU8tPrk9fNHsmuW+rxBDew4GmipkqJ80ZS7t8mtPudpwfJPt3FXP6YaMxrNXkTqQzC2wDW7JvwZyjAB+ft0gCKU113aRkFUH9bpEg9XtzG44HGRuMd+75wY/ln82gzr9h847VEIeCg2H0oR+v+jvg4vZNxjbEQEREdNkFOrOMiIgoKINmFXrfPVOOiC7axXw2rZl4KrTUZAbZ+LXmMVp9/zO7LBezb0RERBSkDc8sIyIiCoJV9wtQ4vu8YCXaGhf52ZysYBi6qvINh+cwxNpJKKKMoA8XuW9ERES0aZxZRkREl4O7ts6cmkFEtGFb8dlcXOMN8Fl/ayv2jYiIiILEmWVERHQFWHWxeMFKtF0u8rNpq/HmKsylKCrimo9EmcNF7hsRERFtGmeWERERERERERHRY4kzy4iIiIiIiIiIiBZgsoyIiIiIiIiIiMjEZBkREREREREREZGJyTK6gurIJ/Oou5/eGtseHxEREREREdHja+PJsk7+ZbwWehmv5d92v+TD++iUvodyyGzT/PnRNmUhek0kQ99FyPFTW5ooqZf+EqHQd5HMN9Fzv7gm9bwZT/7v3C9dYj2UkhlUdCCwjltVD4BeQSbEhBkRERERERHRttn5e/czl0gn/3UcFRp46H7h0vs73C88AgDolZ+jtq1Jny1Uz8dQ0DUUu2Wko+5Xt0Q0jXK3CA0VZPJMlxERERERERFtk43PLFub3o/x04r451PFb+CrozfwqvnzhbR74wsUTaAx+jpGo6+jW3zS/eocv40b5rZa7pPIbGvSZ9vU88hUAK14D4fb3mfRQ9wrakAlA+bLiIiIiIiIiLbHztPuZy6Ld/vmjLJnEc+8CK9pqMsiffhvMRp9HY1yAtue99kOPZTuVACtiHtbnykTooe3kQNQuVPa2hWjRERERERERI+bgGeWvY9O/puOmmJH5mywadP1x8r5H6OzoSyCVb8rWfolevWarc7YXyJf+qV7c/TqTeSToq6Y9ZNM1lBaJd56zVXbbH59M9l4gV+inv9LR/20zKyxsGJINtEz3zPev1n103p/h5Kr3WSyhrp9Q7PNfP2XKCXN7ZJN9Hp/h7z5ODlVN+2XqJfs+yX+f0e7dvW7KOiAdjMzN7nYKyURCiVR6vVQL+WRDIUQCoUQSuanxk1sG5qe9VXPIxQKIWm9oVdC0tyunhfvCSVL6KGHkvk4OdWIJY1XihqgF3B33iYm0XZyOh4iIiIiIiIiWqsAk2Vv40ehr+Oo8p6HmmLvo5Gcrj/2sPJDHMW+h471RO/Hk2RapmE++R7eitkK/Cd/DFHtyx+98BeIZX4OffzMI1QKf4GkPQHVa+JW5q9R0Z3/k67/HIXYX04lXoI0L15nUuXvkA/9BTKVR7btltAf4W5evGf8VOWvEbMntXpNJGP/EQVXu7r+c2RifzmV2Klk/gIFa0P9rxGL/UdRiB+AXvmPtu1/iVLyL5Ap2PdL/P+Z2Jzk4f0KAA03l65Z1XF0K4ZMoTJpW6+gEFut2H7rThKZ8c4c4W7+FgrmY71yZ+4xEc3chAagcn/R/17H/YoOQOcsNCIiIiIiIqKABZYs6+S/gxYglknWvjuuJ3Yz594SeFT6E7yli21fsrbtfgNxAEADR2u5c6YE7fdQ634do9EfoKiJp/SC7kimxHO/h1r3DzAy65GNur8HsekjHNVmzezyIJ0Zt+e9vpk93n8Fq3sr9ydJrXr+P0JMInsSudok5tqMsZj4OSoVjLcfx1P5udkPv0Tp1l+bCadPmv//1zHqWjE8QuXO9Ey0XO0PbPv2JIrdSRytrui3Xun/NpNqT6JoxTtu9+fITM1C66HbAqDd9FTfTdcBLVdDdzTCaNQ1//8KFuarltB1HVqxi1EtJ5JaFR252gjdogZAR/td9ztM0QxuagBa3am+mkjjRk4DoCF3e/7MOSIiIiIiIiJa3c7/COR2mG+jPS6+/+/whfQz7g1s3kfn6D3A3DZpbRt9Eb9ffFb8u/W+mC0W/TzyViH/WtJ8/7N4qTsp7v9q4/Or1S/TPolaI2HeSfEf4/D2J80X/he6VjYjmkC5nEA6+o8n74s+L5IeAPS2z2SZL/Z4fxs3phJgf4f75lhoxf8D5bQt5iW04h+Mt4/G/nfzWbMfeu/iyJxIpRW1yZ0no7+Ncs3sM911J0/t9/CK/f/P/e6MQvy/RO1IzGbTiv8HDq3to7+NV6wkW+t/uRJL76KtA4jHvCWScjU0ymlz2yjSZqe1xgPsg7tWmlbEK2kgGhMp3/miiMUB6G3My6cBQLrcwGjUQHlrb/FJREREREREdDXs/P2HAWTLeu+Pl1M+FVuUKAOAAR6aSZeHha9PllOGXsb3CyKJBr2/0tJKOU/iefvD558czxizzw4S9bbstbpsSww3SXPF69b7X+YMPyAe854oA57EzYxt+/Gst38rElzvWksvXdthfp8h/r87klna/qx4fikSXxBLTK16ZaHQdxErmEeB/mhhYmmZ3I313y7VXSvN/ZiIiIiIiIiILocd/OrX+LX7WVqsXjPrbUnUACMiIiIiIiIioq0XWM2y2d7HI2ua01gET5nLF58qTmqbOX++hj332zakV7OKzD+J/echanXd+bl4cVwrzFnf7HL4pajz5de82WMz+0zGP8a+2Y9a0VYTzvGTgXNu2PPiPQvrfq1H/f4qnTaLVW9tf/EMQSIiIiIiIiLaiJ2PP/00PuZ+dlXRFxE3Ex6tO9bdKcUdL0Uhf7tnsHdT1CZ7WPgT/Kj+vnuDC9OrN3HLWvqnfXK6eHwceD4KAL9EfVyUfsvYaqlNCu6Lu02uFK+93UwNdStL1fs73F3UZ0v9Y2RuitpkeuH/Rr7upf6bVffryFkjbQVWrbHKfevukz3U87Y7Xq5LryZqvy2pt1bPJxEKJafuMEpERERERERE67UTja49VeZIgEH/Ib4fehmvhUSi7CnNfN7mycOsmVx7D62Ms27Za6GXUS5tMIGm/zViVo2sjHW3xydRvJcwkxn/WCRmAKBibfsXyFgJIpde6S+na27h58hYtbiSkztGymzr3ST5NNk3kSjTtFVuhSBufiDyZT9HJmbGGJvceXPSZ3Kih7+LnAZxR82Ms25ZKPRdJEvTCTRRpF/H0bqyZekb4u6blQJioRBCoZhIlGnrnT7Yqx1BX1pHrY77FV3cZfOOlbwjIiIiIiIioiDsPO1+Zk2ePPxjfLWYxFPjZ55FvPZd5G+rju2EF/GFxndxM/esbftt8CS03L9C1ypqb0qX/wC1nD3R9CRyxX+FrnW3xi0TPfy36BatxBZEvLU/QOO2dYdLn9IZNLr/CjlH0u1JaLnfQ63r7DM5v41yQ/Sx59RU+hUUNUAv3MV6Jl+lUe4WzaQdAGjIFWvoNm6LJNpa9FA70sd3zpwvjRs5TcRwmzcOICIiIiIiIgrSEw8ePPjI/aQMVZ2V/Lp86vnvIlMRdci6DX8zouiC1fMIZSrQil00/GfqNqZXSiJW0JGrjVBemCwjIiIiIiIioiDs7OzAMAznc45HRJdZuoxaDtALt1Da9rWKvRJuFXQgV2OijIiIiIiIiGiLMFlGV0q6XEMOOgqx/OSmA9umV0c+VoCuFdFlpoyIiIiIiIhoqzBZRldMGuVRTdQa29aVmFEAWg61xuHWhkhERERERET0uGLNMiIiIiIiIiIieiyxZhkREREREREREdECTJYRERERERERERGZmCwjIiIiIiIiIiIyMVm2Qb1SEqFQCMl83f3SSoJql2gThp0TVKtVnDQH7pdWElS7RES0GM+/REREdNkxWbYxPdSOdACAXrmP9aW1gmrXizryoRBC9h8m7EjKEIO+KKRo9M+wvsuqoNr1YoBmtYqq/eeKXDBaF8CXZneGHZxUqzjpDN2v0KZxLIAt+QwFH8NFnn+JiIiI1mPn+K97+LX7WQpAFJmbGgBAy91A2v2yb0G1S5fRsHOC6kkH1uXooFl1PN4+YURUBQCgqNcQcb/sW1DtEgVv2DnBSbXJJANdUjz/EhER0eXHmWUbFD1sYDQaoVFeb0orqHaXS6M8GmE0GmE0qiHnfpk27twwgN0wwgCAIYbnsD3eTuG9A2SzWRwk1ntJFVS7y0WQyGaRzWaRzWpQ3S8TLXFuGHDeuJrocrm48y8RERHReux8/Omn8TH3s0R0CYnkmKLsmo/PYfCKm4iIiIiIiEjKE6cPHnz0tPtZCap6leZN9FDP38Kdig5RBQzQtBxu3ysjHbVvV0c+lEGr2EXjECjlb6FQEe/QckXcKx9isrnYtmJ7N3I1jObOAhMxZMz2nDQUuw0cRiHVbq+URKwAFLv3EKvdxZ1CReyflkPxXtlsz/6GOkp37+BoaT/YmfHMiWEbyPSD2FZHrjaCY3fqeYQyFWjFLhqHUaBXQjJWQLw2wo37STFuWhHdRgY187jQcrWAZ/0N0Kzq6LufdlM1ZH19yz/EoHmKdn8y20VRVOxfTyDimLIm4jiPp3CwB3Sap2iZdWsUNY7riT3bDLcZMS+MT8Sgm+05KYinDrAXhlS7w84JjltAPHUd4UEb7VZf7J+iIn49YbZnf8MAnXYb/aX9YGfGMycGGTLxim0NqFoWjv920ERV70OJp3CwFxZ1pI5b2NWyuHZ2IvpXiSN1EMHAHD9F1cazQyYxHCAyaOJ0QQzCEIOOLVYoUNR9XE9EXLMdZY4dCeb+wdpf06BZhd4Xx0bKEYvXY12Wux/Efu3v703aNcdmkfG4jXmNV7Z/3fHOGzcJsmPh+fMmu29eSbbrMV77Z3N/uM7PkHfSMXjct0DPv0REREQB2tnZgeGaabKzSqLsaumhlIwhY0sQAYCuV5CJJVHq2Z60tGvIh2LjRBkA6JUCYr6L3E9iWD8dR7diyFgJIgDQKyjE8q6bAvRQupVBYWY/uLe9jLz2g5zWHTNRBgD6Ee7aEqh65c7s4+dSGKJzcgzddpEEAIbRh358gpm1uo0BmtXj8YUlABj9Fo59V5OexLB+Bvqnx9BtSQwYfbSO3fWihuic6mjN7Af3tkHyGq+c87aZKINor21LDBj99tQ4909PcDwVw/TxMGi6YoUBo6/jeF4dvbUfO9OGnZNxcibrSpRJH+seTfeD2C+9vcp++YjXY/9Ox7tk3HxaOBaynzeP+ybNU7uy8So4b8/6DE1vG9xYeI1Bdt9kBHM+IyIiIloH1iwz9Uq3UNABaEXUulYdri5qOQ2AjsLd6VSKXimgAg3FWlds3zXrdjnuSilR16t+dxxD13qP1SZyqI2sWWWQa9ek64CWq5ltd1ETweK+e9fiuck+Lds2APW86w6b7p9kCavknjz3gwRd16EVuxjVcgB0VCpiVlq3KI6f9rvud6yTVSNL1MdSNbNeVioOxf54xrf7yww7p2gZAJQ4tJRVhysFTVUAGGjNuNg3+i30oSCupcw4zLpdjruiSdT1GrTHMaSs91htQoWWtWaVQa5dk2EAiqqZbaegiWBx5t61XXWyT8u2DZDneCUYhgElnkJWU8UFbF/MOknFxTgb546txfb2GMzt+gPb5fugOZkx5OgzBTBamHHoeDx2/LNm1CgzZrv4Oda9GeCsD0C1Hb/ZLFJaHGYNdCGSGL8mxlSFZts+m806ZmT5iddT//oYNz8WjQUg/3nztG8+eG5XKt4Zn6FZ2wY6Fh5jgMy+BXj+JSIiItowJssAAD3UjnSRkGoc2pYaRpEu30NRcyfALGYCy3pDNI0bXrJWc/S6LQBA7rZtGWc0jVeKGoAWuqtkiCCWaTbKabPtKNJmsC1Hw1EclsuTfTKfs7a9Ejz1gyStiHv2dZxaEa+kgWgsbt8qWMMhzqFgUrLMgGF/LG2IQd8QF+0HtuViCCOSuI64MuOCEZgksKw3hCO45uWqaY7hUGRq1H3bsqdwBPtxBcA5hqtNrwDMZYai7TAiZrDnjobD2EskJvtkPmdtu1Ge4pWkxHHdvu5JiWM/AoTDsw8eJZ5yxrC3DxWA0R9M7sQqMkTQHDOGwogkxLb9mVfD6z127OzJmemi436PdQn9Pga2ZGI4sofEnjsOr/zGu7x//Y2bnMVjAZ+ft+X75o+Xdn3E6+FzHPhYeIjB177J8BQDERER0eYxWQYAeBdtHUDuBqYrS0Uh8h0zklUztk+XRxiNylPPe2ElVir3bTOnenXcLegA4ojNrRfmTe6Gx6h6deSTSedsroyjOlqgRB8u+GnYa8LJ89wPErSbGUdM7sdBGnZOUK1WUT1uwYCB1nFVPNb7YobJcRXV6pxlWQuZNwhQr2H6cjYMkUeZkayasX0kkUU2m5h63gsrYdM/sy07Gg7QbhkAdhG2X8P5oF7zGNVwgOaJ2dfWz5IaU0HwHK8ERXXWP3I/dtud6vRdKPZZUtadWNGHbu+vahVVq6bR+XB6Gdmaj52x/imOW8b4wnyaz2PdkwgSmgoFBlr6MarVEzQ7Hdgn4cnzGe+M7Z3963PcZCwdC5Ps523pvvnktV3JeJd/joMfi+UxmCT3TYbnGIiIiIg2jMmybZJ+xZzFVkDMSlLFzCL+MxJzgeiVkIxlUNGDqJtG5ENk35wp08KxdaF2bF4szriQDcSwg5NjHX3eXvRyUq1jqI1VS1j5EkngIJsyl14a6Lda0I+rOLmQYC6Yl7G4bJ+3yxavjKu8b0REREQLMFlmN3OpZQ9ideTqM7uWMmuWaZpme1JDrtjd2B0m63cLEGXTrJpe5o8o7LURQdcsW0X9vlgqu03CewfIZq36UpM6R5pqr/Nlr+slaeZyLmvWw+ozu5Yya5YpjqlLCtR4anatowAM2i2I8lD22kFZs8bX5TE4cxQfW5/hAH0DwG54vJwqvOuqM+f+OfB7l0I/drF3oIlElb5glmWgx3pYLL08ELWZ4srsmydMzJgZ5rb2eDcxbsvH4rJ93oKJdxNjsVww+0ZERES0/ZgsAwBYtcYqyOTrtkRMD/W8Wfh/AzO76vcrAHK4fe8euuObDDRQttfC2pB47PnxMsJevYT8nc0tw9wG00tie6jnbXe83ELnjm/+rQvmVVi1efrQm5NaVMAQg6ZZXHwDM7usuj37168jNS5kfoCE7+yff7vh3fHF6XDQQbO9nqVI6za9dHWIQdN2x8uV2TIcwwE6p+KC2r6kalcRRchPm4PlSZ+NiCBxoEGFMePOnQEe68MOms0OBq46UBGzEL/z5gnCrmLdMMEei11w8W5m3BaNxcRl+bxZ1h3vZsbCm3XvGxEREdG2Y7LMlC5bd7LMTJZAhmIiOaLlUPM7s6uet82KMpdUVjLj55KlSWru+X1NJOxiMcRiztlUyWQedft0Kol2ZYgYgEomNm4rlilgZo4ooBiCrlnmSfqGeTxYS2KtY8E+628LKQocJdnHM338iSSsO7/pkyWQ1WORdFFE4WlfBs3p+jt9ffzcie3qWSQO+tCPj3Fs1WOztjtpOms/SbQrQ8QA9PXjcVvHekvMpnILKAYpkWvmuFlLV60xcxQW883eD9Vj3UzOaLAfDuE9UWje6OtT41atVucvwQtUBIlUXNQPO246ZmUFdqwDOO+3oB/b+qxaFXW7oGJWySYr2Wm07LE4j52g4t3cuM0fC6nP2xYIKt7NjcV8Uvu2Dec+IiIiojVhsmwsjXK3hmLOuQRSy9XQbfgr2C8renhbJGgwnZPR9QoysfyMZaLrFT1soFvMYfLfm31QK9qeexykUe4WMTkcNOSKNXQbkzHaLu6ZZGYB8JVFkEhpiKvOJZCKqiF1sGLhbI/C5p0WIXKBDobRh+660A5CeO8AqbiKyX9v9oEWtz23TUQiYjJsCtS4htTBpC/9CEf2EVcV5zgo85bEhrF3kIKmKtvVR+E9HGiqSMCe2I+dgI718B6ua6rr2DXbdReJt0QSSE29xy2geDc5bnPG4rJ93oKLd4NjMUdw+0ZERES03Z548ODBR+4nZajqKpdeNNFDKRlDQc+h1i0j7Zg61UMpH0OhAuRqI/id5EZ0+QzROTlGy1ChpRKIOKbJDdFpHqPVB1Qt65jVREREREREROTFzs4ODNdsE84s2xrvom0udey6ytf3eu+iXQEADfvPO14iuuImM+SGrupNw+E5jD7ETAfH2lMiIiIiIiIi/zizbGtYM8vcz09oxS4aF1Dsn+jiWDPL3M9PKPEUDi6g2D8RERERERFdfpxZttWiOGx0UctpU/XKNC2HYo2JMnoc2Wr2uArkKIqKuMZEGREREREREa0XZ5YREREREREREdFjiTPLiIiIiIiIiIiIFmCyjIiIiIiIiIiIyMRkGRERERERERERkYnJMiIiIpoy7JygWq3ipDlwv0RzsM+IiIiIrgYW+CciuiDDzgmOWwZULYtExP3q9rls8W6FYQcnxy0gfpF3bh2gWdXRtz+lasguHMQhOifHaBkAoELLJrBoa8La+0zu8+ZnjImIiIgILPBPV1cPH/xVHj/9bAg/MX9+ereOX7k3C9iwc4LqSQdD8/GgWXU8JiK6PMKIqAoAQFGvrZT0eXywz4iIiIiuip3/8ffup4gulw/uxvDO6xVHUmr4Vgb/5Q9LG02YnRsGsBuGmDsyxPActsdERBclgkQ2i2w2i2xWg9f54OG9A2SzWRxwdpJnF9dn/saYiIiIiGbb+fsPmS2jS+w0j3feAvBcDi9URvjcmyN8rlLDM88B+EUB7/xVz/2OgIjkmKLsmo/P4ZrFSURERERERESXwBM/+PHpR6l/9rT7ec+uTs2yOvKhDFrFLhqHQCl/C4WKDgDQckXcKx8i6ti+h3rpLu4UKjC3gpa7jXvl9GS7XgnJWAG6VkS34X4/UM+HkKloKHYbOJy8aXm7wBriFdvdfuUQaXdgU9vOi+HifXA3hHfe0vDJSgOxa7YXzkr4aa6A4XNFfOZPD/Fx20vrNaNOzCy+aseIts/jKRzsAZ3mKVp9kYFT1DiuJ/Zcs9aGGHTaaLf6MLeCou7jeiIy2c6sn2QocaQO3O8XS0f1voJ46gCT8koe2gXWEK/Ybn9/DxF3YFPbzovBO1EPCIinriM8sLWtqIhfT9j2f0HtoEETVb0PxapHZfbvrpbFtbMT6H0DUOJIHUQwMPtDUbXxrJNJDAeIDJo4XRCD4LUfZMfCG+l4hwN02m30+8ZkjBUV+9cTjjGWGQvxhoDa9dy/EubULBOfNXFuSDnaDyAGB/OcNfecNOOcNmvbQM8lHvmJweOxI/cZ8thnFo8xSH/expaNMdY/FkRERESX2MyaZb/92/4TZVdSu4Z8KDZOPAGAXikglq87NqvnY8jYEk+ADr2SQSxZwnguUzSDmxoA/Qi1qQlOddyvANBuImPLQHlq1853vGK7zF3ndpi57ZIYLkwd778F4LmbeMaRKKuj+8MjsSzzF+3LXzPMGKBZPR5fqAGA0W/h2HW3tUHzGLot8QQYMPo6ju1108IRqAoAo4/BVMcMcNYXF2L2CzZP7dr5jldsp7en7yI3ve2SGDwz0D91tW300TpuYjoK787bZqIMor227ULb6LfRcQXdPz3B8VQMJ1PbSfeDx7GQ5S3eITqnOlq2hAAAGEYf+sz+9ToWQbXro399GnZOxomyrCs5sakYVublXKLuOxI6a983LzE4zmeyx04QnyH5GLx93uSsfSyIiIiIrpid6MfcTz3e9EoBFWgo1roYjUYYdWvIAUDlPsZppXoemQqAXA3d0UhsN+qiltMAvYBJ/imKw9s5ADqO3Nmy+n1UAORu22aAeW53wlO8VmIuV7S1O0K3VkRu396avxi8qOdDCIUW/PhJxJ11xR/1/yRmzhzr4YO7Sfwkl8HP37JSfS0Mz+xvWjerToyoEaNqZs2YVByK/fHcb/eXM/ot9KEgrqXMts16NP2zyYXVoDmZpTKuW5OCpiqA0cIk/xTG3r4qEgjuq8vBGcT1rW3GhOd2JzzFO76YjtvazSKlxcXFr52PGGQYBqCM205BE8HibIV2DcOAEk8hq5l93Rez0lJxRVyUnju2FtvbYzC3c4yRj37wNhayPMYLALvq5P/20L+exyKIdn30rx/WLEVl1qyfDcWwmNfaVx7OJdds+xfIvnmIwX4+g49jx9NnyGufmaRikPi8eRXIWBARERFdLbwb5pQcaqMGDq21idE0buScW9RF5gk1x7LEKNLl28gBqNy3ZZTSN5ADoB/VHMkgq40b6ennPLU7tjzescoRavVJFNH0IcqHtgB8x3CxwoB5N8wY3nlLB6DhmS/V8MKXNPemwRkOcQ4Fk5JlBgz745Wo0LIH2LOmR4QjuOa6GhuIzBM0xyyVMCKJfagA+vYrsMg1qACM/sAxg8Bqw3F9K9Pu2PJ4x/p9DGwXfOHIHhJ7zgSCvxgkmMsiRdthRMxgz4c+L0QBQInjun1KjRLHfgQIh2cfEEo85YxhT+ybfYz89YPEWEjwEi8Qxl4iMfm/rW0XBeBpLIJp11//yrEnymYVgN9EDGu16FxiHvOO54LYt0UxuM5nvo6dtX+G5GPw9nnzLrCxICIiIrpCeDdMt9wNONNHQLo8wmhUNp/vodsCgAoy7tlRoQwqANDq2hJjZvLKsRTTmull/79k2zUtjRcA0ijXctCgo5CJIRRKIl8qwZY3M/mMwQMR04KfGTXdvBq+lRnfDTP8Ug2febOBf/Gv08AD+6LTYAw7J6hWq6get2DAQOu4Kh7rfWD8eLXlMlCvwX1ZHUlkkc0mzOfNO2+iD71q/v/jH7OOzvnQdlFlXuw5li5ZM73s/5dsu6al8ULMxNBUKDDQ0o9RrZ6g2enMWErlMwYJjtkva6KozqV17sduu2H3q7tQHDPsfPaDp7GQtzxe03CA5on5GbF+9L57qzHPY7H2dn32r4z+KY5bxjhxN20DMaxdBPtxxXkuGXbQ7ruP+SD3zev5zCR57MxqY+XPkGQMnj9vngQ5FkRERERXx87f93r4tftZWqv0K0Vo9qWY9fti6eQr7jRXgNJlNEZdsfRS01EpFJCJhZB01Ta7VK7Fxhdj4ZeKeKEywqdfSY+XZA4fAEAcYXs9MwIARPbjUOzLeAZnYqmRfSpI0CIJHGRT5tJLA/1WC/pxFSe+awHRVhl2cHKso7/u28IG1W7Q1H3EFQD9Nq7SIR6OiKS3dS4ZDvowoGJ/fvX5tfN8PtuGY2cbYiAiIiKipXbwq1/xG0QpUcTiADRn/a+Fs6TMQv/WUsz6/cpUYX9f7UqLiqWXjRFGoy6KGqBX7qA0uSNBYDEEUrMMzyP8HMSyyy8e4hOOIv81vP8LAM/tL5zRs6rw3gGyWasWlQrNrP+iqWLpnagHY78bXBDCCO/a/78ZP+47xZmFsa1lPGLZlLOwv692pYXF0suDLLLZFMQkFXsB/E3E4N/gzFF8bH2GA/QNALvh8dKrbe6H6XiBQbsFA4ASt9dFypp13PwLpt1N9O8u9g40kRjWZ8023UQMAXCcS4YY9I0Zs7EC3jdP57Ogjh05a4lhxufNu4DHgoiIiOiK2MHHP84/iiQ9vy+K3d/K19HzlOGJIiOyZaj1xBJM7WZmKukk365HvRLy+RLqjkbNmKCj/e7k2cBiCEQUz3xa7MPP/yiPD6xC/md1/M0fFTAE8My/OTRnmgXr3DFLwFrmsjm7iijMfNocwFuprTAi4uoSg6FYsjRrqaB8ux4NO2g2Oxi4alFFxK3tHAXwA4tBglVrrH9m3SluiEHTdsfLldl2bDhA51RcUNuXD25DP0wsj9eyG94dH1fDQQfN9vzlZjLW3e5m+jeCxIEGFcbMuxluJoZ1M4vsGy20OwP0jRkzugLfN2/nM8u6jx0/5GLw/nnzItixICIiIroanvjx6YOP/tnT7qe9U1WJb0O3Wh35UAaVXA2j8rLlkT2UkjEU5pTEytVGmG5CtI9cDpUKUHPUFLPItCsRb6+EZKyA2c3mXLHIxLANeuj+YQw//4X7eQAv1fC5DS11HTSr0M/jSB3sIYwhOifHaO3OuNudlAGaVR39WXfNm2L+n3NyN6qWxXQTon2oKvp9QJtZg0emXYl4hx2cHIsLvmmqKxaZGLyziq1PvX/QRFXvi6La4ymB5r7ZNgMAKApg3vnyYC883i9Yj91tmY+t/9OKYaapfpTpB4mxkCAT78JtXfHKjEVQ7cr1rwT3MWF7ztjQsW7t7zyOfpDZdsz2+VCs86BbQPs2tvx8JnPsSH2GJPpMJoaF27rjkogh+LEgIiIiulx2dnZguMpk7KySKHt8RXHY6KKW0+D9foui0H+lUplZlF/w064H0UPcq+WgORrVoOVq6E4l7QKKITBRxP60ixdeskcr7ob5mQ0lyqZnkp1j8+Vowtg7SEFTFXiv+ywKY/f7/RnLpix+2vUgvIfrmuoqUq1AUTWkpi5yA4pBSgSJVBzqOAAFalxD6kDcPc6vcGQfcVVx9oOiQI2nZlygX3w/yMQb3jtAKq7aYjXHV4uvFH9Q7W60f8N7ONBUUWT9pIlJCbMNxrBWkztEzp/RFfS+LT+fBXfseCcTg8znTU7QY0FERER0+T3x4MGDj9xPyrg6M8uIiIjIj0GzCr3vnilHRERERLT9Zs4sczwiIiIi8syq3wco8X0myoiIiIjoSuDMMiIiIpLjrpE1t1YZEREREdF248wyIiIiWiOz5hYTZURERER0hXBmGRERERERERERPZY4s4yIiIiIiIiIiGgBJsuIiIiIiIiIiIhMTJYRERERERERERGZmCwjIiIiIiIiIiIyMVlGRERERERERERkYrKMiIiIiIiIiIjIxGQZERERERERERGRaaf3a/dTREREREREREREj6edv/97ZsuIiIiIiIiIiIgAYOdXvxq6nyMiIiIiIiIiInos7eBXvwbnlhEREREREREREbHAPxERERERERER0dgOPv4xfMz9LBERERERERER0WNo5+MfD7ufIyIiIiIiIiIieiztPP0055UREREREREREREBwE6UuTIiIiIiIiIiIiKABf6JiIiIiIiIiIgmmCwjIiIiIiIiIiIyMVlGRERERERERERkYrKMiIiIiIiIiIjIxGQZERERERERERGRickyIiIiIiIiIiIiE5NlREREREREREREJibLiIiIiIiIiIiITEyWERERERERERERmZgsIyIiIiIiIiIiMjFZRkQBGaJzUkW1eoLO0P0aEa3LsHOCarWKk+bA/dIVwXMJEREREW0Wk2U+dPIv47XQy3gt+WM8cr+4QKf0TbwWehnl/Jz39X6Mcshse/zzPXTc29FMvVISoVAI+br7FboQwwH6BgAY6A/8X+FaiYBLkwcYdnBSreLkCl7VX7qxuGT89e8QA/FBg9E/g9RbZ/AXQ8DWdC65fAZoVquo2n+2amA2I7hjkv1LRERE8zFZtjFvo114DwDwsPLf0Om5X6fLrYcP/iqPn342hJ+YPz+9W8ev3JttkWHnBNWTDqxLz0Gz6ni8snAEqgIACtRI2P3q1hh2TnBSba6cZKBtNcSg08SJ7YL4pDlY33F+4cKIiA8aFPUaIu6Xr4ILPJfw/EBEs1313y1ERLTza/czFJAXsV98FgDwVO53sRd1vw4g+nnkR2/g1dEb+Kq5LV0OH9yN4Z3XK44/koZvZfBf/rC0tQmzc8MAdsMQl55DDM9he7wOYewdZJHNHmBvfY2u3blhQMzLoato0DyG3uo7xtjo6zheZ2L4goX3DpDNZnGQuJKpsgs9l1zs+SGCRDaLbDaLbFaD6n6ZVsT+Jf8eh98tRESPu52f9Zgu25S9wz/Gq6M3kC9/Hk+6X6TL6zSPd94C8FwOL1RG+NybI3yuUsMzzwH4RQHv/NU2TiMUyTFF2TUfn8O4uCtComAMmtD7ABQVWsq8KE5pYpaS0cLpFVwqS0REPg2a3maH8XcLEdFj4Ykf/If//FHy96L4mPsVj1T1sn8X9z4aya/jLR2I197AF9Lu1wHUv4fXMg1A+yK+2vg8HuVfxlEFQO4b+OqN91G980M81AHgWcSL/w5fOHxm+r0OSdwcfQ17rmftHpW+ie8X3luy7fvolH6EnxYaeGg+81Tui/j0K5+fPXPNg14piVgBKHbvIVa7izuFCnQA0HIo3ivj0Nau2FZHrjZC2d5v9TxCmQq0YheNwyjQKyEZKyBeG+HG/SQyFR3Qiug2Mqjlb6FQ0aHlamg4GpE3N56AfXA3hHfe0vDJSgOxa7YXzkr4aa6A4XNFfOZPD/Fx20sAUM8nkakAuVpjg/EO0Kzq6LufdlM1ZGVnqQyaqOqzW1a1LKaaGw7QabfR709mbiiKiv3rCdhXWg07JzhuAfHUASKDJk6tb3IVFfHrCX8zTRbEalHiKRzYG/cYL4YdnIiAHe8fNKvij2tVQyoRkZ7BN+mH6wgP2mgv6AexrTHd7+Z+j/fNjHVXy+La2Qn0vgEocaQOIhg0T9HqG1BUbTxjSX4shhh0bLFCgaLu4/rU/ovj8jyewsEe0DH/bwBQ1DiuJ/ak+wvjPlcQT7lmJJn7bShxpA7k25YZC/EGb8eOfdz2h8v6d8Zn2c/n1kUuBogxbp6ivWTfpCz4fE4d0/Dev563XfD/W3yfH3wzx3vhGMuMhbdt5T/zksx+sz7vgAI1fh0JW8PSx6SvsfDYv57OZ+a2zVNxTp3iOif5itcLb2Mc1PlX5jwZ1O8sWVYcos35++33d8ugeQK9D6jawfR5jIiILtTOzg4M1+yRHfzqV8u/QXlMPOy+737KKf6Mc0ZY5Tv4fsZKlAHAe2gVvo4fbaTAvEjyHdkSZQDwsPJDHMVWvSmAjqNbMWSsRBkA6BUUYnmssmutO2aiDAD0I9w1E2UAoFfuoLTiBKxoLO5+agPqeP8tAM/dxDOORFkd3R8eic/WL9ozPmN13K/oAHRU7pSw4q5fQkN0TnW0bH/EA4Bh9KEfz64P1D89wbF9yYPRR+t4U3fHk4/XbtgRfyBbyQz3H9DeGeifupZ+GH20PMSwyHnbvOiAaK9tu1gy+u2pPvY6FtPLVIzFy1SMAZrVY9uFM2D0Wzj2VXR7gDPzm39nMnOATtuMyTBwbntJjtexkD12FJy3Z/XvrG2D4jWGITonx9Bn7tv08RAMmf6V2VZGUO3KkBkLmW2F/ml1xvEwe1vPhh2cHIt+mzDQb53OaFfimAxoLLyfzyb9u1xQ8cqP8XrPvxav50k5sr+zvArvHSCrqVCMFo7n3n3X7++WAc76huiTtvuYISKibbQD/Aq/fqxXYj6DJ5fkWB51xTfMT+3P+BpI+yJudt/Aq6NvwGqmdf/tyevpr+HVAOqQPSr9Cd4yZ7O9VPuu+D+6VgwNHOVtMfig64CWq6E7GmE06qKWA4AK7q+QLdN1HVqxi1EtJ5JEFTELrFvUAOhov+t+hx8a9p93PyfU8yGEQgt+kj6SVmdd8QfPP4mZM8d6+OBuEj/JZfBzMUAAWhie2d8EAGncyGkANORuZ+BzIqAPVo0WUZ9F1azlA3Eo9sd+vvKMJMzaL5OfVFwUHp9pV0VcS9m2T0FTAaCPs6m/og0YhvjGOGVtG1fEH51+7o5ni1X8nyo0V+yOWSOQjXfC+qZaWThjwTvDgLMfPMSwjGEYUOIpZDVV9GlffMMvxs+A4fir3+NYWMtUxttZ8SqA0UJ7RrxGv4U+lEk/p8w6Qn7u8jgciosVW12+QfMEVcfF+TmGPg4fi+exkDp2ZvTvzG2DrLfkLYZh5xQtA4ASnyxFssYYBlqzBtmLIM8lXrbd4PlhXWTGQmZbwZg+1md95qUM0TltwYC9XattqzyAnbdjEghoLGTOZ4P2uH/H21rnMqjQ3LX3AohXfozXfP61mTp2Vtw3QPZ3lqRIAgcpDSoMtI5P0HQf475/t0RwTVUAKFD3V/nSjIiINoV3wwTw5L5IYj00/3h4VPomXgu9jHJJzDR71BZ3sXwqZlteCYglkg1ryeOL2M+5Xg7M++gcmTEV/x2SaTOu6Iv4fSsh13ofj2zvkGYuixRJnCjSN8TOtbrS6aQJrYh79nWcWhGvpC9qRth6hQHzbpgxvPOWDkDDM1+q4YUvae5Nx9LlBkajBsrpzaXKxoZDnEPBpGSZAcP+OHBh7CUS2HN8LRtG5Nr8S34lnsLBeFZWGJG9fagAjL6H+iIrk48XrkSZ32UhU8y2xv1gxnA+/Ze5d0oc1+1Xb0oc+xEgHJ59QHgZi8FZX1wYOmbShRFJiG37M6+UzAtJq5/DESzp4qUUwLxjmTXTQ4Ea18yL/RV5Ggsfx46ndgO2NIYhBn1DjNnBnm2GRRiRxHXEldUvsr2R6V+ZbWUE1a5XMmMhs+2El8+8lOEAIgz7cQaz7RlLK+HedtYxKZ4PYixkzmfDocjUqPu2ZXjhCPbjyowkShDx+hvjIM6/gNdxkyT5O0taOIJENoW4YqCvH+NkxhQzP79bIokDZLMHSDjGm4iIthWTZQCejNn/Gpgkoh4evb044aSpF1SofzBe+vmw8HW8Fnp5/CPqnAHQ+4tjXyJ3Y/1FtLSbzhlU7sdBS5dHGI0W/DQOfcczfCszvhtm+KUaPvNmA//iX6eBB+OFrFth2DkRtzg/bsGAgdaxectzvS++bT6uojp36cGaDQdonpjxWD8L6gTtht1/XO5Cmf836fpJxov+qah9ss5EGQD12vrasiiq81tu92O35WNh3l0Vfej2/qpWUbXqbJ0Ppy+y1Wtw710kkUU2m5h63iujr4+XAInZDQdI7EXEdIcVeR4LyWPHc7sBWh6DeVOQGWMGhCGuWd2JgYDI9K/MtjKCatcTmbGQ2XZi+Wde0rlYHrj8OJvwvO3ax0LufGYlbPpntqV2wwHaLQPALqa6cu3x+hvjWduvev6FzLhJcP+Ocj9ejzD2DlKIK4DRmk6YBfm7hYiItsMO8HF8zG91/6vieRVPwZyN1XsbLR14SnsW0P8bOr338agFAM/iqTnL++gxdi02/gMt/FIRL1RG+PQr6fGSzOEDAIgjbK9nRuNaNf3L8keln3jVffMb/DZWKvlC/oTDsOYYKKpYijSZ3WBd/M64cF03P8cOeSfTvzLbygiq3SvMmn21dtswFhHr3N/CsZX8OjaTau6E1DbES3OIum+i3r/thh7b8ruFiIgCt4OPfzyAb2MumegzIlmm9/Go9t/wEM8ifvt38RTeQ6tmXeWqeNLvtKO1i+Apc3XfU0WzXtnUz7w7aAavfr/lfmoz0mWMRg3HHTvtAqlZhucRfg5i2eUXD/EJR5H/Gt7/BYDn9rfmMxbeO0B2XP9nUodHU8UyBlFTxFVPJQCDtlmrJm6v/5I16494ZC3jGdcNWcWMb9lt/MW7i70DDapioK9vaLbeEoOzoC5Q3WNhzl6w1+xx/8y4U9h6WTNfFKj79qVItngVZXzRExR/x84lMnM51+YuGGX6V2ZbpyDODwGQGQuZbWeZ+szLsWZfrbQUb4ZgxkLyfGbWLFMcU+8UqPHUVN3KYOI1rTrGWyCw31nLDAdonhyjZShQNdedb7fkdwsREQVv5+loFI/7xLJJ8qmPnx69B2i/i730i4hrwMOjKlr6RS65nOUZ7N0066wV/gQ/qi+5i2dArFpjlftWkqmHet52x8sN65WSCIVCyNflU17+RfHMp8UNCn7+R3l8YBXyP6vjb/6ogCGAZ/7NoTnTzKmeTyIUSiK/wk0T/Dp3fItt/fG8ebvh3fEFxnDQQbO9aOmJ7aJqOBgXh151iceuopiFqpfX3pGLF6II+8GkUPCmEmbTy4BEAWJvd2fzYvlY7Cqi8PVpc7Aw0RCcMCJWMevTJsY1mocDNK147TWFAiZ/7Gw7q55RH3rT/tkZYtA0i4u7Z9EESKZ/pbYN9PywLjJjIbOtnfMzP/4M+T3/Rq6JmmetY5x0XHF0miufK9c9FjLnM6u+2f7160iNi+sfILHgW6j1xut3jC9O8L+zJIxn+ymIp2bVF/P/u2XQPEG1esLZ5kREl8QTDx48+Mj9pAxVXcO3XxfufTSSXzfvLilma+UPn8Gj0jcnNcBy38Cr5RcBAJ38yziqiDthfrXx+XESbfy8bVtHG7PY2pDZFngbP0p+RyTyZrD2QVavlESsIO5SWbaXLavnEcpUoBW7aIynbtWRD2VQsW0GANA0wLzzZeMwCvRKSMYKgPXY3Zb5eOr/lNJDKRlDQRc3Jxj5b8iHHrp/GMPPf+F+HsBLNXzulVmx2PpOK6K7Qr00PwbNKvTzOFIHewhbSw1213O3RjurwL2qZWFv2np+Hvv2C7ddxx0mB82Z9WHsyy4WxuCKV/yh3QLsyzbM5wyo0HzWf5nXl1b8jmUiGKBp1dKxUxTAvIvYwV54OlZ3W+Zj6/9c2A9TYzFZwjKLcz/MeKfaWNWCGFb4v2TGYmGfzTnWvbQ777i1OI8H76RimHecAYCiQjvwd6zPMi8uP/07j7ttYH4/+x1jKXP+b4v/sfC+7cJ9W+EzBCzaP5GkmJw+Z4/9rGNyYbzusZj7/wvO/l1wLpE4zhRFxf71xHg20qJt4Y5XivcxDur8KzNuc+Nd8XeWrPF4KNbfR/MsOB7m9qNtH5e2T0REm7azswPDVRaBBf4BAM/gyfENGZ9FPCOSTPbC/0/tz/rFd5FexBca38XN3LNiCemFSKPcLSI3vuGjhlyxhm7jNjZ2Y9CxKDI3RSC5G5suLhdF7E+7eOEl+50vxd0wPzMzUQYAadzIaaLPbm/2RgfTM8nMYsAbFN47QCquYrJIRREFcrW47TkhHNlHXFWcxaSV2UtafIkkkNLUhcWqZeKdKbyHA00V3/SfNGcsjVm3CBKpONRxcOIuXakDcec2v+TGQhRH1lTFWx8FYhLDhNkXU/EGY+VjZ6tFkEhpiLv6V1E1pNaYKFtEpn9lth3bxPlhLWTGQmbbGZQ1fYYiCaS0ONSp5YrXfZcCCG4svJ/PwuadQiG6ysEw+tCPJ78Dgot3xTHeuGB+Z0kL75p9tCyR5ed3SwTXVEVstx/EDQmIiGjdOLOMiAIjvqWFY5YAEZEsnksuxtzZQTSHNeNIhZaazCAbv9Y8Rqu/yowxIiIiCgJnlhFRQIboNJsY2Iu5DAdot4xLU0iYiLYBzyV0mU1mag9dVe6Gw3MYYg0eFFZ/JyIi2nqcWUZEazC/foff2klE9DjiuWSbcGaZrPnHr4XHMRER0fbhzDIiCkgYe9c1Z+0ZZdYt14mIFuG5hC4zW20zV9ExRVER53FMRER0aXBmGRERERERERERPZY4s4yIiIiIiIiIiGgBJsuIiIiIiIiIiIhMTJYRERERERERERGZmCwjIiIiIqIra9g5QbVaxUlz4H5pJUG1S7SdhuicVFGtnqAzdL/2OGE/XDZ+z9VMlhHR1dQrIRnKo+5+ni61XimPZCiEUCiEZL6EnvNFJEMhJEuOZ4nIxvqDUfLvxQtz2eK9bK5M/w6aC/ZjiEFfFG02+meYuYkvQbXrwbCDk2oVJ7xSp00aDiAOeQP9QQDH3sLP8RYJuh82aBt+BwQfg/9zNZNlRHSF1FFK5lHvAYjGELee7tWRT7oSK7708MHdJH762RB+8ocl/Mr98lgPH/xVXmxn/vz0bn3B9uRJPY9YoQLdfKhXCrg1Toz1ULpVgK4Vce8wanuTrMs1xsPOCaonHVh/qg2aVcdjIiIKI6IqAABFvYaI+2XfvLc77JzgpNqUukgj2jrhCMQhr0CNhN2vBmqrPkMX2A/kh/dztRuTZUR0dfSANirIxJIo1buAtg/U80jGMqigjXf9ZsvORALlJ5+N4Z239KWJiA/uxvDO6xXHdsO3MvgvC5MvtEz9fgVADsXuCKNRDTkN0NvvAgB6pVso6BqK9w7hK1V2Scf43DCA3TDEn2pDDM9he0xERAAQ3jtANpvFQULmMmk5r+2eGwbEvAaiyyyMvYMsstkD7G34D43t+gxdXD+QP17P1W5MlhHR1RFNo9wYoVuL4yhTQEUvIHOnhXiti1GjjLSvLArwwQ9FAgXQ8Mn/s4hn3BvYnebxzlsAnsvhhcoIn3tzhM9VanjmOQC/KOCdv/KbsbOp5xEKhZB/3NeYWlPMUMfdgg6teA9+J5Vt3Rh7IpJjirJrPj6HsT1/SRIRERERXVpPPHjw4CP3kzJUVXU/RRtRRz6UQavYReMQKOVvoVARV45aroh7Zffsih7qpbu4M17CpEHL3ca9cnqyXa+EZEwsY+o23O8H6vkQMhUNxW7DdkHqoV1gDfGK7W6/cjgj4eHedl4M22DVfpixbxy3Kb16CXfvFFDRAWg5FG+/gsPpALw7LeGn/08ML7ySxsdRx998NoP3nyviM396iI+7Nv3gbgjvvKXhk5UGYtdsL5yV8NNcAcM575NSzyOUqSBXG6Gcdr8op1dKIlYAit17iNVs46HlULxXdiSfxLb69P9rxqMVu2gcRsfHZLw2wo37SWQqOqAV0W1kUDOPIS1XQ0M2ePP/sdOKXdxux5BpzT7+Pdu2MV5ogGZVR9/9tJuqISv5DZrV9nk8hYM9oNM8Rcus86CocVxP7LlmrQ0x6LTRbvXNb3wVKOo+ricik+2GHZwct2AocaQO3O8XS0f1voJ4yv4NrYd2gTXEK7bb39/D9EoK97bzYvBu2DnBcQuIp64jPLC1raiIX084vqEW2xpQtSwcwzhooqr3ocRTONgLj/t3V8vi2tkJ9L4BKHGkDiIYmP2hqNr429RJDAeIDJo4XRCD4LUfZMfCG+l4hwN02m30+5NZCIqiYv96wjHGMmMh3nCx7doNmifQ+4CqHTiPDR/sx9n+cH39G9TxIJjHZL8/9QWB8/My41y58Lw4xKB5Kj5DU+znKI/tmp/VRcafY1nm5x6u94vzqYgn5fiMin1rLx03GbJj7OFcwt8XguR53XzTemPA4mN46ncTIHmcefgcL/j/LdOfoS3oB8/nSRmSx6/HGKR/BwTQv9IxeNw3z+dq087ODgzXwciZZZddu4Z8KDZOYMCs4xNzTTmp52PI2BIYgA69kkHMXscpmsFNDYB+hNrUxIg67lcAaDeRsV2NemrXzne8YrvM3empNNPbLolhG/juhxn7xnGb6NWRT4YQyxwBt4vIIYfabeAoE0PIqmXmx/VDfPqVtIfkRx3vvwXguZt4xpFEqaP7wyOxZO8X7aVL/DZPx9Et13joFRRiq90goXXHTJRBHJ93bclWvXIH0nX402XUctr4oZar4V7sLjIVIHd7hUQZHocxlmQM0Kwej/8QAwCj38Kxq/rqoHkM3XYhARgw+jqO7XXTrNoeRh/TdXAHOOuLP4jsf+B4atfOd7xiO709XQVletslMXhmoH/qatvoo3W8Wi2W87Z5QQXRXtv2h7TRb0/dsat/eoLjqRim7+wl3Q8ex0KWt3iH6JzqaNn+gAYAw+hDn9m/XsdiW9qF+ZkxxP/RnjMG0hSct2f1rzsGH/Gu/XgYTo5JexArG6JzcjwnUXY5DDsiiWpdDE5OqZN9mx4392fIB49j7Olcwt8XDjLn9aBi8E7mOAvqc7wl/SB7npTh6fiVjcHr74Ag+9drDLL7thomyy45vVJABRqKtS5GoxFG3RpyAFC5P7nIreeRqQDI1dAdjcR2o6646NQLmOQxoji8nRMXzu6sS/0+KnBdkHpud8JTvFaCJ1e0tTtCt1ZEbt/emr8YvKjnxd325v6sktDx2g+e943jNhYFEC+i1m2g/DzQgkiwNLo15LCP51fKpnhw1hW/KP5JzEy6mHWwchn8/C0rDdXC8Mz+pu2g6yL5JMaji5oYYNz3OxYAdF2HVuxiVBPHZ6UiZqV1ixoAHWa5MSnpcmN8bDXKwN1MBcjVVp5h59lWjHEEiWwW2awG1fxWM5vNIpuKQ7E/nvPNmRdGv4U+FMS1lNm2+L9gv4vQoDmZwZA1/89sCpqqAEYLk+uJMPb2Vcy8a9TgDH0A6r7tG1HP7U54ite60FLjtnazSGlxs1CvjY8YZBgGoIzbTkETweJshXYNw4ASTyGrmX3dF9/SpuKK+GP23LG12N4eg7mdY4x89IO3sZDlMV4A2FUn/7eH/vU8FlvSLhDBNVUBoEDd9/9NvtOM/p0Xg2S8az8eBm1xTCpxaCkrhixSIggX61yZHZ8v5xq00TJEu+Nj3YoVKjRHbSKP7UYS4/hEeCq08fvEj69ZZTNYMzOUGbMmhp3T8b5N+sz8HMNAa9YHWYKnMfZ8LuHvCzvP5/WgYrAdw+M+iLs7QJA6zrx+jmU/Q1vQD4D8eVKGt+NXNgaPvwOC6l/AewyQ2TeP5+oFmCy79HKojRqTJWbRNG7knFtYRbFrjuVtUaTLt5EDULFfDadvIAdAP6o5kkFWGzdsF6RS7Y4tj3escoSabSpQNH2I8qHzithfDNtgeT9I7RvHzZRGuTxjyWc0jfIqS/QkhQHzTomTOljPfKmGF740mRUlpVdC0p6sNZciVjLOJO5KNczMZZGij6JImwPc6q6QFnbfmVIr4pU0EI2N71O6kno+g4p5HG3a2sfYj+EQ51AwKVlmwLA/Xol5cWh9fR+O4Jrrr4yBuJKA5pjBEEYksQ8VQN/+F0vkGlQARn/g+ObRauOa7dpOqt2x5fGO9fsY2C7CwpE9JPacF5f+YpBgLp8RbYcRMYM9H67wvawSx3X7RYMSx34ECIdnHxBKPOWMYU/sm32M/PWDxFhI8BIvEMZeIjH5v61tFwXgaSy2qF0AkcQBstkDJPyv55kWWLzrPB6G6LTNY/LAuRRu1Z4YDkXWwZGICUewH1cAnGOVj2bQ7Imy6eLVQwz6xow+CyOSuI64MuMiW9ryMZY6l/D3xYTH83qgMXgic5wF9zm++H6Az/OkDC/Hr48YPPwOCLx/PcTga99WwGTZZZe7AfdlYro8wmhUNp/vodsCgAoy7tlRoQwqANDq2hIsZhLEsaTPmjFk/79k2zUtjRci4VHLQYOOQiaGUCiJfKk0Ywmdzxg8EDEt+Fk18bK0H2T3jeM2JXqIhiO+zRm+lRnfKTH8Ug2febOBf/Gv08AD+wLV7ZKzZ1TXRLuZcXxO3I9XYs5OzNXKeL6eHycTk/nVZn16dZFjPOycoFqtonrcggEDreOqeKz3xbe3x1VUq+4lD5Jm3Fo7ksgim02Yz5t33kQfetX8/8c/Zn2I86HtQsf8Y86xtMb65t7+f8m2a1oaL8Q3jJoKBQZa+jGq1RM0O50ZS318xiBBtV/trYmi2v94nX7stht2v7oLxfFFuc9+8DQW8pbHaxoO0DwxPyPWz5xaM5AZiy1pNyiBxRvE8aAomJ0C9s9KPvTPbEuJhgO0WwaAXUwdftuif4rjljG+yJxm3vhlxjgAYYjdXjEZOKNt/r5YEoNH7vO4+7EQbAze+DjO1v453oZ+MMmeJ2XM6OPp41c+huW/A4Lv3+UxmCT3bRVMltGU9CtFaPYlffX7YgneK+u/mJ4rXUZj1BVL+DQdlUIBmVgIyZWmzlxtHLctcC02/iMm/FIRL1RGtjpYPQwfAEAcYXutKy+ih2jYk7VijSRyNWcS9wImWF2QOvLW8svnS7iVmdRa0ysF3JIuhiYhqDF+DET241DsS2sGZ2Ipwb7HP47WIZLAQTZlLqUx0G+1oB9XceK7fhJtlWEHJ8c6+usugnPZ2g3Khccb4B1/I/vm7JcWjq2Lr2PzAnDGxenWUK2427hKpzH+vrjKAvwcb4MLP09uSQxB2fC+MVl25UURi4vlT/Y6UgtnSZkF460lffX7lakC8b7alRYVS/gaI4xGXRQ1d1Hw4GIIumbZcj72jeO2BZ5H+DmIJXlfPMQnHAXga3j/FwCe25/xreDlVr/fcj8VqF7pznj5Za92BB0ait0RRqMacrbPQDAufozDewe2ehmT+h2aaq+3Y6+vEwTzm2J7fR/3j/tOZmbhZmtpzeCsP1Wo2Ve70sJiKc1BFtlsCnEFrkLJm4jBv8GZo/jY+gwH6BsAdsPjJRDb3A/T8QKDdgsGACVur6eSNev9+HfZ2g3KxcdrziY0DLg/BWJ50ArMmmWKY7qiAjWemqoB5t+KM7hm2sXegSaSOfqCGcUzl1paM0WCnjnn41zC3xcStiEGk6fjbJXP8aLP0Hb0w8WfJ4OK4fHsXybLHgPP74ui6bfydfQ8XUFGkRFZF9R6YinfrOVT8u161Cshny+h7mjUjMlVFDywGLaA/L5x3C5eFM98Wuzvz/8ojw+sIu9ndfzNHxUwBPDMvzn0cMfF7WTVGqvct5LFPdTztjtebkKvhFsFHbnaxSyx3aYxPnd8q2b9Mbo5u4oo6HraHCz449UujIi4+sFgKJbUzFpSIt+uR8MOms0OBq7aFxGz+LC9AH5gMUiYXhY2xKBpuzPaymw7Nhygcyr+ALUvg9iGfphYHq9lN7w7Pq6Ggw6a7WUXYN5sS7uD5olYFjZ9VboRsvGuj7Wcq4+2la0YDtA5qYqi0yuwavHsX7+O1Ljg+AESa/rWYVdkB9AfOOtwrUcEiQMNKowZd4i16hn1oTft//cQg6ZZkH0DM+fkzyX8fSHj4mOQOc78fY69fIYuvh8mLu48ObHuGB7H/n3iB//hP3+U/L0oPuZ+xSNVDSaLR8vUkQ9lUMnVMFq69qqHUjKGwpzr2Vxt1vIt0T5yOVQqQG1m7SeZdiXi7ZWQjBXGy6qccq5YZGLYBhL94GvfOG6BOM3jJ/+XKKo/03NFfOZPrQRJD90/jOHnv3BvBOClGj63jmWx9TxCmcpa+qlXSiJWEHepdLRl/h9asYvGuEi/eTzYNgMAaBpg3vmycRgdHwuwHrvb8h2/edzEbcej2ZadM2aPtm2MPRg0q9DP40gd7CFs3rK9tTt9JzQ5AzSrOvoz7qg2zfw/5+RuVC2L6SZE+1BV9PuA5q6xAUi2KxHvsIOTY5Fgmaa6YpGJwTurEPfU+wdNVPW+KGI/vjg39822GQBAUQDzDmkHe+HxfsF67G7LfGz9n1YMM031o0w/SIyFBJl4F27rildmLLah3QnbcaFYn3//gos3mONh3udYUVWg38euPQZzH+bxum+KomL/emIyq0mi3bE575m5rRfuz73tOWPqfDbnXAIAigrtYNZ52AuZMZY5l1ge498X7vF1fx5d5/VAYphj7jlD5jib078zP8cWT5+hi++HRecSrBSD9+NXJoZ5+zF1zImtA+lfmRhk9m3eMQMA2WzW/RR2dnZguJZ3cmbZYyGKw0YXtZwG7/dpEwXjK5XKzOLugp92PYge4l4tB83RqAYtV0N3KvkTUAxbwc++cdwuXhSxP+3ihZfseybulPiZdSVR0mWMLqRGWRrlbhG58a5pyBVr6DbEXUyD1ivdQkF31eFLl9EtTvpay9Wcd+AMxAbGeCn3TLKLqAESxt6BuGX4rDrrs4lvn/v9/oLZDH7a9SC8h+ua6ioKr5i3KXdfhAUUg5QIEqk41HEACtS4htSBuOuUX+HIPuKq4uwHZd5ys4vvB5l4w3sHSMVVW6zm+GrxleLfrnYjuKYq4njYn55pEyR/8a5ZeA8HWnxyPCgKVC2Fg/3VIgibd1eFaNLBMPrQj5szlpdJiCSQmjr/rFl4DweaKmb3nNjjjSCR0hCfnEwmY+c7USbLz7mEvy+824YYJI4zP59jT5+hi++HbThPBhfD49e/Tzx48OAj95MyOLOMiIiIiIguJ2u2hAotZZtBZr3WPEar73/WBNFVImb2APFU0LVRtxv74erhzDIiIiIiIqKxyczcoasa0nB4DkOseYUiyggSPSaG6DSbzrptwwHaLQPB3xRim7AfHmecWUZERERERI+pxXV4AHddJKLHwfzPxeP1eWA/PC44s4yIiIiIiGjMVofHVfRGUVTENV4Q0+MojL3rGlT7h8KqLfZYfR7YD48zziwjIiIiIiIiIqLHEmeWERERERERERERLcBkGRERERERERERkYnJMiIiIiIiIiIiIhOTZUREEoadE1SrVZw0B+6XVhJUu0R+8ZgkIiIioscVk2V0sep5hEJJlHruF2aQ2ZbWZIBmtYqq/eeqXzgPmqhWq5i9m0MM+qLwo9E/w8xNfAmq3eWshMjs/aVZtqHPgo/h4o7JbRB8/xIRERHRNmOyjC5QD6U7FUC7iUzU/ZqbzLbr1MMHd5P46WdD+MkflvAr98tjPXzwV3mxnfnz07v1BdsHY9g5QfWkg6H5eNCsOh5fZsPOCU6qzQu+aA8joopbRyvqNUTcL/vmvd3t6AfvLlu8ZPF+TBIRERERXTVMltHF6dVwpAO524dYmv+S2XYdzkSS7CefjeGdt/SlyaYP7sbwzusVx3bDtzL4LwsTbOt3bhjAbhhhAMAQw3PYHvsRQSKbRTabRTarQXW/vEHnhgHnzXwvRnjvANlsFgeJ9aYPvLa7Lf3g1WWLlya8HpNERERERFfNzt+7nyHakPrdAnTkcCPtfmWazLbr8MEPRZIM0PDJ/7OIZ9wb2J3m8c5bAJ7L4YXKCJ97c4TPVWp45jkAvyjgnb/a1LpRkRxTlF3z8TkMZimIiIiIiIiIpDzxn//ng4+iH3M/7Z2qXuRck8dXr5RErAAUu/cQq93FnUIFOgBoORTvlXFom34lttWRq41Qtieb6nmEMhVoxS4ah1GgV0IyVkC8NsKN+0lkKjqgFdFtZFDL30KhokPL1dBwNOJXHflQBi3r/15IZts1OS3hp/9PDC+8ksbHUcfffDaD958r4jN/eoiPuzb94G4I77yl4ZOVBmLXbC+clfDTXAHDOe9bnwGaVR1999NuqobsSjNEzP9nUTvDATrtNvr9yWwiRVGxfz2ByNT0tiEGnTbarf5kWzWO/f29ybaDJqr64j1T4ikc7E017pEZQ78/lVhUtSwmuzmjjxf1A4YYNE+hmzWfnBTEUwcQIXtsN8B+GHZOcNwyoGpZ7A+bOLXGQ1ERv54w47S/wcMY+4nXS7vSRP+ex1M42AM6zVO0zDFR1DiuJ/acsy49xiDdZ1PHugJF3cf1RMT3rE/pGDzum+djchwDEE9dR3hg2795MXgk0669Hxwhmsfg+DgbdnBy3MKulsW1sxPx2VTiSB1EMDCPC0XVxrPoJjEcIDLw0L+ex1jymJTijmHGOXXMve28eImIiIiuvp2dHRiuC0Iuw7zUdBzdiiFjJcoAQK+gEMuj7txQSuuOmSgDAP0Id81EGQDolTtrKbDfK91BBRpueihAJrPt2lw/xKdfSXtIcNXx/lsAnruJZxyJsjq6PzwSyzJ/0V66jPNqGKJzqqNluxgHAMPoQz+erlk1aB5Dt13UAYDRb0Fvu7cMynASg/O8uKIhOifHcxJl20rBefsEx/bxMPpoTY2b3Bh7F1S7JmOAZvV4nJSAeawdO6q3y8bgtc9mHesGjL6O45XrCXqNQXbfZBjon7r2b2YMsoJp97xtJsog2mvbklVGv42Oa0D6p7P692RqO+kx9nRMypmOYf45dXrbJfESERERPWae+J8PHny0wsQyziy7INZsMQDQcjXcK6cRRQ/1fAyZChyzyGRnlumAeC52F6FMBYBo75XunHak9VBKxlCI1zBa2tDibev5EMwQZ9OK6DZWrXO2YGaZNXvspRo+90ravCHALXMJp2XGrLNAiBkLsGZY2GZSzJgU4sOymWVDdJpt4No+9sbTGMyEVH/OTC01jpRtJsVw0EF7GEZib7r9QbMKva9CyybWU2zcmv2kxKFdn8y8GA6aONb70zNVxpb0g63d1IG5b8MBmsc6+lgU/5J2TevuB2tmDgAoqmbOLJk3bjJjLHiLV75db+yzpBTEteui/Znj4T0GqT6zjgdVQ2o8a2cy89DvvknFILFvTouPSbkYvJNpV3ZmmQFzVmO4PZ79KGbnOduZG0PnFHrLcM6MlBpjmWNShsQ5VSpeIiIioqtv5syyVRJltAXMZZEiGRRF+kYOANDqrjD9Syvinn25o1bEK2kgGovbt/KvfhcFHch5KUAms+0FCgPm3TAntc6e+VINL3xJc28anOEQ51AwKVlmwLA/DlwYe4mE7WJcPBe5tiCh3u9jMJjMYwhH9mYmytZviE67D0CFduBcomSP3o/h8BwAoO7bllOFI9iPKwDOMdzWaRvmEjQR82Tczh0B+xhjT4Jq16JCyx5M2g9HMN20jxg89NngzDzOHMvbwogk9qEC6J9Nz/qR4iEGX/smw1MMPgTRrhLHdfsaSiWO/QgQDs8+USrxlDOGPTFuRn8wueuwrzH2ckz64OGc6i9eIiIioscLl2FeckEkkbSbGcdMLPfjVdXvV8YJuGWWbZsujzAaLfhZeVaZN8O3MuO7YYZfquEzbzbwL/51Gnhgn2EWjGHnBNVqFdXjFgwYaB1XxWO9D4wfTy8bCsRwgOaJGY/1Y87ecIogoalQYKClH6NaPUGz04HtGm8zFAWzL5H9sy66+2e25UzDAdotA8AuwvZ8xRZRr3lMUnoeY0lBtQsA6rWpmTqRRBZZ9wweyRiW95l5R1r0odvbrFZRtWYXnQ9XWva2PAaT5L7J8ByDpCDaVVR7gmj6sdvu1Ad2F4pif+xzjL0ek555Paf6jJeIiIjoMcNkGW1Wr4Q7FY8JOJltL8q12PhCK/xSES9URrZaZz0MHwBAHOHAl2BugWEHJ8c6+l4LgEUSOMimkNLiUBUD/VYL+nEVJyvU7PEuwDuFRvYRVwD0Wzi2LkKPzYvQGRfIl4rsGHsVVLsytiGGoFzlfaOJCz2nEhEREV0tTJY9xur3W+6nAterHUFHDrc93NXSy7b1fAih0IKfZAkrLEj14HmEn4NYdvnFQ3zCUeS/hvd/AeC5/YUzF1YV3jtANptFKq6YS3uyyGaz0FSxxCiVzSKbte6+GJxB26oHpJn/p/mjLVpbFBbLhA6yyGZTiCuzi2xPrGsZozk7xDAgFk1OiCVKKxi00TIAxTH9RIEaT82s++TPuvpBjr8xxtJ4/be7PsHEEEZ41/45nPFj1bULUDD7tt0GZ+5P9poMB+gbAHbD46WZ2zDGE8vOqdsWLxEREdF2YrLsMWDVGqvctxJHPdTztjtebkwdd0UBMsxZVWkjs+1FiuKZT2sAdPz8j/L44Mx8+qyOv/mjAoYAnvk3rpsCBOTcMWvEWmqzebvh3fGF1nDQQbM9I/k07KDZ7GDgqqsUURVxV7YZse+K7Bb6g0mtIP/MC0b00bauIocDdE6qWHVlmlUPaP/6daRS1gXoARJrylautx/88TTGJpl4ZdoNyrpj2FUUwGjhtDlYmDDchHXv2zaYXvY8xKBpu+PlymyDNhygcyoSj/YlolsxxhLn1K2Il4iIiGjLPfGD//CfP0r+XhR+C/3zbpgXw/MdLsWTyIcymLpppKYBuj51N0xYj91tmY+n/k+v6nmEMi0Uuw0smCwmyGwbhNM8fvJ/TfXYhOPOmD10/zCGn//CvRGA8V0ygzdoVqGfW3dgHKJzcozW7uy72Hlm3TVtDvsd4ex3j5vFcYc1253pps25G9ycWBx3pZMxJwZFVYF+33kX0Tn/t8VrPyiKiv3rickNBSTaHZvznpnbeuD5boJL9g3uMbZ4iNdXu54svpujnUwMMn0G67M4p+mpNjySiUFm3+aNl2VWu15ikCHXrv3ukjaKAhi2u1aan3dYj91tmY9n3Q1zytTxJDPG3o9JKXPOZ4L7nCoTLxEREdHVN/NumI5HdEWlUe4WkRvfmFFDrlhDt3Eb4t6Zm9BDSRQgQ2Zp8ktm220QRexPu3jhJfudL8XdMD+zoUTZ9EyyAGtyzRHeO0AqrmKy+FCBompIaXHbc6bwHq5rqqtQtrn9rEQZRD2e1NR7VhDew4EWn7SnKFC1FA72V/sPwubd8mBer9sZRh/6cRMrVRBadz9IkBpji4d4fbW7ZsHFEMbeQQqaqqzYjn/B7ds2iCCRikMd74gCNa4hdTD5HPoRjuwjrirO41aZt5z64sdY7py6BfESERERbbknHjx48JH7SRmcWUaemLPW4l5mpclsS7RVrBkbKrSUbQaZ9VrzGK0+Z24QERERERFtC84sowtTv1uAjhxueEh+yWxLtF0mM/qGrgpdw+E5jD7EbA9RZomIiIiIiIi2EGeWERGtzeJaQFihthgRERERERGtH2eWEREFylYLyFUMSFFUxDUmyoiIiIiIiLYdZ5YREREREREREdFjiTPLiIiIiIiIiIiIFmCyjIiIiIiIiIiIyMRkGRERERERERERkYnJMiIiIiIiIiIiIhOTZURERERERERERCYmy4iIiIiIiIiIiExMlhEREREREREREZl2/t79DBERERERERER0WOKM8uIiIiIiIiIiIhMO0+7nyEiIiIiIiIiInpMcWYZERERERERERGRickyIiIiIiIiIiIi087/YIV/IiIiIiIiIiIiAMDOr379a/dzREREREREREREjyUuwyQiIiIiIiIiIjLtPP30x9zPERERERERERERPZZ2osyVERERERERERERAVyGSURERERERERENMFkGRERERERERERkYnJMiIiIiIiIiIiIhOTZURERERERERERCYmy4iIiIiIiIiIiExMlhEREREREREREZmYLCMiIiIiIiIiIjIxWUZERERERERERGRisoyIiIiIiIiIiMjEZNljpldKIhQKIZmvu19aSVDtEhGtw7Bzgmq1ipPmwP3SSoJql4hoHXiO2h4ci8uJ40b0+GKybIZO6Zt4LfQyyvkf45H7xSnvo1P6Hsqhl/Ga7edHW5kz6qF2pAMA9Mp9rC/EoNr1oo58KISQ/YcJOyJyGGLQNwAARv8M6/tzN6h2vRigWa2iav/hH/K0ZtZF4mU5tBiv20Weo64yP+ffDY3FoBnwMbVd+BkioiAxWTblbbQL7wEAHlb+Gzo99+tOnfzXcVRo4KH7ha0UReamBgDQcjeQdr/sW1DtEl1ew84JqicdDM3Hg2bV8Zg2KYyIqgAAFPUaIu6XfQuqXSKidbj4c9Swc4KTapNJhi0YC/KD40b0OGOybMqL2C8+CwB4Kve72Iu6X7fp/Rg/rYh/PlX8Br46egOvmj9f2NKMUfSwgdFohEZ5vQEG1e5yaZRHI4xGI4xGNeTcLxNdkHPDAHbDCAMAhhiew/aYNi28d4BsNouDxHr/1A2q3eUiSGSzyGazyGY1qO6XiYgu9BwlnBsGxLycq8Tf+feix4L84bgRPb6YLJth7/CP8eroDeTLn8eT7hft3u2bM8qeRTzz4uJtiegxIpJjirJrPj6HcfWuFoiIiIiIiK6kJx48ePCR+0kZqur1+5QtV/8eXss0XE8mcXP0Ney5nh0bv+dZvNT9YyQXzULzrId6/hbuVHSIKmCApuVw+14ZaUf7deRDGbSKXTQOgVL+FgoV8Q4tV8S98iEmm4ttzUlwQq6G0dxZYCKGjNmek4Zit4HDKKTa7ZWSiBWAYvceYrW7uFOoiP3TcijeK5vt2d9QR+nuHRwt7Qc7M545MVw+MmMMMW4lW99Cg5a7jXvl9GS7XgnJWAG6VkS34X4/UM+HkKnYxxje2gXWEK/Y7vYrhzPG2L3tvBgm6vkkMhUgV2tgc4fDAM2qjr77aTdVQ9bPN5TDATrtNvr9yTf1iqJi/3oCkakpa0MMmqfQzVobTgriqQPsWe/x3K7Yv/N4Cgd7QKd5ipbZvqLGcT2xt8LMORFve60xzBiPhX3vtc+8tzvsnOC4BcRT1xEetNFu9cX+KSri1xOTMRi/wetY2JnxzIlBmscYxL4ZULUsHP/toImq3ocST+FgvIMy4yZDtt0hBh3bOECBou7jeiIy2W7YwclxC4YSR+rA/X6xpFrvuz5DXtoF1hCv2G5/f2/G8eDedl4M3k2O3wNEBk2cru34lewHj+1uTbwe2T9D+8P1xxvIOcoL8xywiPP8AHH8evod4F1wx4PdsvNvkGNhfub7/akv5JznZdnj18NYmOfJXS2La2cn4vemEkfqIIKB2b6iaq7ZWEGdoy72M0REV8POzg4M18mUM8tk9X48KeY/Tq69h7ditgL/SS83Bpilh1IyhowtQQQAul5BJpZEaVb9tHYN+VBsnJQAAL1SQMx3kftJDOun4+hWDBlbcgR6BYVY3nVTgB5KtzIozOwH97aPAY9jXM+7+hY69EoGsWQJ40MnmsFNDYB+hNrU8VTH/QoA7SYytgyUp3btfMcrtsvcnR7h6W2XxIA67ld0ADoqd+Ztc9kM0TnV0bL9gQcAhtGHfuyuBzNE5+R4TtLHTaZdkzFAs3o8/mMbAIx+C8e+K+xO4p2O4QSdWYXeAoxh/Qz0T4+h2xIeMPpoTfWvj7FYu4BjWPu4mTy2O2i6xgEGjL6OY3s9wXAEqiLGaDB17A1w1hcXYvYLK0/t2vmOV2ynt6f7a3rbJTFI6J+e4Hjq+HV/Nn0cO576Qb7di41XloLz9qx43TH4iNczr+eooPj4HSChf1qd0b/udoPsXxlex2I4+czbA17E0/ErNxbnbTNRBhFn25aIM/ptx/bBnaO24TNERFcRk2WW9NfG9ca+atYs27Re6RYKOgCtiFrXqsPVRS2nAdBRmJFE0CsFVKChWOuK7btm3S7HXSkl6nrV745j6FrvsdpEDrWRfcaRRLsmXQe0XM1su4uaCBb33bsWz032adm2AajnXXfYdP/YkjQy2/rhaYzreWQqYmbfeNysY0cvYHLoRHF4OycSl+5sWf0+KgByt20zwDy3O+EpXisxl7MdZ6MRurUicvv21vzFAKRxI6cB0JC7nZk7+2z9rDomooaJqpk1TVJxKPbHfr+Z3FUR11JmnZQsstkUNBUA+jiz/5U3aKNlQHzLa22bsuqqqNCy9hkxEu2ajH4LfSiT91ht+7xT1LBzOo5XS9ljUAAYaM1IDHiLQaKujFSfSbRrMgxAUTWz7QX9KzkWgQgwBm/jJs9Tu4Mm9L6YHTAeY+s4M1qYHGZh7O2r4qLVnS0bnKEPQN23zcTw3O6Ep3itxJxqOyazWaS0uEjm2fmIwTsDhiFmiYyP37j4bE71j+Sx460fZNvdgnilzIh3Xgye4w3wHOVFJDGOUbSjQhvHI37ss8r8/A7wzpjetzUdD94ENBaDtvjMO/osi5TYeCYvx6/sWBiGASWeQlZTRZ/2xSyvlNnHxrm54abPUbP6DDJjLD9uRHT1MFkmK/p55K1C/rWk+eSzeKk7Ke7/amNJrbOZeqgd6SIh1bAvQ4siXb6HouZONljMBJb1hmgaN7xkrebodVuAO2ESTeOVogaghe4qWR+IhEdjvHQuirQZbMvRcBSH5fJkn8znrG0fP8vHuC4yT6g5liVGkS7fRg5AxZ5hTN9ADoB+VHMk8aw2btiWLEq1O7Y83rHKEWr1SRTR9CHKh841k/5iANLlBkajBsrTazqDNxziHAomJcsMGPbHvoSxl0hgz7FOIIzItek/4YZD8dep44I+HMF+XAFwjqHj+sB7uxNm8sh6TziChZsvZN2WXYV2YF9aFkYkcR1xZd6F6DpjkO0zH8zlKKLtSf+eOxr2MxbrFnQM6x23ieXtDkTmCZpjyU8YkcQ+VAB9+5VS5BpUAEZ/4JjxYLVxzZbvlmp3bHm8Y/0+BraL+nBkD4k9Z8LdXwzeKfGU8/jdE+06+8fPseOlH+Tbvdh4fdiG84OnGILg93eAd8EdDwFZOhZDdNrmZ97RZ1iynHHZ8etjLJQ4rtu/fVPi2I8A4bDzD56gz1HL+0w8vzVjTESXApNlW+NdtHUAuRuYLq8URSyO2cmqGdunyyOMRuWp572Iiv8Ilfu22VC9Ou4WdABxxFbMO+TsmZhFenXkk0nnDK2MozpaoEQfLvix1fuS2daXpWPcg8hxVpBxz2qzasq1urbEmJm8cizFtGZ62f8v2XZNS+OFmJVYy0GDjkImhlAoiXypBFvezOQzhgsy7JygWq2ietyCAQOt46p4rPfFN7LHVVSr08sYPBsO0Dwx/w/rZ0ZdGOuP1P6ZbWnDcIB2ywCwi7D7r2mP7Y7NuH16JJFFNpuYen458+YHM9oEwhC7MiNZNWN7/zH46DNJqj27sojsWAQhyBjWPG5jS9s170iLPnT7flWrqFp1ac6Htgtn8yLSsRTTmull/79k2zUtjRdiZoOmQoGBln6MavUEzU5nxtJQnzFI2J36AOxCcc9ug49jx1M/yLd74fFK2obzg+cY1s7n7wAJgR0PAfE8FooCqe/gZvSx8/iVHwtFddYbcz8Wgj9Hee6zLRljIrocdo6Pj/HXvV+7n6fHVfoVcxZbATErKREzkxIzkiCB6JWQjGVQ0YOom0YAkH6lCM2+FLN+XyydfGUjIyyky2iMumLppaajUiggEwsh6bve3hU37ODkWEffS3GSyL75DXALx9Yfg8fmH6TuP4Jl2r3KZPosKNswFtsQw5aI7Meh2JdqDc7EEqb9jRwNQiSBg2zKXHppoN9qQT+u4mSlGlkBCerYuWztBuWyxXvZXKr+5R22fblUY0xE24Azy7bNzKWW1uya1Wd2LWXWLNM0zfakhlyxu7E7TNbvFiDKptlrVI0wEkXLNkKmDpnMtsEwZx7a68y5f9yz28xC/9ZSzPr9ylRhf1/tSouKpZeNEUajLooaoFfu2G5msYkY1ie8dyBqhsQViOUOot6FptprYbnqhXk0aLdgAFDi9nofWbNOyNTGaBmA4vjqXIEaT03VS5NqN0jupR2A7dvo1Wd2LSXRZ0HZhrFYRwyDM6tIzTYxZ0XYa9K5f9x3vjQL/VtLtQZn/anC/r7alRYWSy8PsshmU4gr7sLZm4jBZThA3wCwGx63u45jZ5a1tLvBeINy2eJ18jAzbJO/Ay798WDOjDMMuM+2YrnjitY+Fhdwjprhco0xEW2DnVQqhd+Lfsz9PG2cVdepgky+bkuu9FDPm4X/NzCzy6oPdfvePXTHNxlooDyp6r8x8djz4yRIr15C/s7mlmFeNs/vi2L3t/J19Dxl5qLIiGwZaj2xBFO7OV0IX75dj3ol5PMl1B2NmjFBR/vdybN+Y6jnk2J553T2OXDnjm8trT8w12M3vDv+g3I46KDZnv7D2KoNsn/9OlLjAr0HSCzI0nlpNxhWzZQ+9Ka9foy4dX3L2MzMLj99FpSLG4sJLzFML10dYtC03Rlty+wqopD0aXOw/MIdELVsRLYMg6FYgjlriZF8ux4NO2g2Oxi4au5EzELb48LZQcYwZmt0OEDnVFx0zlr65OXY8UOu3YuPNyiXLl6R1UF/4Kz/N7GJ3wHO46F56Y8Ha0lkH20raz4coHNSFUX0fQtuLII/R3l3OcaYiLbBEw8ePPjI/aQMVb0a2fhHpW/i+4X33E9PaF/EV92F++vfw2uZhlng/4+RdGcapNWRt+owuWk51Br2mk/mtrna8hlf9fzCel9asYuGmQzrlZKIFWYvf9S0HG7fK09uPuCj3VxtBEe4Zhuztp3H0YZEDJePxBijh1IyJpKqM0z1OzBuH7kcKhWgNrPOnUy7EvH2SkjGxAzCaTlXLDIxWGyfJa2I7oZnnw2aVejncaQO9hA2b8Pe2tVWmqE07JzguDU/CaFqWVjNL9pWUVTsX0+MZ8cs2haudoEBmlUdfXW1fZlmtut+GgAUFdqBvR6QRAyD5sJaJEo8Nb4j26J+cPeZn3ad/ThpY9a28zjakIhBhlQM88ZNUQDzDmmTGCTGTYpMu+Zncc7uTY0RMG4fqop+H9Bm1qaSaVci3mEHJ8fion6a6opFJgbvFh4Prn1YuO1UDN77QabdhdtuKF4Z23B+kInBlzmxzDw/uLYBZv0O8G5hn61yPMzZJ4tj3yS2lRqLOecHRVWBfh+7vo9fj2Nh/v+wYnLHaD6e7Euw56ip97vjCXKMiehK2NnZgeFaps1lmFsljXK3hmLOuQRSy9XQdSTKghM9FHcYBADHSkwAul5BJpafsUx0vaKHDXSLOUz+e7MPakXbc+QUxWGji1pOk+gjMZuxUqksmLXop10Pooe4V8u5jjFznKeSdn5iSONGThNLiG9Pz5gLlnsm2Xpqi4T3DpCKq5gsElTEbdK1uO05IWze6Qtm3sLOMPrQj5vjJRYy7QYngkRKQ1x1LoFUVA0pnxdJsmT6LCjbMBZyMUSQSMUxGTYFalxD6mDSl9sljL2DFDRVmbEv84iZFv1+f8GMCj/tehDew3VNdR2P5nhMJe2CiSEc2UdcVZwxKLOXJ8sdO97JtLsN8QblssU7FkkgNXUcu23wd4Binqcu+fGA8B4OtPikXxUFqpbCwf6q0QY1FsGco2RcujEmogvHmWVkY83gyaHWtc0gs17Lx1CozJvJQ0Tbwfr2VoWWss2Gsl5rHqPV9/8t7tXEPiMiumrmzjoiIiJy4cwyWuJdtM2lbl1XSfpe7120xZo27D/veImItspkJpv7RuzD4TmMPsS3qVL3m7/q2GdERERERDTBmWVks7g2FC59DTCix8HiuiAAa21MY58REV01nFlGRERecWYZLWGrDeUqDqVpORRrTJQRbT9bXRBXEQ5FURHXmPSZxj4jIiIiIqIJziwjIiIiIiIiIqLHEmeWERERERERERERLcBkGRERERERERERkYnJMiIiIiIiIiIiIhOTZTTXo9I38VroZZTzb7tfugB15JN51N1Pb0CvlEQoFEIyv97/Pah2r7Lem0mEvhxC8nX2WRDYv7Q9Lu6cT0RERETEZBnN8T46R+8BAB5Wmui4X96oHkrJDCo6gJ77taD1UDvSAQB65f4aL9yCateLOvKhEEL2nwtI2NVfDyH05RBCZmLG/XhaD7V3zD5rbrrPLps68l82+9P6mduvlg3178/yCH05hPzP3C9QUKwk6EX3ufsz7n7s0AOgV5AJMWFGRERERJu382v3M0QAgGewd/NZAMBTuQT23C/79Kj0TZRD35NKvtXzMRR0DcVuGemo+9WgRZG5qQEAtNwNpN0v+xZUu5fH858Q+++mfeJ591OmKDIvmH2WuBp9ZiUxnD9JJF8vof6he+ugXb3+pe0i9ZmPplHuFqGhgswFJPOJiIiI6PHGmWU015OHf4xXR28gX37R/ZJvj9rv4aH7yUXqeWQqgFa8h8ONJ8qE6GEDo9EIjfJ60wdBtbtcGuXRCKPRCKNRDTn3yxtmXSjPu5C2i362gdEPRmh8adN9tkk69GYBmVeTKPlOmKVR/sEIox+MMPqB9zF+PPqXLprnz3z0EPeKGlDJgPkyIiIiItqknY+5nyHaGj2U7lQArYh7F5UpI9qA3FesxNYIo9e6qCU0ADoKf17a/Mpjoi0SPbyNHIDKHX4WiIiIiGhzOLPskhLF97+JRg94VPoeyqGX8VroZbyW/B4aU1cUb+NHoZdRLr0P4H008qJwvyje/2M8mrGt9fproZfx2pwC/5MY3kdnUQz1743bOqoAQANHrv9DxOZSv4uCDmg3M1icKuuhnk8iaavBlUzmUZ/qB1GrK1nqiURcXhTYF0X23RdisnW9RAyO7cc/SZTGjXtvV9wAIIlSr4d6KT/Zv2Te1p79DXWUPPXDdoh+Ij7zcfwT7tGWrb/VQ/3NPJK27deyrPHDOkqvJ53tfju/ertuvxVF+ksiQYCzNt61vxZIDN77VywbTaL0oauPv52fMwvO3O7btrb/rOLeaBxD8k3zs/n6ZHlq8nX3ZxOi3WX98GEJSbNOV91q79sl9GztT9/IwH3sJJF8vT7j//dOps/m1hYz67yJ/vG7bxr2PwH0lsQgeO0HuXHz/pm3S+OVogboBdx17xIRERERUUCYLLvkWrdexvcLjcnSRr2Bt2IiiTal/TZ+FPo63qqIwv0A8LDyQ3x/TjLMm/fQuvV1HE3FIFeXbJb6/QoADTcziy6keiglY8hUdIjS5IKuV5CJ2ZNUNu0a8qEYCpXJO/RKAbE5SavlJjGsn46jWzFkCpXJ/ukVFGLuotc9lG5lUJjZD+5tt8SnymLJ32fN8TUflz/l3lBO/fUYMvdt/QWIZY21VXqhh9KfZ1Bouvr3rILMq5vq322IAeKY/HNXH59VUJiKoTcZizPHC/N9UEP+yzEUmrbPZrOAmCPx00Pp2zFkZvbD9NLV1k+SyFjtnR3h7uu3xu3rzTuO7aePHR16M4PYt6cTP3K89pkcmX0DgKM/TyI2FcN0n0n3g6dx8/+Zj2ZuQgNQub9KbxERERERecdk2aX2Hh7qwFO5b+Crozfw6ui7uFl8ViSwatMztR5WfogWnsVLte/i1dEbeLX7DcQBwHG3yxfxhdEb4vWR+foSUzHkAKCBtnVdk/6a2d4b5mtJ3Bz/H+Inf/iMo02gh24LgHYTi3JlvdItFHQAWhG1rlWHq4tazlzGNmMqgl4poAINxVpXbN81azo57kopUdfLnAEHrYiu9R6rTeRQGzVs9dYk2jXpOqDlambbXdREsJi6boznJvu0bNtLRab+Vh33mwASRXTH7xmh+5Uicp9wbyspkkPxK93JcskfdFFLQPSveybQKj7sofR6BhUAcBfaDyQGmf4V9DNAS9TMPp4Tw8/uItMEcK2I2mv2sZj/P+hN87Np7eNrZjy2u3P23ryFwpm7XdvSVVdSVD/Tod3oYvSVHAAdlaaO3FdG6N4Q27c/MDf8WV7EO94vW7tnBdz13b+Cpz6T5HnfxNZie3sM5nZHf2tLgfnoBy/jtpJoBjc1AK3u7GQdEREREdGa8W6Yl9xTxe8iX34RTwLiDpaHWcQBPDx627W8EmaS6o+RTJuJqeiL2J9/3epd7hvOGG4kAQAPu9MJO+/eRVsHEI8tWILZQ+1IFwmpxqHtTplRpMv3UBRTEWZcrJkJLOsN0TRurNAPvW4LAJC7fTiJNWouHUIL3VWv7nI1NMpps+0o0mawLUfDURyWy5N9Mp+ztn3sNI9Q+9mkf6KfOkT5s6sUrY/i8EtlHH7K1b+/s57+rfyZbZniqzEUmgCu5VBzFNoPNgYpiRoaX7Idk2YMrQ+sPu+h9JOK+Kx96xDp35q8df7nGWL7HzQm+/hbadxI2F/vofaO+Zl3tBtF+kv3ULw2I0FzrYh71kwm8/Ern5peElj/WzPe8X7BbNesmfW302cSKUv7zAeP+2bRbnSdMXxW7Jv+Tm2chPLXD8vGbVVRxOIAdNeyZCIiIiKigOz8rMd02WX2VMw9IyuCp+bdYCyXwJ7rqb3yG3h19LWp52XEb6zvbplyzIRazjX7BphcXM1KVs3YPl0eYTQqTz3vRVT8R6jcty1R6tVxt6ADiCO2ODuwVO6Gx6h6deSTrrppmVn1oa6yNMpfyUGDjsKfxRD6chL5N9dQrwyiXlj+25OaTKEvz6u/taJrGnI3auh+a8bxuKkYlsj9zlRks13bh7jvoUfumXQA0l8aYfQDqy/eRfts9nZAFLEIxGfeNt7aC86ah+7HQg/dAQBUkLH37ZdDCH3ZnOU3WG1Wk+c+k+DeF/djt+naYM9j/5r9sc9+mDEeznEjIiIiIrpcuAyTaFXpV8xZbAXErCRVzLywnJGYC0SvhGQsg4o+qRn02PpUGY0fdMXSy2s6KvcLyLw6q+C5hA9LSL6aQeUsmP513A3zWw2UP2uf1WMKOIb1MpNaRERERERElxCTZVdN7220dADxZ8xlkduoj0dTUxPcnse+1xo1M5damjXP1jCzaynrrp2afUqfhlyxi1F5I6ky1O8WIMqmWbXNzB9RtOwxFBVLL78l6i0Vr80ueO5VvWb27w17HaeRWStqM7YhBu/MGUvuu3mOl/mtyL3UErDNioojZlv26Y05K+2as9ad4+dbtmXWG1b/W7HUe+0+rOHoDEDEWu6+rf1g1bCUnKlIREREROTTztNPf8z9HF0qtrpgvbfxo1s/xMMLXRq52JP71g0IZtVUs7Nq1ByhNjdbZtUaqyCTr9uSaj3U82bh/w3M7BJ37czh9r176I5vMtBAeVLVf2PisefHF7K9egn5O2tITJjqebHEM+n7rqEb8GEJ+ddLqH/orOeWeWFWwXN58U/Y+vdnJeR/sr7+9WobYljOWhJZwZ03zbH4sI7St0OieLxvVi2sCjKvuz7zr5uF/2csCfTi+U+IAva3Xq+j5zOpuiqr1ljlb60l3T3UX7fd8XJlts/Fh3WU/lwkYO1LRLehH6b0ajhaWsOSiIiIiGh9dqLMlV1qrczX8VroZfET+46YVZb7Br7g52oRAOrfm7QX+g5aAFD5zvi5cmmVov3AkzEVAPCw8B18f/z/zG5XFKfXcTQ/W4Z02bqTZWayBDIUQ6aiA1oONb8zu+p5W+0vc0llJTN+LlmaxPT8viYu3mMxxGK2emGhEJLJPOr28CXalSFiACqZ2LitWKaAyqxrbF8x1HHfbEyv3MHMTYLys/x03aRmZvxc0krGmFrNAjKvxhz1lmL3dQA53PiUY1PPnv+E2b9/Nmk39mcFVDa41FAqBpk+k9lWQjpThAZAv2/G+2oGhTNAS+Qwr6yiF+kvWXdazCA2jjsmEkpTN0XwLvpZcYMAvZlB7NXJsWP95GfcBXLtPnXD3LeCuW/Wfq3SYxP2Y8caDyRqKNs+F1vRDy692pFI6nmt30hEREREtCIuw7xKtGcRL34DXy1v56wyAED6a/hqLTn/JgR2Zi0wvXB3xpIrSxrlbg3FnHMJpJarodvYTHHp6KG4SxwAOFZiAtD1CjKx/IL41yN62EC3aE9CmH1QEwmL1aVRvgxLOn/rEPe+koPmKFquQUvU0F2h2Hj0sw10b7j6N1FD9yvr6t/ltiEGKb91iMZXipOxuKYh95UuGpl914ay0ii/VkMx4frMJ+bcFMGzKA6/1UUtoV1gf6ZRfq2I3Pj4tW72MDnH+BH9ndsoJjTn5+KahtyNLkZTycVt6Ac7867HWhGvuEMlIiIiIgrIEw8ePPjI/aQMVRUzhWizHpW+ie8X3kO89ob/WWSXQT2PUKYCrdhF4wKWNS7XQykZQ0HPodYtI+0IsYdSPoZCBcjVRvA7yW1b9Op53MpUoCOHms87hxIRyeiVkogV9CtxDiUiIiKi7bSzswPDMJzPOR4RbZt0GbUcoBdubXbpn2fvom0udXTfiqDXexftCgBo2L/EVanreWtZZ0UshaoxUUZEG9Ar4VZBB3I1JsqIiIiIaKOYLKOtJ+qS6SjEXPW/toJ5105UUIhN6oWFQiHEYqL+k1a8h62cFCdJ03KodTm7g4g2oFdHPlaArhXR5UmHiIiIiDaMyTK6BNIoj2rIacD23QotisNGF7WcNlWvTNNyKNa2dfmod+myuMNno+FeZkpEFJAoxE1aGofbd9onIiIioiuPNcuIiIiIiIiIiOixxJplRERERERERERECzBZRkREREREREREZGKyjIiIiIiIiIiIyMRkGRERERERERERkYkF/v3o/Rjl2A/x0PFkEjdHX8Oe4zkiIiIiIiIiItpWMwv8/73jIRERERERERER0eOLyzD9iH4e+dEbeHX0Br5afNb9KhERERERERERXVI7T7ufISIiIiIiIiIiekxxZpnD++iUvody6GW8Zv6U8z9Gp+feTtb76OS/6Wj3teT30Om9797QVwz1fBKhUBL5uvsVIiIiIiIiIiKSwWTZ2PtoJL+Oo0LDUbj/YeWHOIp9Dx3bc3Lexo9CX8dR5T3nDQH0Bo5iP3K16yeGOu5XdAA6KndKWJBTIyIiIiIiIiKiJZgsMz0q/Qne0gHgWbxU+y5eHb2BV7vfQBwA0MBR/m33W7ypN9ECADyLeE3UOXt19Aa+2v0G4przTqL+YkjjRk4DoCF3O4Oo+2UiIiIiIiIiIvJs53/wdphi6ePRewCAp4r/Dsn0M+Lp6Iv4fauAf+t9PLK9Q957aN2ZLKd8MvoivtD4PPbGr/uPIV1uYDRqoJxmqoyIiIiIiIiIaBVP/ODHpx+l/pn/Mv+q6pwddTm9jR+FvmPOAJsniZujr9mSW8Kj0jfx/cJ7c1+3llaKGWMTT+W+iE+/8nnsjfNb/mMgIiIiIiIiIiJ5Ozs7MAzD+Rx+9Wv82vEUrdczSDa+i6/Wvoi4NnlW1CH7Jn7EovxERERERERERFvjiR/8h//8UfL3oviY+xWPrsbMssnsr6eK30X+0FwC6cHymWVu7+NR6Uf4fqEhHua+gVfLL64UAxERERERERERyZs5s+zjTz/tO1F2dTyDvZuiLtjDwp/gR/X33Rv49qj0PZTzb+PR+DaVz+DJjIqnnJutFEM9n0QolESes9SIiIiIiIiIiFbyxOmDBx/5r1h2VWaWQdQMS34HLVdtMYt9ttdkNtkc2hfx1cbn8eTSbZ/FS90/RtJet8xjDBN15EMZVABAK6LbOOQdMYmIiIiIiIiIPJg5s2yVRNnV8iK+0PgubuaenTHry78nD/8dbhaTeMpWrwx4Fk/lvoibjkQZfMaQxo2cBkBD7naGiTIiIiIiIiIiohU88eDBg4/cT8q4OjPLiIiIiIiIiIjocTJzZpnjERERERERERER0WOMyTIiIiIiIiIiIiITk2VEREREREREREQmJsuIiIiIiIiIiIhMTJYRERERERERERGZmCwjIiIiIiIiIiIyMVlGRERERERERERkYrKM5npU+iZeC72Mcv5t90sXoI58Mo+6++kN6JWSCIVCSObX+78H1e5V1nszidCXQ0i+zj4jHg+0TS7udxQRERERrR+TZTTH++gcvQcAeFhpouN+eaN6KCUzqOgAeu7XgtZD7UgHAOiV+2u8EAqqXS/qyIdCCNl/LiBhV389hNCXQwiZiQ7342k91N4x+6y56T6jYNWR/7I5/tbP3OPAsqHj4Wd5hL4cQv5n7hcoKFYS9KL73H1Ocj926AHQK8iEmDAjIiIiugp2jv+6h1+7nyXCM9i7+SwA4KlcAnvul316VPomyqHvSSXf6vkYCrqGYreMdNT9atCiyNzUAABa7gbS7pd9C6rdy+P5T4j9d9M+8bz7KVMUmRfMPktcrT7rvZlE8svbf5FtJTGcP0kkXy+h/qF766Bd3eOBtoPUOSqaRrlbhIYKMhfw5QMRERERrRdnltFcTx7+MV4dvYF8+UX3S749ar+Hh+4nF6nnkakAWvEeDjeeKBOihw2MRiM0yuu9HA+q3eXSKI9GGI1GGI1qyLlf3jDrwnPehald9LMNjH4wQuNLm+6zYL37gQ4xR+oy0qE3C8i8mkTJd8IsjfIPRhj9YITRD7wfk1f1eKDt4vkcFT3EvaIGVDJgvoyIiIjoctv5+NNP42PuZ4m2Qg+lOxVAK+LeRWXKiGhK7itWYmuE0Wtd1BIaAB2FPy9tfqU00RaJHt5GDkDlDj8LRERERJfZTjTKVNllJIrvfxONHvCo9D2UQy/jtdDLeC35PTSm/kJ/Gz8KvYxy6X0A76ORF4X7RfH+H+PRjG2t118LvYzX5hT4n8TwPjqLYqh/b9zWUQUAGjhy/R8iNpf6XRR0QLuZweJUWQ/1fBJJWw2uZDKP+lQ/iFpdyVJPJOLyosC+KLLvvrCRreslYnBsP/5JojRu3Hu74gYASZR6PdRL+cn+JfO29uxvqKPkqR+2Q/QT8ZmP459wj7ZsPase6m/mkbRtv+oyQbH8MInSh662v52fM5uqh/rrSWcM3847YzBrYYW+HEKmCQAVZFz7mXxzhcH7sI7SshjW4beiSH9JJAhw1sa79tcCicH78eBr3N7MI/ltW9t/VnFvNI5BjE8Ppdcny1OTr7vPJfB2PHxYQtKs01W32vt2CT1b+9M3MnAf60kkX6/P+P+9k+mzubXFzGN7fPz62jcN+58AektiELz2g9y4eT9H2aXxSlED9ALuuneJiIiIiC6Nnafdz9Cl0rr1Mr5faEyWNuoNvBUTSbQp7bfxo9DX8VZFFO4HgIeVH+L7c5Jh3ryH1q2v42gqBrm6ZLPU71cAaLiZWXRh0kMpGUOm4lzGpusVZGL2JJVNu4Z8KIZCZfIOvVJAbE7SarlJDOun4+hWDJlCZbJ/egWFmLu+VQ+lWxkUZvaDe9st8amyWEL3WXN8zcflT7k3lFN/PYbMfVt/AWKZYG3VXtBx9Oeuts8qKLzq7t8eSt+OIdN0jcVZZcWlijJ6KP15BoWZMbjjDco2xACpcRsfO2eOF+b7oIb8l2MoNG3nkmYBMUfiR+54aP0kiYzV3tkR7r5+a9y+3rzj2H76WNehNzOIfXs68SPHa5/Jkdk3ADj68yRiUzFM95l0P3gaN//nqGjmJjQAlfur9BYRERERXSTWLLvU3sNDHXgq9w18dfQGXh19FzeLz4oEVm16ptbDyg/RwrN4qfZdvDp6A692v4E4ADjudvkivjB6Q7w+Ml9fYiqGHAA00LauE9JfM9t7w3wtiZvj/0P85A+fcbQJ9NBtAdBuYlGurFe6hYIOQCui1rXqcHVRy5nLwmZ8ta9XCqhAQ7HWFdt3zRpJjrtSStT1MmfAQSuia73HahM51EYNW701iXZNug5ouZrZdhc1ESymrsPiuck+Ldv2UpGpZ1XH/SaARBHd8XtG6H6liNwn3NvK088ALVEz2+6iloDoX9vMmt6bt1A4A3CtiNprVgy2pYpW0s688B79YGS2k0PNFrPjIt2PSA7Fr3Rt7c2Od2Uf9lB6PYMKALgL7QcSg8zxIHgZN/zsrpjh5xi3Ebpfmf8/6E3zXGLt42tmPLa7c3o+Hqw2z3RoN7oYfSUHQEelqSP3lRG6N8T27Q/MDX+WF/GO98vW7lkBd333r+CpzyR53jextdjeHoO53dHf2lJgPvrBy7itJJrBTQ1Aqzs7WUdEREREW4/JskvuqeJ3kS+/iCcBcQfLwyziAB4eve1aXgkzSfXHSKbNxFT0RezPvw70LvcNZww3kgCAh93phJ1376KtA4jHFizB7KF2pIskQ+PQdqfMKNLleyiKr/ZnXPyYCSzrDdE0bqzQD71uCwCQu304iTVqLsVBC91Vr5ZyNTTKabPtKNJmsC1Hw1EclsuTfTKfs7Z97DSPUPvZpH+inzpE+bNrKAKfqKHxJdtY/I45Fh9Y/1cPtXfMY/Jbh0j/lvXGKNJfuofitTVekC8UxeGXyjj8lOt4MONdVeXPbMsUX42h0ARwLYeao9B+sDFI8TBupZ9UZowbFpx/YCY4G5N9/K00biTsr/s4Hq4Vcc+eJL1WxCufml4SWP9bM97xfsFs16yZ9bcrHmVL+8wHj/tm0W50nTF8Vuyb/k5tnITy1w/Lxm1VUcTiAHTXsmQiIiIiujSYLLvknoq5Z2RF8NS8G3blEthzPbVXfgOvjr429byM+I313S1TjplQy7lmswCTi5VZyaoZ26fLI4xG5annvYiK/wiV+7YlP7067hZ0AHHEFl9tL5W74TGqXh35pKtuWmZWvaWrLI3yV3LQoKPwZzGEvpxE/s3V6pXZ5X5n2Vi8i/bZjBlWgDgmIxDH5JriWejDOvLfntRkCn15Xv2tFV3TkLtRQ/dbMz4/m4phieXjZrq2D3HfQ49mjHP6SyOMfmD1hfzxoL3grNHofiz00B1gZp270JfNWX6D1WY1ee4zCe59cT92m64N9jz2r9kf++yHGePhHDciIiIietwxWUa0qvQr5iy2AmJWkipmXqjNSMwFoldCMpZBRZ/U4HlsfaqMxg+6YunlNR2V+wVkXp1VQPwK+7CE5KsZVM6COR4cd8P8VgPlz9pn9ZgCjmG9zKQWERERERERk2VXUO9ttHQA8WfMZZHbqI9HU1/1uz2Pfa81X2YutTRrnq1hZtdS1l07NfuUPg25Yhej8kZSZajfLUCUTbNqm5k/omjZYygqll5+S9QvKl6bXUA8MO6ldYBtFkwcMdsyv4n1zTir18zj4Ya9jtPIrBW1GdsQg3fmjCX33TzHy/xW5Ot4WMSclXbNWZvP8fMt27LwDav/rViavnYf1nB0BiBiLc/f1n6wam5KzlQkIiIioq3BZNmlZ6sL1nsbP7r1Qzy80KWRiz25b92AYFZNNTur5ssRanOzZVatsQoy+botqdZDPW8W/t/AzC5x184cbt+7h+74JgMNlCdV/TcmHnt+fGHYq5eQv7OGC31TPS+WeCZ93zV0Az4sIf96CfUPnfXcMi/MKiAeBKv2UQWZ113H5OtmofcZS8Ce/4RVuNz+ntXFP2E7Hn5WQv4n6zsevNqGGJazlkRWcOdNcwQ+rKP07ZAoHu+bv+PBi+c/IQrY33q9jt6akqyyrFpjlb+1lqD3UH/ddsfLldk+DR/WUfpzkYC1LxHdhn6Y0qvhaGnNTSIiIiLaZkyWXXKtzNfxWuhl8RP7jphVlvsGvuDn6gsA6t+btBf6DloAUPnO+LlyaZWi/cCTMRUA8LDwHXx//P/MblcUp9dxND9bhnTZupNlZrIEMhRDpqIDWg41vzO76nlb7S9zSWUlM34uWZrE9Py+Ji6GYzHEYrZ6YaEQksk86vbwJdqVIWIAKpnYuK1YpoDKrGtWXzHUcd9sTK/cwcxNgvKz/HQdomZm/FzSSm6YWs0CMq/GHPWLYvd1ADnc+JRj00Ckv2TdWS+D2DiGmEggTBXBF6ykg37f/p7pffNKJN+Ayp9N+iH2ZwVUNrjUUCoGmTGW2VZCOlOEBkC/b8b7agaFM0BL5DCvDKQXfo4HL6KfFTcI0JsZxF6dHDPWT37GXSDX7lM3zH0rmPtm7dcqPTZhP3as8UCihrLtc7wV/eDSqx2JpJ7XepNEREREtHWYLLtKtGcRL34DXy1v56wyAED6a/hqLTn/JgR2Zi0wvXB3xhImSxrlbg3FnHMJpJarodvYTLHm6KG46xoAOFZiAtD1CjKx/IL41yN62EC3aL+oN/ugJhIAq0ujfBmWdP7WIe59JQfNUQRcg5aoobux4t1plF+roZhwHZOJOUXwIeqsdafi9i/62Qa6N1zHQ6KG7lfWdTwstw0xSPmtQzS+UpyMwTUNua900cjsuzaU5eN48CSKw291UUtoF9ifaZRfKyI3Pm6tmz1Mzol+RH/nNooJzfl5uKYhd6OL0VRycRv6wc68S7NWxCvuUImIiIjo0njiwYMHH7mflKGqYqYQbdaj0jfx/cJ7iNf+/+3db4gj+X3n8c+24JzD7tFxLPsnPTo/6KxoOgKvg42miAh50u42wjAEsTiPBhbEakNoopjFT7xL2J0nx+IIGhP3WjAwD46YpglzLGLVae4IoUONcPDtgdIR2si3Ri3bO+wTtbwPdkH4HlSVVCpVt6okVbc0/X5BP1DpN6Xf71e/qlF99ft966fTzyJbBtWCYtmyjFJTJ9ewrHGylvYySRXNvCrNfe2MVLGlvUJSxbKUr/Q17SS3RdGqFnQvW5apvCpTPjkUAJ5mrb2MkkXzqbjmAwAA3BQrKyvqdruj20ZeAYtmZ1+VvGQW713t0r/APtKpvdTR+yiCVusjnZYlydDmEmd5rhacZZ1la2lRhUAZAIxp7ele0ZTyFQJlAAAAS45gGRaelZfMVDHpyf+1EOyndqqsYnKYLywWiymZtPIpGaWHWshJcSEZRl6VJrMlAGBMq6pCsijTKKnJRRIAAGDpESzDEtjRfr+ivCEt3qPF1rV70lQlb4zlKzOMvEqVRV0+GtzOvvWEz5MT7zJTAIBk/99k5FU52V28/6YAAAAQGjnLAAAAAAAAcCNdWc6yWCzm3QQAAAAAAAAsvEiCZQAAAAAAAMAyIlgGAAAAAAAA2AiWAQAAAAAAADaCZQAAAAAAAICNYBkAAAAAAABgW/m/v/FuAgAAAAAAAG6mld+0WvrMuxUAAAAAAAC4gViGCQAAAAAAANhWXlhf15e9WwEAAAAAAIAbaOVrL3g3AQAAAAAAADcTyzABAAAAAAAA28q/tEjvDwAAAAAAAEjSym//4z/0G+9WAAAAAAAA4AZiGSYAAAAAAABgI1gGAAAAAAAA2FZe+NrXxAMxAQAAAAAAAGnla0TKAAAAAAAAAIllmAAAAAAAAMAQwTIAAAAAAADARrAMAAAAAAAAsBEsAwAAAAAAAGwEywAAAAAAAABbJMGyfr/v3QQAAAAAAAAsvEiCZQAAAAAAAMAyIlgGAAAAAAAA2AiW4UK9xrEODw91XOt43wIWHuPXQj8A4zgvAAAAcJnYX/3VX/2Nd2MY8XjcuwlPhZ7+3//5Nz35XPr8/BnFN2/rlrfIU62j2uE/6vHpqU6dv15cm7eXvxd6jWO9/0//R734pq6rOdHX4Wkcv9OMySvqh05Nh//4OMLjubyiH+sB9Bo6fv+f9IuVhNaf/ZL33elFtd9QFvi8AAAAwFJ45pln9Pnnn49si3xmWa9xrMPjhnr2607tcOR1OB3VDi/69z01ji96D+Gtai1hBULjidta8769YHqNYx0f1sQcAViub/w6M1ZG/451XGuoc+UXp+vrB2BxcV4AAADgcpEHy867XenWqlYlST31zuV6jUW2urGlXC6nrfTi30qcd7vqejfOZE3pXE65XE65nKGE920svMUav11123WZR8dqTB0wm25MLlY/APPGeQEAAID5W2l95t00T1ZwLB53FjicqzvfiAYALKSE4dzA55Tb3paRiEvqqv6Y2a8AAAAAsMie+R//699+98frX/ZuDyyR8Psdt6Paoam2d7NXwlAu1K+69n7jKW1vbXhmp/XUOD5SXd73euo0TnVabw9mHsUTKW1ubmhtbHqbt2xc8cSm7qTXPJ9l1eM8ta2tDalRe6x62/4XiZTupL11C8Nbh3nUNwyfY3fBceo1jnVUl1Lbd7TacdUjnlDqTlobrkoMy25prVPT44llu0oYOY18bKemQ7OteGpbWxurg9eXGZSdid0nF/SDJbpjEXic9TpqnJ6q3R7OsovHE9q8kx4ZO+7+3exdfizsfzH3toWuQ8C2RTV+w7hw/A7qlpCRSw+XfgVum9ukMRllP9jjod0e+/FjtM0hx6966tQe6/Syfug1dHxU1y0jp9tnxzLbXSme0vbWmjr2/uMJwzNbaP7jd8A+dk67pLgSqTtKuzot9FgPW98AdXD6TZ7rYad2KLNtjY3ti/Z/mdD7Ddm20OZ0Xtjt6vp+13DaF1dqe8t1/KJuGwAAAKKysrKirufmZuW3v3265zh0akcyXYEnSdZyqNPx7FbjZbvqtk0dXZQHrdtR7fDIdZNi7ftohqdrjddhjvWNRFftx556dNuqH/nnD2s/PtTRWNlZlqYthkiPRaBx1lPjsam6K9AgSd1uW6bvsYjr/PTY51iMl42ubUHrELZtYYQbv/MXZdvCCNoPveF4cFf4MkHH7/GRTN9+GL8+nJ/agTJZ9Tx1BeK67dOR8pGN315Dx0fWsRvqql1/PFbf4GM9ZH1D1WFUr3E8CGjl5hjQuWy/odp2nVbXZE0EbfvkGezorC0psTkS6FyatgEAACCQ2He+8+d/8+J/+6/6T953AvJ/GuYt3d7c1OZmXL3TM8WNnL51Z1ObiRV1Wk/0nPP60qdV+empc3qm8997Tn+w/qxGn731hT79RUtP5H6vo39/fKbzRErb3/oTfX1zU5ubm0rEV/TFM1/S7Wddn9+p6R//7dz6Jfxbd+yyCcV7n+rsSVtfjDzJzKrHk/MnOldcKeNP9Sd3vq7NRFy91pnOp366VlT1DcM5dsPjdx5P+B6rLz79hVpPPtfnn0vxhKE//dYdfX0zoXivpbPzcz3jqoNVtjteduVTnT3p6vP/PHyamrPfeMLThl5Hp2fn+r3n/sAqe+u2Xc9NxXunOjtPyMh9S3cG9d+c0xPa7HF3QT9EdyzCjLMv9OmnX+i5PzSsMoM6XHYsPp943KJqW6g6hGhbVOM3DN/x2+up8eE/6T/OJSX+UHcGb4Rpm9uEMRlVP3Q+tMZDPCXjT/9Ed77uXKN6ap2de87Z4OO31/hnme3PPfu1x9l5V0++sJ9u+MWn+kXribqff654alvfWf9Cp2dPdH7+uRJGTsZ/6aj1pKsvPWfXI6LxK/XU+GdT7ZE+s/e9cq4vbt2Wc+kJNdZD1Td4HZx+k33tdGa7xROGvuOdVRVGmP2Gatu05nVefEnP/l5Pp2dPRv5vkiR1/l2Pz86V+MM7Ux43AAAALJqrfxpmr6dzxTVMWdZV1/36qrTb6rh+Hl5d21B6Y/SLfMf6qVjGyC/hq1pLbyohqX3m/f1fVvncljacNUKra7rttyo1rMjqGxF72ZNVj1Wt2Z1w3hv/PT2e2h4tu2HVt9vuLO2v79EfiyDjbFUb6fSwjL3NORa+Ahy3yNsWoA5TtS2MQHUIr226noZ5dKR621p6Z4wEESJuWxgT+6Gnxqk9HrZGl4W7az9u0vjtqdPu+ux3VWvpO0rFJbXPRmdgxVO6457WE09pc01aXR39zyWy8dvryKqyu89k7XvDb2mlt6xf/4as7zR10HBZ6Phy1dlM2m+oti2Ctdu+/zd1ztqD8TaybZnaBgAAgIlW9JUva/qMZf56jWP7BrGurrqqH9k3jGZbGrweX1ozf2tKGwnF1VXdPNLh4bFqjYbPsgr7KZ1qy3Rubgd/dn6T8954MMfnkfNr6Zxy7nxEoURc34gkbgdv7a1V7x3cLflOTlwaV3Asgo6zXke1Y/vcc/4uyek2+bhF37bJdbCFbFsYgeswi3hciZSh7S2fa0OEbQsjcD/E4+FmzU4cv/aDX3zKSauy4l/ncscu4wl3UGL8tSXC8XtuLRcN3GeByoas7xR1UPuxjurdQYBtbibuN2TbFsKaNlPx0aWYvYZO297xtoxtAwAAwCQrX/nK+C3GU2Utra3ctraNlBLxrtr1usyjQx3PkFcsUstWXywGO3dRO3AiqSWypG0beRrm1pbSGz4BnaVqG08zdvSs6Mi1mqoOiU17pt6p5vpfSlT7vWara9aPV207WtbrtNVVQpsXTdsDAADAU2PlhRfmPa9MWt3YUi6X03Yqbi1NsG8YjYS1XGY7l1Mu536KVFD2LKRuV+O3CZfdyK1aSxm3csrltmX9WOxOAm3PXhjUzefP54lY0Vm2+s7AWUp0a3VifTtn40d91Ojsk6uxGMeic1pXV1I8ZYzWw5hlOd/T3LbFsFxtu/j6ay1Dm5F3qaXkmrVzS2OTUieKbvw6yz1nXao7Klx9p6vDLW1sGdYPMeY8Z3dP2m+4ti0MO9G/tRTTXi48NgNySdsGAACAS62szz9WNnA+Er1ybnpm4SzJaeu05s4j0lPj2FruMLI8otdQrdZQx5P/aM16zJW6rvrciselbl2Pa51rCLjYlq2+U3FVttdR7bEVLHAvJXJuAttnzlPEeurUXE+/83HLuotXu3P1uc8W6VjcWr01GP+9TkO109mCGE9z2xbJcrTNdf11oiG9jhrHh9bTD6fm5DBry/Rc1zu1x6pfuERzssjGr5PPqn6k44anzo2aT7AomFD1nboOa0pvGUqoO+cnEV++31BtWxir2thMSN26ThsdtbtxpdzJymzL2TYAAABc5pmPP/74d96NYSQSF8+A6NQOZZ6ntL21oVX11Dg+Uv2W9Tj5qfUaOj6yAixj4gkZ7pxAl5VVQsZIzie7fv6FlTByGla7o9qhqXZixrZ4RVbfEDq1S/MlxVPb2rKnBDoJncc+y96HX1lfY/1o969riyQpHpe63ZH9DlxQb9+yQVywP8fofiM6FiHG2aX966lDmOMWVdvC1CFM28IctzB1COPC/fqIqm1hyl5YX79+uOAaFU8kpHZbt6a+Tl5wzstzXbc/X06dvHW0Xw/bEs34lS7r47hS28OZ06H6N2x9A9ZhrN9c27pj/7eEEGq/IdsW1IV9YJn2vBhyjc24833GK6K2AQAA4EqsrKyo61mqGOHTML0zyS5bJhnC6oa2tg0lRrLCxxVP+CTPXt3QHSPhSSBvlx27OVjVxta2jERc15ZvftnqOysn6fnYXcSa0tspJQYNc5KjW08W87WW1vZY312V6z8Wqxtb2k4lXJ9vjxsjNWOdnua2Xb+la9vqhraM1PA8i8eVMLa1tTlrbdeU3jaUGp70F1/XQ4lw/K6l7dySo3VOpO5MkWLAEbK+s9RhdUNbRsKa0Xdc81kCO6UL9xuybQtj+PRW/wdJaInbBgAAgItEOrMMcFw4uwIAgAXWqR3KbHtnygEAAOBpccUzywAAAJaVky9Tiqc2CZQBAADcIATLAAAAHJ2aDg8PdXh4ZD1YJp7SnYnrWgEAAPA0IVgGAAAwxsmb55fUHwAAAE8zcpYBAAAAAADgRiJnGQAAAAAAAHAJgmUAAAAAAACAjWAZAAAAAAAAYCNYdoU+3fu+3o59V/uFn3nfugZVFTIFVb2bXRarvlGZ3A8AMA+tDzKKvRZT5sH1XXGow9OP/l02Yb6HhCkLAABmQbDsyvxKjYNfSpKelGtqeN++Ui3tZbIqm5Ja3vcci1TfqFzeD9UHMcVeiylm33B4X+PmcG4+Cx9638E8LET/frKnzGsxZT7wuRjMRUuVfzUlSWbtUaCb3daHBWXesa879t9sfRS+DvO3CHVYFlUVXMc+2P8/V9S/HxbmMB6fXt7vC97XI1qSzLKysQBBsDBlAQDATAiWXZnf18YrX5UkPZdPa8P79pQ+3fu+9mM/ChXMqhaSKpqGSs197ax733VEU9+oRNEPL71oeDdJkowXX/Js8bmhmdvNrRVIyLzGF2OEx9hZJOvKfsO6phjpu9rxvu3R+iCj5I/LMs+878wieB2iGzvB67AsnGDv6F9GmQd7qn7iLR21p69/l1Hw7w+S1ne03yzJUFnZwoQzLkxZAAAwk5XPvFsQmWd3/7ve6v9Uhf1vet+a2qenv9QT78bLVAvKliWj9FC7PgEityjqG5Uo+8H5cnvRl9+offRrU9Y8ASAcxs5iWf/2ifrv9XXy6qQQhjM7yFDp9ab67/UHf/sve8uGE7QOUY6doHVYbqbMWlHZtzLamzpgtqP9wbGvKO99+wI3o3+XQ+DvD+u7elgypHJWE2NgYcoCAICprXzYIlx2c7S0d78sGSU9nBQheqpF1A/pyshN7bxubgHcNB/p9ExS+gfafXmO1yhEKv+669r/dlOVtCHJVPEne34r/YER67s/UF5S+f7k8RKmLAAAmM7Kb3/zG0URLmvtZRSLZbTXaqm6V1AmFlMsFlMsU9Ce5392q2xs/BeyakGxWEwZ5x+09pSxy1UL1r+JZfbUUkt79uvM2E6u28/0D7Hv6m333wUJ862E+t/XSetXauz9SPtO+cyPdOLus+qPBvs6KEvSiQ48n7G/9yvXP3D+3bsqmpLxSlYX335FUN+RstKngcp+V//gPZR2uwdti7QfpPUXU76vUy9e9q8uZy3XyWjvk5aqHxSUcZbsvFMYnX1g54OJvRZTtiZJZWU9y3zGcyt59vlaRpkHVZ8v0tayUevft7T3YLiEKPNgxi/en1S19yDjqkNMmXcKMy1FCtxnruVQY0tf7f4c9Jmdn6rwoVR12v+OfS2xX48nxza0+aLUmlAHyzUei2nHzpyP24A9Joafn1Fh7POH5tu/tpB1cHPnGgr2L7x8lmmPja2oBazDVGMnqIB1GPAeY+ucmHlMRnCN8vX8unZetQIaOjvVR+73IqlD8P4Nc0212OXc+fN+XPYWmuJ6FuC6M9W12jt2Jlwf5Ow7M/5/x5Sm+/6wozdKhmQW9a63SWPClAUAANNY0W9/q55369yYOriXVLZYHi7nMMsqJmfLg1K/n1G2bO/RPNC7hXsq2q/N8v2xYNxy+aXq9/5aB8WT4bJC80T/OxkuH5ef6qOyJEOvZC/7shZWuPrW731XfzdW1gqiXZXA/fDyvrWU5dt2Ofv17DPFTB38JKnsI9d5cVZW8a3ZzovqA88+ZcqsZZV8x+8mRdKvKyq8llSx5voXtaKSYzceQbW095OsirXR5VvmWVnZGdsWVZ/V388o67T/7EDvPrg36A+zdn/sxvHgJxklx+owvszq+o9FGC3tvZNU1ve4jbctlE/2lHnLGhNDpsqP7vns11D9fb/+HT/Gofo3VB1GtT7IWEGjdEX9V3cuDa7PzA4KWDf3WZUlqZYdDX74te8pNX6MrXMiW/GOhjCivEYFtQh1UIhramt4LILmzwt0PQt33QlzrR4fO5dcHyRJVT2qmdZ14f2LyoQ05feH9ewrMiSVH00eCWHKAgCA8Fak3+qzKKaW2UxTMvIVNft99ftNVfKSVNYs/7ebpimj1FS/kre+3JRN5St9NUvWkofTkZ9wg6kW7JlvF/1lpv0C9U39Wf+neqv/U73V/55Gf2v098SUnst/T3/R/6ne6v+tXslL0olOnT7b+Ut7fz+138volcFnWH+F3d8f2afUUrMuyXhFl8eIIqjvwC/Hy5a+agXcKj4zwCaJtB+m4L2xfS2m2AUJss0zyUhX1Hyvr/57TVXSss4L51dt+4t1/72+/V5eFc/yzsGXcFkzQpybemufzn4N6ayod31+LTdrRZXdOZHetnPizPIEtbW8J8eST9umNLHPpmCemTLuNtV/3b6W1EzlX++rede+lvx6pLRV3l0Hu9zBz11Xh+s+FiHHTuuDeyqeSbpdUuVtT31lqjh1cKKlvZ8UZcp93Jx+87uy+PSv3zEO1b9h6zDU+iCj5COrPv2Zcj9Nl3dqvgLWIeTYCSdgHSQ7eCEpXXIds76ar5eUf9FbNqQIr1EjPmlp74Ed9PQm2o+kDmH61xLomvrhu9b5NnJ96Kv5+sWfEOR6Fva6E/haHer64NjR3bQhyVD+O5fPOI/celavGJLqzcnfOcOUBQAAoUX/NMx8RSf7zi/y69q5a33Bqjdn+K/dm2vKKOmNHWk9efnNz9LIf0+F/W/qWcl6KuXdjCTpSXOKgNLARzo1JaWS8/8iGKK+z5X+drTsbk4pSU8OfqZPvYUjEWE/hJGu6GQwU2VdO39knxe/nu68qP68bN3Yjsx+GS4DKv/cL+CRV+W9k2FOpOd3dDftLRPGunZf3ffkWBq2bWZz7jPJulF76L75v13SGy+PL6FxGHebo3X4ttW/5r9WBjcri3EsgnISyedVeXNXO88729e18+pDlW5PGbCTpE8qOjjzHjfZ/bav3cFnuQQ4xqH6d5o6eAJlV5Yk/fldnXiDHd48iG/uXu9166rVDlT5cHjs11/e1f63Zzke0V6jyj92/VDyVlLFmqTb1lgdirYOoUw831rae98+30auD5owDiddz6a47gS8Voe6PrjsvHqi/nsn2r/2HIHrSqYkmZ6lu77ClAUAAGFFHizL353li60/b64p7+tp7Oz31e9f8ndydTcpqbuL//RJtzD1fS7pnem1pucmPCRqaXhvbN/rq//e/uiMAlv+j/y2TqulZke++YUGy7k6Pr88e2c7SNp59eI6B/JJVYV33LmhLsptE958+8xifMNzLfG89hrPN/OSNm+7Xy/QsQjESSQ//vnSupJrklRXc8JyRV+/PpUZ8rhNLhuyf6eog/71npKPzEEgAddhR/uv52XIVPHHSTvH3BzylSnaa9SI24bydytqvulzDl9VHSYIfF7c3pT1TMeAfK4no9ez8Ncd77XZ+9oS8voAAABwiRXpK/ryl72bASAkOzdU+cydgQY3VevXde+mKzdVHb7xA3tmy/25JfvGFF7e18l7TWvp5W1T5UdFZd/yS+YeQsTXqJGnYb55ov1v++S5i7gO82UHtQAAAG6gFX3lK1r1bl0Q1UdT3OhMKbqcZVehrU8nVu4lbS5ibovWz1Q3JaV+316aebHGo7Z3k8cS98NEl83usX+Jvz2a3+eql29VK3ZuqLvuXDF9O8fM9ar+PKJribPMb81Z1rsYx2LUZWPH5l3yJLlmaaSUvGC54mWc5VEzLZMdE65/p6vDS9p9s2IFaH48nmj8ZgkwdiK1bi29fLOv/ntNlW6PJ3MPYxGuUYtQh+DsmbPep3kOljvOaO7XnXDXh8Xk5FUNMpsvTFkAABDWygvr67ruiWVOrrHyIycg1VK14HriJS707KaTIH9Szi8nt8WBKmHuG+fOlces9TP9w72/1xPPUs5nkwlJUv3R/7Tb9Cs1Ct/XQfmXgzJey9cPwb30opNEvnphgO+lF63kxfceVNWa8kZyXlIvvjS4GWl9uKfC+3O4qQrICY6Uf+66ljxwPUVtZq4j8El1kDzevZxpkY7F5LHj5BIqK/vAXaal6gM7AbfvUqkAXr5r5XN7lFTmA8++PyhMHfAI1b9T12FH+29WlJfp+7TTm2Dy2InQJ3sqPNhT9RP3J68r+w2/B2+Ed53XKMci1GEyZ0lkWfc/sI/FJ1XtvROzkuhPLbrrTqjrg0v1QcZa7nvds0lbFR0EzasapiwAAAht5WsveDddgx3rhkblopKxmGKxpBUoM64umVVkOcuqP9Lbse/afz9UXZLKPxxs298bT4IfhhNYelL8of5u8Dn++7UermDq4LIoUcT1rWf/erj/5A+tWWX57+nP3N+Kd9LWUzjLf2+36a+tQJnxVVehUXPvh2n4Pg0zNvOXbycAZD7KKunab8a5eZG0/m0rKbJZyyr51vzrEIR1cy2Vf5wcfG7yx0WVr3IZjx0cUa1o91XSCpTdns+1xN222FtZ+6auov2Xh2UW4Vg4goydnVedJ9W5yzj95k1OHoaVd0pjn59UdoZZw+H6d5Y67Gj/7ZKVN+st/6faBvJhwVU/O2+S61rhPhaRmaIOQcZOKCHrUK8VlX3Ldb69FrNyySmvu67zLYxFuEaFqkOYPgtTNoSdbEmGHXCOvTa87hnpvGa5qkZ13Ql3fXBU9ahmSjJVfv96VxG0KgfWDzAB8v2GKQsAAMKLPMF/MDvab5aUH3zzMpQvVdQ8sZ5ehEvs/KX+opIJliR/5w2VDMksvjv9jd88GV9VqvQ9/cW+9wEB39SfNf9cqUGb7HIn1pMzfS1zP0zy8r6ar+dljCSS91rX7ptNVdLGTDcws1j/9omad903UIaMdEXN162brathBTjyg75ykmzPdi1Z/6MfqJQ2Ro/BbUP5u031x27qrv9YDAQaOzvaf7uiUtpdW/vY+SUnD+PlfTvn1Oi+83cfXvgkyslC9u8sdXh+Vyev560ZMO/MEDBbRoHGTkSe39XDsc+2x+QMD71YhGvUItQhlOd3dfJ6aXgsbhvKv97USXbTUzCsqK47Ia8PkqyZboZ1XfiO34MDrkpLlQNz8IT3y4UpCwAApvHMxx9//DvvxjASCWtGD5ZEtaBYtiyj1NTJ7tV9Jfx07/v6u+Ivlar8dHQW2XW5pn4AAADwau1llCyaylf62p/wPSlMWQAAMNnKyoq63e7otpFXePrt7KuSl8ziPe1d51qD60Y/AACARdDa072iKeUrk4NfYcoCAICpESy7gXb27cTVyYKqNzhQRD8AAIBr1aqqkCzKNEpqTop+hSkLAABmQrDsRtrRfr9i5Yi70SsQ6QcAAHCN1iUZeVWCPEgqTFkAADATcpYBAAAAAADgRiJnGQAAAAAAAHAJgmUAAAAAAACAjWAZAAAAAAAAYLsxwbLWXkaxWEyZQtX7FiaqqpApaHF7btHr93ToNY51eHio41rH+xZwKcYOcHU43wAAAGa3hMGyqgqxmGLuv4kBsJYqB6YkySw/ii6oUi0oFotpYnWWSkt7mazKpqSW970F0ZJklpWNETALpqPa4aEO3X8Tb6p66rSthIfd9pkmlZ5ap6bDw0NNrM5Tqtep6fh49Ngsf19c0dhZWGHOtzBlQ+g1dHx4qONGz/vOjeIEkebRpdOKvg43/XwDAACYjyUMlk1jXdlXDEmSkb+rHe/buFC1kFTRNFRq7mtnUZ9Tvr6j/WZJhsrKXmOkstc41uFxQ87taKd2OPI6LOemavTvWMe1hjrT7nRqq1pLxCVJ8cRtrXnfxsx6jWMdmW15HsKykHqNYx0f1gLeiDN2gKvD+QYAADAPSxgs29F+v69+v69+v6K89+0LrO+eqN/v62SfUFlg1YKyZckoPdTuogbKHOu7elgypHL22mb2nXe70q1VrUqSeuqdy/V6Xrrqtusyj441/SSRNaVzOeVyOeVyhhLety+wurGlXC6nrTS3X/PnzAaJK2Vs28fG+lvE7j7vdhUmpnezx06Y8y1MWcDfzT7fAAAA5mMJg2W4Gi3t3S9LRkkPFz5SZlnf/YHyksr3965hxagVHIvHb9mvz+c2QyhhDAMnue1tGYm4pK7qj6eftYZFY4+XxKY21uYbXgUAAAAAhPPMxx9//DvvxjASCf/fvlt7GSWLUql5omyloHvFskxJMvIqPdwfn6nUqmrv3fs6KJtWOUmGkdcPHl62/K+qQiyrcr6ivu+MMft996YLyg7r+1DJyru6P6m+aqm6967uH5RlOhW25St9DT/CqkO91NTJrrRXuKdi2foHRr6kh/u7Gt11S9XCPd2/rB9ae8oki0pV+rr7KKNs2ZSMkponWVXs/Rv5imcWnV1fp10yZOR/oIf7O57Pt1ULimXLMkpNnYw3XgrZZ1ZZ09M3Pp8zVduGLvycyHRUOzTV9m72ShjKhfyVv9c41lG9q4ThnV3kfGZCRi49XGbT66hxeqp2ezjrJx5PaPNOWhfHX+x9XVg/n/ZdUNaqr5TavqPVzqlO622rHvGEUnfS2hirQ0+dxqlO2+NLD0fbbNXhPLWtrQ2pUXusup2TJ55I6U56wzN7r6dO7bFOL+uHXkPHR3XdMnK6fXYss92V4iltb62pY+8/njA8MzPs+jrtUlzxxKbupNfmMHtw0nG4ZDx0ajo024qntrVld3L4YzEcP07fSnElUneUdgrbn3MZdx3CjB1LgOM2bdvCmNQPnnLzPd/cwpSdwB7vGjk+1lJxs20dl233OA7ctrDnZlAh9xuwvu5zaLNX0+OJY2f+53zoOgRsW5jzLfJzCAAAYMmsrKyo67kpjXxm2cG9mJKDAI2ViL2YzGhvZOpPS3v3siq6AkSSZJplZZNXmbTd1MG9pLJj9fXWoaVqwS7nCZRd6LSiQiw5CJRJklkuKjmyZrClvUxSWd9+8PaZVL9vB5MkyTzQu65AnFm+P1J+UN/BFlNmOatkxn8WVvVRWZKhV7L+gbKhoH0WTpi2ua1nX5Ehqfxolk9fRj01Hpuqu26oJKnbbcs8Cppbah66aj8+kjm4uZTUbas+VoeeOjW73Og16WLdjmqHR64ghtRt13U0kim7p8bxkUzffhhfunp+agfKZNXz1HVT3m2fjpQf1Hewpatu29TRtHnp7KTrVi46+ya3bY7mqJt231KIY+EEU6zxM9RVu/54rM+iEe64hWpbGIH7YVHOt+n1GseDQFluJPgzRdsCnZtTCLTfsPWN6/z0WEcBxs7cz/mBoHUI27YwIjqHAAAAnhIRB8tMmaZk5Ctq9vvq95uqlAwrwFLxRDtSeZUqTTsXmV02L0llTR/3CJ/fbKy+fnWovqtsWZJRUqXp7L+vplXYl1kuqixj2MamXR/X0zlbe/dUNL37baqSt/qs+O5oR5imKaPUVL+Sl2SqXLZmVDXtPj79yC5o5x7ToF2u/ZpFeXYrqaVmXZLxiibGyoL2WUiB2+a1ntUrhqR60zcIOH9OjiErv9BgyeR2SnH3a59f96fS66lRswMr3uTNtxKefFfbMhKS1NbZ1Hc/4XModbtSPGFo+7I6dE6tG/V4Ssb2cJnptlXYV7ddV9ud02vbro/riW+9xmPVu979upauno52RLfbVTy1rZyRsG4e29aMj+2UVb57bhfs1IYzcEb6Ny516/LsdmEEOhbqqfG4rq7cZe3yKWdZsaS19OA4WftJyBiUtf7cs5bCjJ2wx02B2xZGwH5wRHK+XQ1ndlP8gplHYdsW5NycRuD9hqpv1zrvJ42dSM/5gHVQmLYFP98c8z+HAAAAnh4RB8tkLa8bLPVb146dV8o8qLiCGeva3d/X7sh6y3Xt3L04+BQZe4nfoL52HepNp7Z2Li/lVTnZHVkienlcKa9K/2TYxvUdjTavpcqB6bPfde3sP1TJmi41OlvLm0/MKOmNHWk9mXKXsmeJ5VUZWXK5rp19O8fXWFTrI52aklLJCW2yTeyzKQRs27h1JVOSzFNdFE+LRK+nc8U1TFnWVdf9egZt0zXT6OhI9ba1XMYYucld1UY67cl3taq120FumebMXr5o1WRYh/OeMxejp8Zp2wq2bG2MLCW6fPVPQkZua9jG1TWNNs9Jku/d76rW0neUivvcZMdTuuMO8MRT2lyTVldHD1znzK7vyAycVa2lN5WQ1J7m7nJ1Q1vem9uE4bopzim3Ne0yNtvEYyGp15HVbe6ydvmNq1iSNcVxk7e+F7QtjFD9sEDnW0juQJl/Avhp2jbp3JxWkP1OUd8AYyeSc94tQB2malsYgeoAAABwM0UeLEslveGWl7RpeDbJyllWyGQUi8WGf9mRbGNXIn83YKIrY1MvebddJn9X3j3v7PfV7+/b2+0AlU+5QQBIdbnjT8Yr2ZFglve1xZ4lprKy7r6NxRRz8rnNOAsrcJ+F4G2L9/Wi6DWO7SBWXV11VT+yg1pm25oRc3Sow0O/ZWRTiseVSBna3nLlKnP0Oqod2/Vx/ibkmIpC4vZYzfzF4woVS/TOpJO0ls4pN8jb5iTJHy8nrcqKf53LfR8YT4zmHvK+tthPNlVbprtv3csnz3szLsuKRqBjcW4t8QpUNhLhj5uiqG/YfliQ8y2U9mMd1buDIMmFwrbN59iNnptTCrrfkPWdfIyjP+cn18EWsm1hBK4DAADADRR5sCyQ1p4yyazKgROAXSc7qAVckZGnYW5tKb3hE9Cxcy21AycAu07ze1IoZtezogI3Xqh+WKrzzSWxac/UO9WF6cSWrW3LVt8wnua2AQAALLirD5a1KjrwLPGrvluUlarLnVOrb+erWjT2zDifZX7WcscZeZdaSq7ZYSmNTdSbyJ6VZpRG+9b9d+J9IqfdxhlnnAVRfVT3bpqRk28t5My/Ka1ubCmXc3JcDXM4GQlrSZ+VC2Yr8qVsnVM711LKnV8nZ+fiWjS3FI9bCXO84Qlr6dOM/JbsDWaK3NJq6GNhz24aHE+fv1mXS86gc+btxXCcJafhl16Nz/aaydyPWzhh+mG5zje3W9rYMpSId9U2/We8LlvboqnvYpzz0bQNAAAAQVxBsMwVbmlVVbhnBcb8lu6lki8Ngjat6p4K9+cQfJo7Z0lkWfedRzK2qtrLxKwk+lNzcpiVlS1UXb3WUrVgJ/73XaI52UubViL/e4WqWoGiX07erwN5n8MwLSfXWPmR8/TNlqoF1xMv58UnGHsVzkd++Xdu8K/erdVbgxu4Xqeh2ukcgk9z5yyta+vUuVvvddQ4PrQSak/NyWfUllnruJZI9dSp2QnkfZZ1BXErbiX1flzrzDdAFIITzGmfOU/i66lTcz3Nc1prt5WQ1K0f6bjh6bdGzTegcsuKdqrdcZefVnTHLZRp+mEpzjevNaW3DCXUVd33SaOWZWvbvOu7COe8Y95tAwAAwGQrR//S0mferXNUziaHObKSWZVNKyH8vivq85KdxMxdNpktWmW9qoXxnFvl7GBbxglghS0bws4bJRmSzKJd32RWRVMy8nn5pWMLamffeUJmVslBvZNWQMmwEvRPY33XekCAWc4qmfTmLYupMD6VzU7S7/PU0mnt3LXbVrTb5rRrlh4b16ocXBiMjZw3B9et1chnHjis4IXUNo8GeW2OzLqVsNyrUxvPv9M2B9uO3XfPYcqGsLZpPS20W7fre2Sq3pXiiYSslkxnLe08Lc/U0aDeR1ZAaeyhCMGtbliJ5rttU0dOXjrX34VL2ubJDuaoXbfb5rRrlh6TFTyxZ6p0655+q/tHfZ3A3Wj56cdOVMctnOD9sGzn27g1pbdTiqur+lFtZEZfqLYtgKjquwjnfKi2XdnYAQAAuBmuYGaZi2EoX6qo6Qn6rO+eqFlyB5oMGfmKmhUrKLVw1nd1UikN4zyGoXylqZM3Nj0Fw9rRfrOiUt7darsvTpwHAUxjXbsnTVXyRvD+3HnDCrAV3/VZFjqNHe03Sxo2zR4LJ9YTOefDfqKo/eTMq+OdSXb1OblWN7a0nXIHmuKKJwxtG1ZQauGsbmjLSA3jPPG4Esa2tjZnre2a0tuGUgn3fuy+8HsoQmCr2tjalpGIX2N/WgGOYdOchz1YT+ebyVpa20ZKiZHAW1yJ1B3/JcRraW0bidnjdANRHbeQAvbD0p1vflY3tGUkrBl9x8OA2bK1Lbr6Xv85H13bAAAAMMkzH3/88e+8G8NIJPxv01p7GSWLpvKV/sgsMiyRakGxbFlGqamT3atc1DgdxhwAAAAAAAhjZWVFXc+Ml6udWYblsrOvSl4yi/c05YrVq9Pa072iObbEFwAAAAAAIAyCZbiUlUfNVDFZUHVRA2atqgrJokyjNLbEFwAAAAAAIAyCZZhgR/v9ipVrbFFXYq7LegDCye7CVhEAAAAAACyHyHKWAQAAAAAAAIuMnGUAAAAAAADAJQiWAQAAAAAAADaCZQAAAAAAAICNYBkAAAAAAABgI1gGAAAAAAAA2AiWAQAAAAAAADaCZQAAAAAAAIBt5TfeLQAAAAAAAMANtfLZZ95NAAAAAAAAwM3EMkwAAAAAAADAtvLCl72bAAAAAAAAgJtphVgZAAAAAAAAYGEZJgAAAAAAAGAjWAYAAAAAAADYCJYBAAAAAAAANoJlAAAAAAAAgG3l6F9a+sy7FQAAAAAAALiBmFkGAAAAAAAA2Fa2/3hdX/ZuBQAAAAAAAG4gZpYBAAAAAAAANoJlAAAAAAAAgI1gGQAAAAAAAGAjWAYAAAAAAADYCJYBAAAAAAAAtv8PgAhSdfRojoMAAAAASUVORK5CYII=;" vertex="1" parent="1">
          <mxGeometry x="670" y="3600" width="1227" height="422" as="geometry" />
        </mxCell>
      </root>
    </mxGraphModel>
  </diagram>
</mxfile>
